G04 EAGLE Gerber RS-274X export*
G75*
%MOMM*%
%FSLAX34Y34*%
%LPD*%
%INTop Copper*%
%IPPOS*%
%AMOC8*
5,1,8,0,0,1.08239X$1,22.5*%
G01*
%ADD10C,1.508000*%
%ADD11C,1.320800*%
%ADD12P,1.429621X8X112.500000*%
%ADD13C,1.676400*%
%ADD14P,1.649562X8X292.500000*%
%ADD15P,1.429621X8X22.500000*%
%ADD16P,1.429621X8X202.500000*%
%ADD17P,1.429621X8X292.500000*%
%ADD18P,1.704548X8X292.500000*%
%ADD19C,1.574800*%
%ADD20P,3.409096X8X22.500000*%
%ADD21C,1.981200*%
%ADD22C,0.254000*%
%ADD23C,0.756400*%
%ADD24C,0.152400*%
%ADD25C,0.203200*%

G36*
X32288Y-516119D02*
X32288Y-516119D01*
X32358Y-516120D01*
X32445Y-516099D01*
X32534Y-516087D01*
X32599Y-516062D01*
X32667Y-516045D01*
X32746Y-516003D01*
X32830Y-515970D01*
X32886Y-515929D01*
X32948Y-515897D01*
X33015Y-515836D01*
X33087Y-515784D01*
X33132Y-515730D01*
X33183Y-515683D01*
X33233Y-515608D01*
X33290Y-515539D01*
X33320Y-515475D01*
X33358Y-515417D01*
X33387Y-515332D01*
X33426Y-515251D01*
X33439Y-515182D01*
X33461Y-515116D01*
X33468Y-515027D01*
X33485Y-514939D01*
X33481Y-514869D01*
X33487Y-514799D01*
X33471Y-514711D01*
X33466Y-514621D01*
X33444Y-514555D01*
X33432Y-514486D01*
X33395Y-514404D01*
X33368Y-514319D01*
X33330Y-514260D01*
X33302Y-514196D01*
X33245Y-514126D01*
X33197Y-514050D01*
X33147Y-514002D01*
X33103Y-513948D01*
X33031Y-513893D01*
X32966Y-513832D01*
X32905Y-513798D01*
X32849Y-513756D01*
X32704Y-513685D01*
X27309Y-511450D01*
X21950Y-506091D01*
X19049Y-499089D01*
X19049Y-491511D01*
X21950Y-484509D01*
X27309Y-479150D01*
X34311Y-476249D01*
X41889Y-476249D01*
X48891Y-479150D01*
X54250Y-484509D01*
X57151Y-491511D01*
X57151Y-499089D01*
X54250Y-506091D01*
X48891Y-511450D01*
X43496Y-513685D01*
X43435Y-513720D01*
X43370Y-513746D01*
X43298Y-513798D01*
X43219Y-513843D01*
X43169Y-513891D01*
X43113Y-513932D01*
X43055Y-514002D01*
X42991Y-514064D01*
X42955Y-514124D01*
X42910Y-514177D01*
X42872Y-514259D01*
X42825Y-514335D01*
X42804Y-514402D01*
X42774Y-514465D01*
X42758Y-514553D01*
X42731Y-514639D01*
X42728Y-514709D01*
X42715Y-514778D01*
X42720Y-514867D01*
X42716Y-514957D01*
X42730Y-515025D01*
X42734Y-515095D01*
X42762Y-515180D01*
X42780Y-515268D01*
X42811Y-515331D01*
X42832Y-515397D01*
X42880Y-515473D01*
X42920Y-515554D01*
X42965Y-515607D01*
X43003Y-515666D01*
X43068Y-515728D01*
X43126Y-515796D01*
X43183Y-515836D01*
X43234Y-515884D01*
X43313Y-515927D01*
X43386Y-515979D01*
X43452Y-516004D01*
X43513Y-516038D01*
X43600Y-516060D01*
X43684Y-516092D01*
X43753Y-516100D01*
X43821Y-516117D01*
X43981Y-516127D01*
X711669Y-516127D01*
X711738Y-516119D01*
X711808Y-516120D01*
X711895Y-516099D01*
X711984Y-516087D01*
X712049Y-516062D01*
X712117Y-516045D01*
X712196Y-516003D01*
X712280Y-515970D01*
X712336Y-515929D01*
X712398Y-515897D01*
X712465Y-515836D01*
X712537Y-515784D01*
X712582Y-515730D01*
X712633Y-515683D01*
X712683Y-515608D01*
X712740Y-515539D01*
X712770Y-515475D01*
X712808Y-515417D01*
X712837Y-515332D01*
X712876Y-515251D01*
X712889Y-515182D01*
X712911Y-515116D01*
X712918Y-515027D01*
X712935Y-514939D01*
X712931Y-514869D01*
X712937Y-514799D01*
X712921Y-514711D01*
X712916Y-514621D01*
X712894Y-514555D01*
X712882Y-514486D01*
X712845Y-514404D01*
X712818Y-514319D01*
X712780Y-514260D01*
X712752Y-514196D01*
X712695Y-514126D01*
X712647Y-514050D01*
X712597Y-514002D01*
X712553Y-513948D01*
X712481Y-513893D01*
X712416Y-513832D01*
X712355Y-513798D01*
X712299Y-513756D01*
X712154Y-513685D01*
X706759Y-511450D01*
X701400Y-506091D01*
X698499Y-499089D01*
X698499Y-491511D01*
X701400Y-484509D01*
X706759Y-479150D01*
X713761Y-476249D01*
X721339Y-476249D01*
X728341Y-479150D01*
X733700Y-484509D01*
X736601Y-491511D01*
X736601Y-499089D01*
X733700Y-506091D01*
X728341Y-511450D01*
X722946Y-513685D01*
X722885Y-513720D01*
X722820Y-513746D01*
X722748Y-513798D01*
X722669Y-513843D01*
X722619Y-513891D01*
X722563Y-513932D01*
X722505Y-514002D01*
X722441Y-514064D01*
X722405Y-514124D01*
X722360Y-514177D01*
X722322Y-514259D01*
X722275Y-514335D01*
X722254Y-514402D01*
X722224Y-514465D01*
X722208Y-514553D01*
X722181Y-514639D01*
X722178Y-514709D01*
X722165Y-514778D01*
X722170Y-514867D01*
X722166Y-514957D01*
X722180Y-515025D01*
X722184Y-515095D01*
X722212Y-515180D01*
X722230Y-515268D01*
X722261Y-515331D01*
X722282Y-515397D01*
X722330Y-515473D01*
X722370Y-515554D01*
X722415Y-515607D01*
X722453Y-515666D01*
X722518Y-515728D01*
X722576Y-515796D01*
X722633Y-515836D01*
X722684Y-515884D01*
X722763Y-515927D01*
X722836Y-515979D01*
X722902Y-516004D01*
X722963Y-516038D01*
X723050Y-516060D01*
X723134Y-516092D01*
X723203Y-516100D01*
X723271Y-516117D01*
X723431Y-516127D01*
X749300Y-516127D01*
X749418Y-516112D01*
X749537Y-516105D01*
X749575Y-516092D01*
X749616Y-516087D01*
X749726Y-516044D01*
X749839Y-516007D01*
X749874Y-515985D01*
X749911Y-515970D01*
X750007Y-515901D01*
X750108Y-515837D01*
X750136Y-515807D01*
X750169Y-515784D01*
X750245Y-515692D01*
X750326Y-515605D01*
X750346Y-515570D01*
X750371Y-515539D01*
X750422Y-515431D01*
X750480Y-515327D01*
X750490Y-515287D01*
X750507Y-515251D01*
X750529Y-515134D01*
X750559Y-515019D01*
X750563Y-514959D01*
X750567Y-514939D01*
X750565Y-514918D01*
X750569Y-514858D01*
X750569Y-12192D01*
X750554Y-12074D01*
X750547Y-11955D01*
X750534Y-11917D01*
X750529Y-11876D01*
X750486Y-11766D01*
X750449Y-11653D01*
X750427Y-11618D01*
X750412Y-11581D01*
X750343Y-11485D01*
X750279Y-11384D01*
X750249Y-11356D01*
X750226Y-11323D01*
X750134Y-11247D01*
X750047Y-11166D01*
X750012Y-11146D01*
X749981Y-11121D01*
X749873Y-11070D01*
X749769Y-11012D01*
X749729Y-11002D01*
X749693Y-10985D01*
X749576Y-10963D01*
X749461Y-10933D01*
X749401Y-10929D01*
X749381Y-10925D01*
X749360Y-10927D01*
X749300Y-10923D01*
X723431Y-10923D01*
X723362Y-10931D01*
X723292Y-10930D01*
X723205Y-10951D01*
X723116Y-10963D01*
X723051Y-10988D01*
X722983Y-11005D01*
X722904Y-11047D01*
X722820Y-11080D01*
X722764Y-11121D01*
X722702Y-11153D01*
X722635Y-11214D01*
X722563Y-11266D01*
X722518Y-11320D01*
X722467Y-11367D01*
X722417Y-11442D01*
X722360Y-11511D01*
X722330Y-11575D01*
X722292Y-11633D01*
X722263Y-11718D01*
X722224Y-11799D01*
X722211Y-11868D01*
X722189Y-11934D01*
X722182Y-12023D01*
X722165Y-12111D01*
X722169Y-12181D01*
X722163Y-12251D01*
X722179Y-12339D01*
X722184Y-12429D01*
X722206Y-12495D01*
X722218Y-12564D01*
X722255Y-12646D01*
X722282Y-12731D01*
X722320Y-12790D01*
X722348Y-12854D01*
X722405Y-12924D01*
X722453Y-13000D01*
X722503Y-13048D01*
X722547Y-13102D01*
X722619Y-13157D01*
X722684Y-13218D01*
X722745Y-13252D01*
X722801Y-13294D01*
X722946Y-13365D01*
X728341Y-15600D01*
X733700Y-20959D01*
X736601Y-27961D01*
X736601Y-35539D01*
X733700Y-42541D01*
X728341Y-47900D01*
X721339Y-50801D01*
X713761Y-50801D01*
X706759Y-47900D01*
X701400Y-42541D01*
X698499Y-35539D01*
X698499Y-27961D01*
X701400Y-20959D01*
X706759Y-15600D01*
X712154Y-13365D01*
X712215Y-13330D01*
X712280Y-13304D01*
X712352Y-13252D01*
X712431Y-13207D01*
X712481Y-13159D01*
X712537Y-13118D01*
X712595Y-13048D01*
X712659Y-12986D01*
X712695Y-12926D01*
X712740Y-12873D01*
X712778Y-12791D01*
X712825Y-12715D01*
X712846Y-12648D01*
X712876Y-12585D01*
X712892Y-12497D01*
X712919Y-12411D01*
X712922Y-12341D01*
X712935Y-12272D01*
X712930Y-12183D01*
X712934Y-12093D01*
X712920Y-12025D01*
X712916Y-11955D01*
X712888Y-11870D01*
X712870Y-11782D01*
X712839Y-11719D01*
X712818Y-11653D01*
X712770Y-11577D01*
X712730Y-11496D01*
X712685Y-11443D01*
X712647Y-11384D01*
X712582Y-11322D01*
X712524Y-11254D01*
X712467Y-11214D01*
X712416Y-11166D01*
X712337Y-11123D01*
X712264Y-11071D01*
X712198Y-11046D01*
X712137Y-11012D01*
X712050Y-10990D01*
X711966Y-10958D01*
X711897Y-10950D01*
X711829Y-10933D01*
X711669Y-10923D01*
X43981Y-10923D01*
X43912Y-10931D01*
X43842Y-10930D01*
X43755Y-10951D01*
X43666Y-10963D01*
X43601Y-10988D01*
X43533Y-11005D01*
X43454Y-11047D01*
X43370Y-11080D01*
X43314Y-11121D01*
X43252Y-11153D01*
X43185Y-11214D01*
X43113Y-11266D01*
X43068Y-11320D01*
X43017Y-11367D01*
X42967Y-11442D01*
X42910Y-11511D01*
X42880Y-11575D01*
X42842Y-11633D01*
X42813Y-11718D01*
X42774Y-11799D01*
X42761Y-11868D01*
X42739Y-11934D01*
X42732Y-12023D01*
X42715Y-12111D01*
X42719Y-12181D01*
X42713Y-12251D01*
X42729Y-12339D01*
X42734Y-12429D01*
X42756Y-12495D01*
X42768Y-12564D01*
X42805Y-12646D01*
X42832Y-12731D01*
X42870Y-12790D01*
X42898Y-12854D01*
X42955Y-12924D01*
X43003Y-13000D01*
X43053Y-13048D01*
X43097Y-13102D01*
X43169Y-13157D01*
X43234Y-13218D01*
X43295Y-13252D01*
X43351Y-13294D01*
X43496Y-13365D01*
X48891Y-15600D01*
X54250Y-20959D01*
X57151Y-27961D01*
X57151Y-35539D01*
X54250Y-42541D01*
X48891Y-47900D01*
X41889Y-50801D01*
X34311Y-50801D01*
X27309Y-47900D01*
X21950Y-42541D01*
X19049Y-35539D01*
X19049Y-27961D01*
X21950Y-20959D01*
X27309Y-15600D01*
X32704Y-13365D01*
X32765Y-13330D01*
X32830Y-13304D01*
X32902Y-13252D01*
X32981Y-13207D01*
X33031Y-13159D01*
X33087Y-13118D01*
X33145Y-13048D01*
X33209Y-12986D01*
X33245Y-12926D01*
X33290Y-12873D01*
X33328Y-12791D01*
X33375Y-12715D01*
X33396Y-12648D01*
X33426Y-12585D01*
X33442Y-12497D01*
X33469Y-12411D01*
X33472Y-12341D01*
X33485Y-12272D01*
X33480Y-12183D01*
X33484Y-12093D01*
X33470Y-12025D01*
X33466Y-11955D01*
X33438Y-11870D01*
X33420Y-11782D01*
X33389Y-11719D01*
X33368Y-11653D01*
X33320Y-11577D01*
X33280Y-11496D01*
X33235Y-11443D01*
X33197Y-11384D01*
X33132Y-11322D01*
X33074Y-11254D01*
X33017Y-11214D01*
X32966Y-11166D01*
X32887Y-11123D01*
X32814Y-11071D01*
X32748Y-11046D01*
X32687Y-11012D01*
X32600Y-10990D01*
X32516Y-10958D01*
X32447Y-10950D01*
X32379Y-10933D01*
X32219Y-10923D01*
X12700Y-10923D01*
X12582Y-10938D01*
X12463Y-10945D01*
X12425Y-10958D01*
X12384Y-10963D01*
X12274Y-11006D01*
X12161Y-11043D01*
X12126Y-11065D01*
X12089Y-11080D01*
X11993Y-11149D01*
X11892Y-11213D01*
X11864Y-11243D01*
X11831Y-11266D01*
X11756Y-11358D01*
X11674Y-11445D01*
X11654Y-11480D01*
X11629Y-11511D01*
X11578Y-11619D01*
X11520Y-11723D01*
X11510Y-11763D01*
X11493Y-11799D01*
X11471Y-11916D01*
X11441Y-12031D01*
X11437Y-12091D01*
X11433Y-12111D01*
X11435Y-12132D01*
X11431Y-12192D01*
X11431Y-514858D01*
X11446Y-514976D01*
X11453Y-515095D01*
X11466Y-515133D01*
X11471Y-515174D01*
X11514Y-515284D01*
X11551Y-515397D01*
X11573Y-515432D01*
X11588Y-515469D01*
X11658Y-515565D01*
X11721Y-515666D01*
X11751Y-515694D01*
X11774Y-515727D01*
X11866Y-515803D01*
X11953Y-515884D01*
X11988Y-515904D01*
X12019Y-515929D01*
X12127Y-515980D01*
X12231Y-516038D01*
X12271Y-516048D01*
X12307Y-516065D01*
X12424Y-516087D01*
X12539Y-516117D01*
X12600Y-516121D01*
X12620Y-516125D01*
X12640Y-516123D01*
X12700Y-516127D01*
X32219Y-516127D01*
X32288Y-516119D01*
G37*
%LPC*%
G36*
X234145Y-493523D02*
X234145Y-493523D01*
X224027Y-483405D01*
X224027Y-469095D01*
X234145Y-458977D01*
X237236Y-458977D01*
X237354Y-458962D01*
X237473Y-458955D01*
X237511Y-458942D01*
X237552Y-458937D01*
X237662Y-458894D01*
X237775Y-458857D01*
X237810Y-458835D01*
X237847Y-458820D01*
X237943Y-458751D01*
X238044Y-458687D01*
X238072Y-458657D01*
X238105Y-458634D01*
X238181Y-458542D01*
X238262Y-458455D01*
X238282Y-458420D01*
X238307Y-458389D01*
X238358Y-458281D01*
X238416Y-458177D01*
X238426Y-458137D01*
X238443Y-458101D01*
X238465Y-457984D01*
X238495Y-457869D01*
X238499Y-457809D01*
X238503Y-457789D01*
X238501Y-457768D01*
X238505Y-457708D01*
X238505Y-449692D01*
X238736Y-449462D01*
X238821Y-449352D01*
X238910Y-449245D01*
X238919Y-449226D01*
X238931Y-449210D01*
X238987Y-449082D01*
X239046Y-448957D01*
X239049Y-448937D01*
X239057Y-448918D01*
X239079Y-448780D01*
X239105Y-448644D01*
X239104Y-448624D01*
X239107Y-448604D01*
X239094Y-448465D01*
X239086Y-448327D01*
X239079Y-448308D01*
X239078Y-448288D01*
X239030Y-448157D01*
X238988Y-448025D01*
X238977Y-448007D01*
X238970Y-447988D01*
X238892Y-447874D01*
X238817Y-447756D01*
X238803Y-447742D01*
X238791Y-447725D01*
X238687Y-447633D01*
X238586Y-447538D01*
X238568Y-447528D01*
X238553Y-447515D01*
X238429Y-447452D01*
X238307Y-447384D01*
X238288Y-447379D01*
X238270Y-447370D01*
X238134Y-447340D01*
X237999Y-447305D01*
X237971Y-447303D01*
X237959Y-447300D01*
X237939Y-447301D01*
X237839Y-447295D01*
X208392Y-447295D01*
X151614Y-390516D01*
X151536Y-390456D01*
X151464Y-390388D01*
X151411Y-390359D01*
X151363Y-390322D01*
X151272Y-390282D01*
X151185Y-390234D01*
X151127Y-390219D01*
X151071Y-390195D01*
X150973Y-390180D01*
X150877Y-390155D01*
X150777Y-390149D01*
X150757Y-390145D01*
X150745Y-390147D01*
X150717Y-390145D01*
X62342Y-390145D01*
X60334Y-388136D01*
X35305Y-363108D01*
X35305Y-208392D01*
X37314Y-206384D01*
X45950Y-197748D01*
X46023Y-197653D01*
X46102Y-197564D01*
X46120Y-197528D01*
X46145Y-197496D01*
X46192Y-197387D01*
X46247Y-197281D01*
X46255Y-197242D01*
X46271Y-197204D01*
X46290Y-197087D01*
X46316Y-196971D01*
X46315Y-196930D01*
X46321Y-196890D01*
X46310Y-196772D01*
X46307Y-196653D01*
X46295Y-196614D01*
X46291Y-196574D01*
X46251Y-196461D01*
X46218Y-196347D01*
X46198Y-196313D01*
X46184Y-196274D01*
X46117Y-196176D01*
X46057Y-196073D01*
X46017Y-196028D01*
X46005Y-196011D01*
X45990Y-195998D01*
X45950Y-195953D01*
X35305Y-185308D01*
X35305Y-132192D01*
X43292Y-124205D01*
X134508Y-124205D01*
X148845Y-138542D01*
X148845Y-214217D01*
X148857Y-214315D01*
X148860Y-214414D01*
X148877Y-214472D01*
X148885Y-214532D01*
X148921Y-214624D01*
X148949Y-214719D01*
X148979Y-214772D01*
X149002Y-214828D01*
X149060Y-214908D01*
X149110Y-214993D01*
X149176Y-215069D01*
X149188Y-215085D01*
X149198Y-215093D01*
X149216Y-215114D01*
X172236Y-238134D01*
X172314Y-238194D01*
X172386Y-238262D01*
X172439Y-238291D01*
X172487Y-238328D01*
X172578Y-238368D01*
X172665Y-238416D01*
X172723Y-238431D01*
X172779Y-238455D01*
X172877Y-238470D01*
X172973Y-238495D01*
X173073Y-238501D01*
X173093Y-238505D01*
X173105Y-238503D01*
X173133Y-238505D01*
X303117Y-238505D01*
X303215Y-238493D01*
X303314Y-238490D01*
X303372Y-238473D01*
X303432Y-238465D01*
X303524Y-238429D01*
X303619Y-238401D01*
X303672Y-238371D01*
X303728Y-238348D01*
X303808Y-238290D01*
X303893Y-238240D01*
X303969Y-238174D01*
X303985Y-238162D01*
X303993Y-238152D01*
X304014Y-238134D01*
X314334Y-227814D01*
X314394Y-227736D01*
X314462Y-227664D01*
X314491Y-227611D01*
X314528Y-227563D01*
X314568Y-227472D01*
X314616Y-227385D01*
X314631Y-227327D01*
X314655Y-227271D01*
X314670Y-227173D01*
X314695Y-227077D01*
X314701Y-226977D01*
X314705Y-226957D01*
X314703Y-226945D01*
X314705Y-226917D01*
X314705Y-223933D01*
X314693Y-223835D01*
X314690Y-223736D01*
X314673Y-223678D01*
X314665Y-223618D01*
X314629Y-223526D01*
X314601Y-223431D01*
X314571Y-223378D01*
X314548Y-223322D01*
X314490Y-223242D01*
X314440Y-223157D01*
X314374Y-223081D01*
X314362Y-223065D01*
X314352Y-223057D01*
X314334Y-223036D01*
X310364Y-219066D01*
X310286Y-219006D01*
X310214Y-218938D01*
X310161Y-218909D01*
X310113Y-218872D01*
X310022Y-218832D01*
X309935Y-218784D01*
X309877Y-218769D01*
X309821Y-218745D01*
X309723Y-218730D01*
X309627Y-218705D01*
X309527Y-218699D01*
X309507Y-218695D01*
X309495Y-218697D01*
X309467Y-218695D01*
X307677Y-218695D01*
X307579Y-218707D01*
X307480Y-218710D01*
X307421Y-218727D01*
X307361Y-218735D01*
X307269Y-218771D01*
X307174Y-218799D01*
X307122Y-218829D01*
X307066Y-218852D01*
X306986Y-218910D01*
X306900Y-218960D01*
X306825Y-219026D01*
X306808Y-219038D01*
X306800Y-219048D01*
X306779Y-219066D01*
X301817Y-224029D01*
X295083Y-224029D01*
X290321Y-219267D01*
X290321Y-212533D01*
X295083Y-207771D01*
X301817Y-207771D01*
X306779Y-212734D01*
X306858Y-212794D01*
X306930Y-212862D01*
X306983Y-212891D01*
X307031Y-212928D01*
X307122Y-212968D01*
X307208Y-213016D01*
X307267Y-213031D01*
X307322Y-213055D01*
X307420Y-213070D01*
X307516Y-213095D01*
X307616Y-213101D01*
X307636Y-213105D01*
X307649Y-213103D01*
X307677Y-213105D01*
X312308Y-213105D01*
X312538Y-213336D01*
X312648Y-213421D01*
X312755Y-213510D01*
X312774Y-213519D01*
X312790Y-213531D01*
X312918Y-213587D01*
X313043Y-213646D01*
X313063Y-213649D01*
X313082Y-213657D01*
X313220Y-213679D01*
X313356Y-213705D01*
X313376Y-213704D01*
X313396Y-213707D01*
X313535Y-213694D01*
X313673Y-213686D01*
X313692Y-213679D01*
X313712Y-213678D01*
X313843Y-213630D01*
X313975Y-213588D01*
X313993Y-213577D01*
X314012Y-213570D01*
X314126Y-213492D01*
X314244Y-213417D01*
X314258Y-213403D01*
X314275Y-213391D01*
X314367Y-213287D01*
X314462Y-213186D01*
X314472Y-213168D01*
X314485Y-213153D01*
X314548Y-213029D01*
X314616Y-212907D01*
X314621Y-212888D01*
X314630Y-212870D01*
X314660Y-212734D01*
X314695Y-212599D01*
X314697Y-212571D01*
X314700Y-212559D01*
X314699Y-212539D01*
X314705Y-212439D01*
X314705Y-181864D01*
X314690Y-181746D01*
X314683Y-181627D01*
X314670Y-181589D01*
X314665Y-181548D01*
X314622Y-181438D01*
X314585Y-181325D01*
X314563Y-181290D01*
X314548Y-181253D01*
X314479Y-181157D01*
X314415Y-181056D01*
X314385Y-181028D01*
X314362Y-180995D01*
X314270Y-180919D01*
X314183Y-180838D01*
X314148Y-180818D01*
X314117Y-180793D01*
X314009Y-180742D01*
X313905Y-180684D01*
X313865Y-180674D01*
X313829Y-180657D01*
X313712Y-180635D01*
X313597Y-180605D01*
X313537Y-180601D01*
X313517Y-180597D01*
X313496Y-180599D01*
X313436Y-180595D01*
X307677Y-180595D01*
X307579Y-180607D01*
X307480Y-180610D01*
X307421Y-180627D01*
X307361Y-180635D01*
X307269Y-180671D01*
X307174Y-180699D01*
X307122Y-180729D01*
X307066Y-180752D01*
X306986Y-180810D01*
X306900Y-180860D01*
X306825Y-180926D01*
X306808Y-180938D01*
X306800Y-180948D01*
X306779Y-180966D01*
X301817Y-185929D01*
X295083Y-185929D01*
X290321Y-181167D01*
X290321Y-174433D01*
X295083Y-169671D01*
X301817Y-169671D01*
X306779Y-174634D01*
X306858Y-174694D01*
X306930Y-174762D01*
X306983Y-174791D01*
X307031Y-174828D01*
X307122Y-174868D01*
X307208Y-174916D01*
X307267Y-174931D01*
X307322Y-174955D01*
X307420Y-174970D01*
X307516Y-174995D01*
X307616Y-175001D01*
X307636Y-175005D01*
X307649Y-175003D01*
X307677Y-175005D01*
X313436Y-175005D01*
X313554Y-174990D01*
X313673Y-174983D01*
X313711Y-174970D01*
X313752Y-174965D01*
X313862Y-174922D01*
X313975Y-174885D01*
X314010Y-174863D01*
X314047Y-174848D01*
X314143Y-174779D01*
X314244Y-174715D01*
X314272Y-174685D01*
X314305Y-174662D01*
X314381Y-174570D01*
X314462Y-174483D01*
X314482Y-174448D01*
X314507Y-174417D01*
X314558Y-174309D01*
X314616Y-174205D01*
X314626Y-174165D01*
X314643Y-174129D01*
X314665Y-174012D01*
X314695Y-173897D01*
X314699Y-173837D01*
X314703Y-173817D01*
X314701Y-173796D01*
X314705Y-173736D01*
X314705Y-154083D01*
X314693Y-153985D01*
X314690Y-153886D01*
X314673Y-153828D01*
X314665Y-153768D01*
X314629Y-153676D01*
X314601Y-153581D01*
X314571Y-153528D01*
X314548Y-153472D01*
X314490Y-153392D01*
X314440Y-153307D01*
X314374Y-153231D01*
X314362Y-153215D01*
X314352Y-153207D01*
X314334Y-153186D01*
X302998Y-141850D01*
X302920Y-141790D01*
X302848Y-141722D01*
X302795Y-141693D01*
X302747Y-141656D01*
X302656Y-141616D01*
X302569Y-141568D01*
X302511Y-141553D01*
X302455Y-141529D01*
X302357Y-141514D01*
X302261Y-141489D01*
X302161Y-141483D01*
X302141Y-141479D01*
X302129Y-141481D01*
X302101Y-141479D01*
X295083Y-141479D01*
X290321Y-136717D01*
X290321Y-129983D01*
X295083Y-125221D01*
X301817Y-125221D01*
X306579Y-129983D01*
X306579Y-137001D01*
X306591Y-137099D01*
X306594Y-137198D01*
X306611Y-137256D01*
X306619Y-137316D01*
X306655Y-137408D01*
X306683Y-137503D01*
X306713Y-137556D01*
X306736Y-137612D01*
X306794Y-137692D01*
X306844Y-137777D01*
X306910Y-137853D01*
X306922Y-137869D01*
X306932Y-137877D01*
X306950Y-137898D01*
X319397Y-150344D01*
X319506Y-150429D01*
X319613Y-150518D01*
X319632Y-150527D01*
X319648Y-150539D01*
X319776Y-150595D01*
X319901Y-150654D01*
X319921Y-150657D01*
X319940Y-150665D01*
X320078Y-150687D01*
X320214Y-150713D01*
X320234Y-150712D01*
X320254Y-150715D01*
X320393Y-150702D01*
X320531Y-150694D01*
X320550Y-150687D01*
X320570Y-150686D01*
X320702Y-150638D01*
X320833Y-150596D01*
X320851Y-150585D01*
X320870Y-150578D01*
X320985Y-150500D01*
X321102Y-150425D01*
X321116Y-150411D01*
X321133Y-150399D01*
X321225Y-150295D01*
X321320Y-150194D01*
X321330Y-150176D01*
X321343Y-150161D01*
X321407Y-150037D01*
X321474Y-149915D01*
X321479Y-149896D01*
X321488Y-149878D01*
X321518Y-149742D01*
X321553Y-149607D01*
X321555Y-149579D01*
X321558Y-149567D01*
X321557Y-149547D01*
X321563Y-149447D01*
X321563Y-113353D01*
X323274Y-111642D01*
X323275Y-111642D01*
X327542Y-107375D01*
X329253Y-105663D01*
X373177Y-105663D01*
X373275Y-105651D01*
X373374Y-105648D01*
X373433Y-105631D01*
X373493Y-105623D01*
X373585Y-105587D01*
X373680Y-105559D01*
X373732Y-105529D01*
X373788Y-105506D01*
X373868Y-105448D01*
X373954Y-105398D01*
X374029Y-105332D01*
X374046Y-105320D01*
X374053Y-105310D01*
X374075Y-105292D01*
X378342Y-101025D01*
X378402Y-100946D01*
X378470Y-100874D01*
X378499Y-100821D01*
X378536Y-100773D01*
X378576Y-100682D01*
X378624Y-100596D01*
X378639Y-100537D01*
X378663Y-100481D01*
X378678Y-100383D01*
X378703Y-100288D01*
X378709Y-100188D01*
X378713Y-100167D01*
X378711Y-100155D01*
X378713Y-100127D01*
X378713Y-87102D01*
X378710Y-87073D01*
X378712Y-87044D01*
X378695Y-86945D01*
X378691Y-86884D01*
X378682Y-86857D01*
X378673Y-86787D01*
X378663Y-86760D01*
X378658Y-86730D01*
X378604Y-86612D01*
X378597Y-86594D01*
X378593Y-86581D01*
X378591Y-86578D01*
X378556Y-86491D01*
X378539Y-86467D01*
X378527Y-86440D01*
X378446Y-86339D01*
X378370Y-86234D01*
X378347Y-86215D01*
X378328Y-86192D01*
X378225Y-86114D01*
X378125Y-86031D01*
X378098Y-86019D01*
X378074Y-86001D01*
X377930Y-85930D01*
X375865Y-85075D01*
X373315Y-82525D01*
X371935Y-79193D01*
X371935Y-60507D01*
X373315Y-57175D01*
X375865Y-54625D01*
X379197Y-53245D01*
X382803Y-53245D01*
X386135Y-54625D01*
X388685Y-57175D01*
X390065Y-60507D01*
X390065Y-79193D01*
X388685Y-82525D01*
X386135Y-85075D01*
X384070Y-85930D01*
X384045Y-85944D01*
X384017Y-85954D01*
X383907Y-86023D01*
X383794Y-86087D01*
X383773Y-86108D01*
X383748Y-86124D01*
X383659Y-86218D01*
X383566Y-86309D01*
X383550Y-86334D01*
X383530Y-86355D01*
X383467Y-86469D01*
X383399Y-86580D01*
X383391Y-86608D01*
X383376Y-86634D01*
X383356Y-86714D01*
X383349Y-86728D01*
X383341Y-86768D01*
X383306Y-86884D01*
X383304Y-86913D01*
X383297Y-86942D01*
X383291Y-87029D01*
X383289Y-87040D01*
X383290Y-87051D01*
X383287Y-87102D01*
X383287Y-102547D01*
X382337Y-103497D01*
X382252Y-103606D01*
X382164Y-103713D01*
X382155Y-103732D01*
X382142Y-103748D01*
X382087Y-103875D01*
X382028Y-104001D01*
X382024Y-104021D01*
X382016Y-104040D01*
X381994Y-104178D01*
X381968Y-104314D01*
X381969Y-104334D01*
X381966Y-104354D01*
X381979Y-104493D01*
X381988Y-104631D01*
X381994Y-104650D01*
X381996Y-104670D01*
X382043Y-104802D01*
X382086Y-104933D01*
X382097Y-104951D01*
X382104Y-104970D01*
X382182Y-105085D01*
X382256Y-105202D01*
X382271Y-105216D01*
X382282Y-105233D01*
X382387Y-105325D01*
X382488Y-105420D01*
X382505Y-105430D01*
X382521Y-105443D01*
X382645Y-105507D01*
X382766Y-105574D01*
X382786Y-105579D01*
X382804Y-105588D01*
X382940Y-105618D01*
X383074Y-105653D01*
X383102Y-105655D01*
X383114Y-105658D01*
X383135Y-105657D01*
X383235Y-105663D01*
X468427Y-105663D01*
X468525Y-105651D01*
X468624Y-105648D01*
X468682Y-105631D01*
X468743Y-105623D01*
X468835Y-105587D01*
X468930Y-105559D01*
X468982Y-105529D01*
X469038Y-105506D01*
X469118Y-105448D01*
X469204Y-105398D01*
X469279Y-105332D01*
X469296Y-105320D01*
X469303Y-105310D01*
X469325Y-105292D01*
X492817Y-81799D01*
X492835Y-81776D01*
X492857Y-81757D01*
X492932Y-81651D01*
X493012Y-81548D01*
X493023Y-81521D01*
X493040Y-81497D01*
X493086Y-81376D01*
X493138Y-81256D01*
X493143Y-81227D01*
X493153Y-81199D01*
X493167Y-81070D01*
X493188Y-80942D01*
X493185Y-80913D01*
X493188Y-80883D01*
X493170Y-80755D01*
X493158Y-80625D01*
X493148Y-80598D01*
X493144Y-80568D01*
X493092Y-80416D01*
X492585Y-79193D01*
X492585Y-60507D01*
X493965Y-57175D01*
X496515Y-54625D01*
X499847Y-53245D01*
X503453Y-53245D01*
X506785Y-54625D01*
X509335Y-57175D01*
X510715Y-60507D01*
X510715Y-79193D01*
X509335Y-82525D01*
X506785Y-85075D01*
X503453Y-86455D01*
X499847Y-86455D01*
X496941Y-85251D01*
X496913Y-85243D01*
X496886Y-85230D01*
X496759Y-85201D01*
X496634Y-85167D01*
X496605Y-85167D01*
X496576Y-85160D01*
X496446Y-85164D01*
X496316Y-85162D01*
X496288Y-85169D01*
X496258Y-85170D01*
X496133Y-85206D01*
X496007Y-85236D01*
X495981Y-85250D01*
X495953Y-85258D01*
X495841Y-85324D01*
X495726Y-85385D01*
X495704Y-85405D01*
X495679Y-85420D01*
X495558Y-85526D01*
X490287Y-90797D01*
X490202Y-90906D01*
X490114Y-91013D01*
X490105Y-91032D01*
X490092Y-91048D01*
X490037Y-91176D01*
X489978Y-91301D01*
X489974Y-91321D01*
X489966Y-91340D01*
X489944Y-91478D01*
X489918Y-91614D01*
X489919Y-91634D01*
X489916Y-91654D01*
X489929Y-91793D01*
X489938Y-91931D01*
X489944Y-91950D01*
X489946Y-91970D01*
X489993Y-92102D01*
X490036Y-92233D01*
X490047Y-92251D01*
X490054Y-92270D01*
X490132Y-92385D01*
X490206Y-92502D01*
X490221Y-92516D01*
X490232Y-92533D01*
X490336Y-92625D01*
X490438Y-92720D01*
X490456Y-92730D01*
X490471Y-92743D01*
X490595Y-92807D01*
X490716Y-92874D01*
X490736Y-92879D01*
X490754Y-92888D01*
X490890Y-92918D01*
X491024Y-92953D01*
X491052Y-92955D01*
X491064Y-92958D01*
X491085Y-92957D01*
X491185Y-92963D01*
X614477Y-92963D01*
X614575Y-92951D01*
X614674Y-92948D01*
X614732Y-92931D01*
X614793Y-92923D01*
X614885Y-92887D01*
X614980Y-92859D01*
X615032Y-92829D01*
X615088Y-92806D01*
X615168Y-92748D01*
X615254Y-92698D01*
X615329Y-92632D01*
X615346Y-92620D01*
X615353Y-92610D01*
X615375Y-92592D01*
X619642Y-88325D01*
X619702Y-88246D01*
X619770Y-88174D01*
X619799Y-88121D01*
X619836Y-88073D01*
X619876Y-87982D01*
X619924Y-87896D01*
X619939Y-87837D01*
X619963Y-87781D01*
X619978Y-87684D01*
X620003Y-87588D01*
X620009Y-87488D01*
X620013Y-87467D01*
X620011Y-87455D01*
X620013Y-87427D01*
X620013Y-87102D01*
X620010Y-87073D01*
X620012Y-87044D01*
X619995Y-86945D01*
X619991Y-86884D01*
X619982Y-86857D01*
X619973Y-86787D01*
X619963Y-86760D01*
X619958Y-86730D01*
X619904Y-86612D01*
X619897Y-86594D01*
X619893Y-86581D01*
X619891Y-86578D01*
X619856Y-86491D01*
X619839Y-86467D01*
X619827Y-86440D01*
X619746Y-86339D01*
X619670Y-86234D01*
X619647Y-86215D01*
X619628Y-86192D01*
X619525Y-86114D01*
X619425Y-86031D01*
X619398Y-86019D01*
X619374Y-86001D01*
X619230Y-85930D01*
X617165Y-85075D01*
X614615Y-82525D01*
X613235Y-79193D01*
X613235Y-60507D01*
X614615Y-57175D01*
X617165Y-54625D01*
X620497Y-53245D01*
X624103Y-53245D01*
X627435Y-54625D01*
X629985Y-57175D01*
X631365Y-60507D01*
X631365Y-79193D01*
X629985Y-82525D01*
X627435Y-85075D01*
X625370Y-85930D01*
X625345Y-85944D01*
X625317Y-85954D01*
X625207Y-86023D01*
X625094Y-86087D01*
X625073Y-86108D01*
X625048Y-86124D01*
X624959Y-86218D01*
X624866Y-86309D01*
X624850Y-86334D01*
X624830Y-86355D01*
X624767Y-86469D01*
X624699Y-86580D01*
X624691Y-86608D01*
X624676Y-86634D01*
X624656Y-86714D01*
X624649Y-86728D01*
X624641Y-86768D01*
X624606Y-86884D01*
X624604Y-86913D01*
X624597Y-86942D01*
X624591Y-87029D01*
X624589Y-87040D01*
X624590Y-87051D01*
X624587Y-87102D01*
X624587Y-89847D01*
X616897Y-97537D01*
X488384Y-97537D01*
X488285Y-97549D01*
X488186Y-97552D01*
X488128Y-97569D01*
X488068Y-97577D01*
X487976Y-97613D01*
X487881Y-97641D01*
X487829Y-97671D01*
X487772Y-97694D01*
X487692Y-97752D01*
X487607Y-97802D01*
X487531Y-97868D01*
X487515Y-97880D01*
X487507Y-97890D01*
X487486Y-97908D01*
X469062Y-116333D01*
X466032Y-116333D01*
X465963Y-116341D01*
X465893Y-116340D01*
X465806Y-116361D01*
X465717Y-116373D01*
X465652Y-116398D01*
X465584Y-116415D01*
X465505Y-116457D01*
X465421Y-116490D01*
X465365Y-116531D01*
X465303Y-116563D01*
X465237Y-116624D01*
X465164Y-116676D01*
X465119Y-116730D01*
X465068Y-116777D01*
X465018Y-116852D01*
X464961Y-116921D01*
X464931Y-116985D01*
X464893Y-117043D01*
X464864Y-117128D01*
X464826Y-117209D01*
X464812Y-117278D01*
X464790Y-117344D01*
X464783Y-117433D01*
X464766Y-117521D01*
X464770Y-117591D01*
X464765Y-117661D01*
X464780Y-117749D01*
X464786Y-117839D01*
X464807Y-117905D01*
X464819Y-117974D01*
X464856Y-118056D01*
X464884Y-118141D01*
X464921Y-118200D01*
X464950Y-118264D01*
X465006Y-118334D01*
X465054Y-118410D01*
X465105Y-118458D01*
X465148Y-118512D01*
X465220Y-118567D01*
X465285Y-118628D01*
X465346Y-118662D01*
X465402Y-118704D01*
X465547Y-118775D01*
X468155Y-119855D01*
X470441Y-122141D01*
X471679Y-125129D01*
X471679Y-141571D01*
X470441Y-144559D01*
X468155Y-146845D01*
X465167Y-148083D01*
X461933Y-148083D01*
X458945Y-146845D01*
X456659Y-144559D01*
X455421Y-141571D01*
X455421Y-125129D01*
X456659Y-122141D01*
X458945Y-119855D01*
X461553Y-118775D01*
X461614Y-118740D01*
X461679Y-118714D01*
X461751Y-118662D01*
X461830Y-118617D01*
X461880Y-118569D01*
X461936Y-118528D01*
X461993Y-118458D01*
X462058Y-118396D01*
X462094Y-118336D01*
X462139Y-118283D01*
X462177Y-118201D01*
X462224Y-118125D01*
X462245Y-118058D01*
X462274Y-117995D01*
X462291Y-117907D01*
X462318Y-117821D01*
X462321Y-117751D01*
X462334Y-117682D01*
X462329Y-117593D01*
X462333Y-117503D01*
X462319Y-117435D01*
X462314Y-117365D01*
X462287Y-117280D01*
X462269Y-117192D01*
X462238Y-117129D01*
X462216Y-117063D01*
X462168Y-116987D01*
X462129Y-116906D01*
X462084Y-116853D01*
X462046Y-116794D01*
X461981Y-116732D01*
X461923Y-116664D01*
X461866Y-116624D01*
X461815Y-116576D01*
X461736Y-116533D01*
X461663Y-116481D01*
X461597Y-116456D01*
X461536Y-116422D01*
X461449Y-116400D01*
X461365Y-116368D01*
X461296Y-116360D01*
X461228Y-116343D01*
X461068Y-116333D01*
X440632Y-116333D01*
X440563Y-116341D01*
X440493Y-116340D01*
X440406Y-116361D01*
X440317Y-116373D01*
X440252Y-116398D01*
X440184Y-116415D01*
X440105Y-116457D01*
X440021Y-116490D01*
X439965Y-116531D01*
X439903Y-116563D01*
X439837Y-116624D01*
X439764Y-116676D01*
X439719Y-116730D01*
X439668Y-116777D01*
X439618Y-116852D01*
X439561Y-116921D01*
X439531Y-116985D01*
X439493Y-117043D01*
X439464Y-117128D01*
X439426Y-117209D01*
X439412Y-117278D01*
X439390Y-117344D01*
X439383Y-117433D01*
X439366Y-117521D01*
X439370Y-117591D01*
X439365Y-117661D01*
X439380Y-117749D01*
X439386Y-117839D01*
X439407Y-117905D01*
X439419Y-117974D01*
X439456Y-118056D01*
X439484Y-118141D01*
X439521Y-118200D01*
X439550Y-118264D01*
X439606Y-118334D01*
X439654Y-118410D01*
X439705Y-118458D01*
X439748Y-118512D01*
X439820Y-118567D01*
X439885Y-118628D01*
X439946Y-118662D01*
X440002Y-118704D01*
X440147Y-118775D01*
X442755Y-119855D01*
X445041Y-122141D01*
X446279Y-125129D01*
X446279Y-141571D01*
X445041Y-144559D01*
X442755Y-146845D01*
X439767Y-148083D01*
X436533Y-148083D01*
X433545Y-146845D01*
X431259Y-144559D01*
X430021Y-141571D01*
X430021Y-125129D01*
X431259Y-122141D01*
X433545Y-119855D01*
X436153Y-118775D01*
X436214Y-118740D01*
X436279Y-118714D01*
X436351Y-118662D01*
X436430Y-118617D01*
X436480Y-118569D01*
X436536Y-118528D01*
X436593Y-118458D01*
X436658Y-118396D01*
X436694Y-118336D01*
X436739Y-118283D01*
X436777Y-118201D01*
X436824Y-118125D01*
X436845Y-118058D01*
X436874Y-117995D01*
X436891Y-117907D01*
X436918Y-117821D01*
X436921Y-117751D01*
X436934Y-117682D01*
X436929Y-117593D01*
X436933Y-117503D01*
X436919Y-117435D01*
X436914Y-117365D01*
X436887Y-117280D01*
X436869Y-117192D01*
X436838Y-117129D01*
X436816Y-117063D01*
X436768Y-116987D01*
X436729Y-116906D01*
X436684Y-116853D01*
X436646Y-116794D01*
X436581Y-116732D01*
X436523Y-116664D01*
X436466Y-116624D01*
X436415Y-116576D01*
X436336Y-116533D01*
X436263Y-116481D01*
X436197Y-116456D01*
X436136Y-116422D01*
X436049Y-116400D01*
X435965Y-116368D01*
X435896Y-116360D01*
X435828Y-116343D01*
X435668Y-116333D01*
X415232Y-116333D01*
X415163Y-116341D01*
X415093Y-116340D01*
X415006Y-116361D01*
X414917Y-116373D01*
X414852Y-116398D01*
X414784Y-116415D01*
X414705Y-116457D01*
X414621Y-116490D01*
X414565Y-116531D01*
X414503Y-116563D01*
X414437Y-116624D01*
X414364Y-116676D01*
X414319Y-116730D01*
X414268Y-116777D01*
X414218Y-116852D01*
X414161Y-116921D01*
X414131Y-116985D01*
X414093Y-117043D01*
X414064Y-117128D01*
X414026Y-117209D01*
X414012Y-117278D01*
X413990Y-117344D01*
X413983Y-117433D01*
X413966Y-117521D01*
X413970Y-117591D01*
X413965Y-117661D01*
X413980Y-117749D01*
X413986Y-117839D01*
X414007Y-117905D01*
X414019Y-117974D01*
X414056Y-118056D01*
X414084Y-118141D01*
X414121Y-118200D01*
X414150Y-118264D01*
X414206Y-118334D01*
X414254Y-118410D01*
X414305Y-118458D01*
X414348Y-118512D01*
X414420Y-118567D01*
X414485Y-118628D01*
X414546Y-118662D01*
X414602Y-118704D01*
X414747Y-118775D01*
X417355Y-119855D01*
X419641Y-122141D01*
X420879Y-125129D01*
X420879Y-141571D01*
X419641Y-144559D01*
X417355Y-146845D01*
X414367Y-148083D01*
X411133Y-148083D01*
X408145Y-146845D01*
X405859Y-144559D01*
X404621Y-141571D01*
X404621Y-125129D01*
X405859Y-122141D01*
X408145Y-119855D01*
X410753Y-118775D01*
X410814Y-118740D01*
X410879Y-118714D01*
X410951Y-118662D01*
X411030Y-118617D01*
X411080Y-118569D01*
X411136Y-118528D01*
X411193Y-118458D01*
X411258Y-118396D01*
X411294Y-118336D01*
X411339Y-118283D01*
X411377Y-118201D01*
X411424Y-118125D01*
X411445Y-118058D01*
X411474Y-117995D01*
X411491Y-117907D01*
X411518Y-117821D01*
X411521Y-117751D01*
X411534Y-117682D01*
X411529Y-117593D01*
X411533Y-117503D01*
X411519Y-117435D01*
X411514Y-117365D01*
X411487Y-117280D01*
X411469Y-117192D01*
X411438Y-117129D01*
X411416Y-117063D01*
X411368Y-116987D01*
X411329Y-116906D01*
X411284Y-116853D01*
X411246Y-116794D01*
X411181Y-116732D01*
X411123Y-116664D01*
X411066Y-116624D01*
X411015Y-116576D01*
X410936Y-116533D01*
X410863Y-116481D01*
X410797Y-116456D01*
X410736Y-116422D01*
X410649Y-116400D01*
X410565Y-116368D01*
X410496Y-116360D01*
X410428Y-116343D01*
X410268Y-116333D01*
X389832Y-116333D01*
X389763Y-116341D01*
X389693Y-116340D01*
X389606Y-116361D01*
X389517Y-116373D01*
X389452Y-116398D01*
X389384Y-116415D01*
X389305Y-116457D01*
X389221Y-116490D01*
X389165Y-116531D01*
X389103Y-116563D01*
X389037Y-116624D01*
X388964Y-116676D01*
X388919Y-116730D01*
X388868Y-116777D01*
X388818Y-116852D01*
X388761Y-116921D01*
X388731Y-116985D01*
X388693Y-117043D01*
X388664Y-117128D01*
X388626Y-117209D01*
X388612Y-117278D01*
X388590Y-117344D01*
X388583Y-117433D01*
X388566Y-117521D01*
X388570Y-117591D01*
X388565Y-117661D01*
X388580Y-117749D01*
X388586Y-117839D01*
X388607Y-117905D01*
X388619Y-117974D01*
X388656Y-118056D01*
X388684Y-118141D01*
X388721Y-118200D01*
X388750Y-118264D01*
X388806Y-118334D01*
X388854Y-118410D01*
X388905Y-118458D01*
X388948Y-118512D01*
X389020Y-118567D01*
X389085Y-118628D01*
X389146Y-118662D01*
X389202Y-118704D01*
X389347Y-118775D01*
X391955Y-119855D01*
X394241Y-122141D01*
X395479Y-125129D01*
X395479Y-141571D01*
X394241Y-144559D01*
X391955Y-146845D01*
X388967Y-148083D01*
X385733Y-148083D01*
X382745Y-146845D01*
X380459Y-144559D01*
X379221Y-141571D01*
X379221Y-125129D01*
X380459Y-122141D01*
X382745Y-119855D01*
X385353Y-118775D01*
X385414Y-118740D01*
X385479Y-118714D01*
X385551Y-118662D01*
X385630Y-118617D01*
X385680Y-118569D01*
X385736Y-118528D01*
X385793Y-118458D01*
X385858Y-118396D01*
X385894Y-118336D01*
X385939Y-118283D01*
X385977Y-118201D01*
X386024Y-118125D01*
X386045Y-118058D01*
X386074Y-117995D01*
X386091Y-117907D01*
X386118Y-117821D01*
X386121Y-117751D01*
X386134Y-117682D01*
X386129Y-117593D01*
X386133Y-117503D01*
X386119Y-117435D01*
X386114Y-117365D01*
X386087Y-117280D01*
X386069Y-117192D01*
X386038Y-117129D01*
X386016Y-117063D01*
X385968Y-116987D01*
X385929Y-116906D01*
X385884Y-116853D01*
X385846Y-116794D01*
X385781Y-116732D01*
X385723Y-116664D01*
X385666Y-116624D01*
X385615Y-116576D01*
X385536Y-116533D01*
X385463Y-116481D01*
X385397Y-116456D01*
X385336Y-116422D01*
X385249Y-116400D01*
X385165Y-116368D01*
X385096Y-116360D01*
X385028Y-116343D01*
X384868Y-116333D01*
X366943Y-116333D01*
X366923Y-116335D01*
X366903Y-116333D01*
X366766Y-116355D01*
X366627Y-116373D01*
X366608Y-116380D01*
X366589Y-116383D01*
X366461Y-116438D01*
X366331Y-116490D01*
X366315Y-116501D01*
X366297Y-116509D01*
X366187Y-116595D01*
X366074Y-116676D01*
X366061Y-116692D01*
X366045Y-116704D01*
X365960Y-116814D01*
X365871Y-116921D01*
X365863Y-116939D01*
X365850Y-116955D01*
X365795Y-117083D01*
X365736Y-117209D01*
X365732Y-117229D01*
X365724Y-117247D01*
X365702Y-117385D01*
X365676Y-117521D01*
X365677Y-117541D01*
X365674Y-117561D01*
X365687Y-117700D01*
X365696Y-117839D01*
X365702Y-117858D01*
X365704Y-117878D01*
X365751Y-118009D01*
X365794Y-118141D01*
X365804Y-118158D01*
X365811Y-118177D01*
X365889Y-118292D01*
X365964Y-118410D01*
X365978Y-118424D01*
X365990Y-118440D01*
X366094Y-118533D01*
X366195Y-118628D01*
X366213Y-118638D01*
X366228Y-118651D01*
X366366Y-118733D01*
X366743Y-118925D01*
X367907Y-119771D01*
X368925Y-120789D01*
X369771Y-121953D01*
X370425Y-123236D01*
X370870Y-124605D01*
X371095Y-126026D01*
X371095Y-131319D01*
X362712Y-131319D01*
X362594Y-131334D01*
X362475Y-131341D01*
X362437Y-131353D01*
X362397Y-131359D01*
X362286Y-131402D01*
X362173Y-131439D01*
X362139Y-131461D01*
X362101Y-131476D01*
X362005Y-131545D01*
X361953Y-131578D01*
X361935Y-131562D01*
X361900Y-131542D01*
X361868Y-131517D01*
X361761Y-131466D01*
X361656Y-131408D01*
X361617Y-131398D01*
X361581Y-131381D01*
X361464Y-131359D01*
X361348Y-131329D01*
X361288Y-131325D01*
X361268Y-131321D01*
X361248Y-131323D01*
X361188Y-131319D01*
X352805Y-131319D01*
X352805Y-126026D01*
X353030Y-124605D01*
X353475Y-123236D01*
X354129Y-121953D01*
X354975Y-120789D01*
X355993Y-119771D01*
X357157Y-118925D01*
X357534Y-118733D01*
X357550Y-118722D01*
X357569Y-118714D01*
X357681Y-118633D01*
X357797Y-118554D01*
X357810Y-118539D01*
X357826Y-118528D01*
X357915Y-118420D01*
X358007Y-118316D01*
X358016Y-118298D01*
X358029Y-118283D01*
X358088Y-118157D01*
X358152Y-118032D01*
X358156Y-118013D01*
X358164Y-117995D01*
X358190Y-117858D01*
X358221Y-117722D01*
X358220Y-117702D01*
X358224Y-117682D01*
X358216Y-117544D01*
X358211Y-117404D01*
X358206Y-117385D01*
X358204Y-117365D01*
X358162Y-117233D01*
X358123Y-117099D01*
X358112Y-117081D01*
X358106Y-117063D01*
X358032Y-116945D01*
X357961Y-116825D01*
X357947Y-116811D01*
X357936Y-116794D01*
X357835Y-116698D01*
X357736Y-116600D01*
X357719Y-116590D01*
X357705Y-116576D01*
X357583Y-116509D01*
X357463Y-116438D01*
X357444Y-116432D01*
X357426Y-116422D01*
X357291Y-116388D01*
X357157Y-116349D01*
X357137Y-116348D01*
X357118Y-116343D01*
X356957Y-116333D01*
X340106Y-116333D01*
X339988Y-116348D01*
X339869Y-116355D01*
X339831Y-116368D01*
X339790Y-116373D01*
X339680Y-116416D01*
X339567Y-116453D01*
X339532Y-116475D01*
X339495Y-116490D01*
X339399Y-116559D01*
X339298Y-116623D01*
X339270Y-116653D01*
X339237Y-116676D01*
X339161Y-116768D01*
X339080Y-116855D01*
X339060Y-116890D01*
X339035Y-116921D01*
X338984Y-117029D01*
X338926Y-117133D01*
X338916Y-117173D01*
X338899Y-117209D01*
X338877Y-117326D01*
X338847Y-117441D01*
X338843Y-117501D01*
X338839Y-117521D01*
X338841Y-117542D01*
X338837Y-117602D01*
X338837Y-356547D01*
X324797Y-370587D01*
X223723Y-370587D01*
X223625Y-370599D01*
X223526Y-370602D01*
X223467Y-370619D01*
X223407Y-370627D01*
X223315Y-370663D01*
X223220Y-370691D01*
X223168Y-370721D01*
X223112Y-370744D01*
X223032Y-370802D01*
X222946Y-370852D01*
X222871Y-370918D01*
X222854Y-370930D01*
X222847Y-370940D01*
X222825Y-370958D01*
X211462Y-382322D01*
X211389Y-382416D01*
X211311Y-382505D01*
X211292Y-382541D01*
X211267Y-382573D01*
X211220Y-382682D01*
X211166Y-382788D01*
X211157Y-382828D01*
X211141Y-382865D01*
X211122Y-382982D01*
X211096Y-383098D01*
X211098Y-383139D01*
X211091Y-383179D01*
X211102Y-383297D01*
X211106Y-383416D01*
X211117Y-383455D01*
X211121Y-383495D01*
X211161Y-383608D01*
X211194Y-383722D01*
X211215Y-383757D01*
X211229Y-383795D01*
X211295Y-383893D01*
X211329Y-383950D01*
X211329Y-390717D01*
X206567Y-395479D01*
X199833Y-395479D01*
X195051Y-390696D01*
X195049Y-390669D01*
X195036Y-390631D01*
X195031Y-390590D01*
X194988Y-390480D01*
X194951Y-390367D01*
X194929Y-390332D01*
X194914Y-390295D01*
X194845Y-390199D01*
X194781Y-390098D01*
X194751Y-390070D01*
X194728Y-390037D01*
X194636Y-389961D01*
X194549Y-389880D01*
X194514Y-389860D01*
X194483Y-389835D01*
X194375Y-389784D01*
X194271Y-389726D01*
X194231Y-389716D01*
X194195Y-389699D01*
X194078Y-389677D01*
X193963Y-389647D01*
X193903Y-389643D01*
X193883Y-389639D01*
X193862Y-389641D01*
X193802Y-389637D01*
X176853Y-389637D01*
X162813Y-375597D01*
X162813Y-299923D01*
X162801Y-299825D01*
X162798Y-299726D01*
X162781Y-299668D01*
X162773Y-299607D01*
X162737Y-299515D01*
X162709Y-299420D01*
X162679Y-299368D01*
X162656Y-299312D01*
X162598Y-299232D01*
X162548Y-299146D01*
X162482Y-299071D01*
X162470Y-299054D01*
X162460Y-299047D01*
X162442Y-299025D01*
X161223Y-297806D01*
X161144Y-297746D01*
X161072Y-297678D01*
X161019Y-297649D01*
X160971Y-297612D01*
X160880Y-297572D01*
X160794Y-297524D01*
X160735Y-297509D01*
X160679Y-297485D01*
X160581Y-297470D01*
X160486Y-297445D01*
X160386Y-297439D01*
X160365Y-297435D01*
X160353Y-297437D01*
X160325Y-297435D01*
X113538Y-297435D01*
X113420Y-297450D01*
X113301Y-297457D01*
X113263Y-297470D01*
X113222Y-297475D01*
X113112Y-297518D01*
X112999Y-297555D01*
X112964Y-297577D01*
X112927Y-297592D01*
X112831Y-297661D01*
X112730Y-297725D01*
X112702Y-297755D01*
X112669Y-297778D01*
X112593Y-297870D01*
X112512Y-297957D01*
X112492Y-297992D01*
X112467Y-298023D01*
X112416Y-298131D01*
X112358Y-298235D01*
X112348Y-298275D01*
X112331Y-298311D01*
X112309Y-298428D01*
X112279Y-298543D01*
X112275Y-298603D01*
X112271Y-298623D01*
X112273Y-298644D01*
X112269Y-298704D01*
X112269Y-298936D01*
X106912Y-304293D01*
X99336Y-304293D01*
X93979Y-298936D01*
X93979Y-291360D01*
X99336Y-286003D01*
X106912Y-286003D01*
X112269Y-291360D01*
X112269Y-291592D01*
X112284Y-291710D01*
X112291Y-291829D01*
X112304Y-291867D01*
X112309Y-291908D01*
X112352Y-292018D01*
X112389Y-292131D01*
X112411Y-292166D01*
X112426Y-292203D01*
X112495Y-292299D01*
X112559Y-292400D01*
X112589Y-292428D01*
X112612Y-292461D01*
X112704Y-292537D01*
X112791Y-292618D01*
X112826Y-292638D01*
X112857Y-292663D01*
X112965Y-292714D01*
X113069Y-292772D01*
X113109Y-292782D01*
X113145Y-292799D01*
X113262Y-292821D01*
X113377Y-292851D01*
X113437Y-292855D01*
X113457Y-292859D01*
X113478Y-292857D01*
X113538Y-292861D01*
X162745Y-292861D01*
X165675Y-295792D01*
X166997Y-297113D01*
X167106Y-297198D01*
X167213Y-297286D01*
X167232Y-297295D01*
X167248Y-297308D01*
X167375Y-297363D01*
X167501Y-297422D01*
X167521Y-297426D01*
X167540Y-297434D01*
X167678Y-297456D01*
X167814Y-297482D01*
X167834Y-297481D01*
X167854Y-297484D01*
X167993Y-297471D01*
X168131Y-297462D01*
X168150Y-297456D01*
X168170Y-297454D01*
X168302Y-297407D01*
X168433Y-297364D01*
X168451Y-297353D01*
X168470Y-297346D01*
X168585Y-297268D01*
X168702Y-297194D01*
X168716Y-297179D01*
X168733Y-297168D01*
X168825Y-297063D01*
X168920Y-296962D01*
X168930Y-296945D01*
X168943Y-296929D01*
X169007Y-296805D01*
X169074Y-296684D01*
X169079Y-296664D01*
X169088Y-296646D01*
X169118Y-296510D01*
X169153Y-296376D01*
X169155Y-296348D01*
X169158Y-296336D01*
X169157Y-296315D01*
X169163Y-296215D01*
X169163Y-280873D01*
X169151Y-280775D01*
X169148Y-280676D01*
X169131Y-280618D01*
X169123Y-280557D01*
X169087Y-280465D01*
X169059Y-280370D01*
X169029Y-280318D01*
X169006Y-280262D01*
X168948Y-280182D01*
X168898Y-280096D01*
X168832Y-280021D01*
X168820Y-280004D01*
X168810Y-279997D01*
X168792Y-279975D01*
X159191Y-270374D01*
X159112Y-270314D01*
X159040Y-270246D01*
X158987Y-270217D01*
X158939Y-270180D01*
X158848Y-270140D01*
X158762Y-270092D01*
X158703Y-270077D01*
X158647Y-270053D01*
X158549Y-270038D01*
X158454Y-270013D01*
X158354Y-270007D01*
X158333Y-270003D01*
X158321Y-270005D01*
X158293Y-270003D01*
X113538Y-270003D01*
X113420Y-270018D01*
X113301Y-270025D01*
X113263Y-270038D01*
X113222Y-270043D01*
X113112Y-270086D01*
X112999Y-270123D01*
X112964Y-270145D01*
X112927Y-270160D01*
X112831Y-270229D01*
X112730Y-270293D01*
X112702Y-270323D01*
X112669Y-270346D01*
X112593Y-270438D01*
X112512Y-270525D01*
X112492Y-270560D01*
X112467Y-270591D01*
X112416Y-270699D01*
X112358Y-270803D01*
X112348Y-270843D01*
X112331Y-270879D01*
X112309Y-270996D01*
X112279Y-271111D01*
X112275Y-271171D01*
X112271Y-271191D01*
X112273Y-271212D01*
X112269Y-271272D01*
X112269Y-271504D01*
X106912Y-276861D01*
X99336Y-276861D01*
X93979Y-271504D01*
X93979Y-263928D01*
X99336Y-258571D01*
X106912Y-258571D01*
X112269Y-263928D01*
X112269Y-264160D01*
X112284Y-264278D01*
X112291Y-264397D01*
X112304Y-264435D01*
X112309Y-264476D01*
X112352Y-264586D01*
X112389Y-264699D01*
X112411Y-264734D01*
X112426Y-264771D01*
X112495Y-264867D01*
X112559Y-264968D01*
X112589Y-264996D01*
X112612Y-265029D01*
X112704Y-265105D01*
X112791Y-265186D01*
X112826Y-265206D01*
X112857Y-265231D01*
X112965Y-265282D01*
X113069Y-265340D01*
X113109Y-265350D01*
X113145Y-265367D01*
X113262Y-265389D01*
X113377Y-265419D01*
X113437Y-265423D01*
X113457Y-265427D01*
X113478Y-265425D01*
X113538Y-265429D01*
X156261Y-265429D01*
X156359Y-265417D01*
X156458Y-265414D01*
X156516Y-265397D01*
X156577Y-265389D01*
X156669Y-265353D01*
X156764Y-265325D01*
X156816Y-265295D01*
X156872Y-265272D01*
X156952Y-265214D01*
X157038Y-265164D01*
X157113Y-265098D01*
X157130Y-265086D01*
X157137Y-265076D01*
X157159Y-265058D01*
X157803Y-264413D01*
X159697Y-264413D01*
X173737Y-278453D01*
X173737Y-328727D01*
X173749Y-328825D01*
X173752Y-328924D01*
X173769Y-328982D01*
X173777Y-329043D01*
X173813Y-329135D01*
X173841Y-329230D01*
X173871Y-329282D01*
X173894Y-329338D01*
X173952Y-329418D01*
X174002Y-329504D01*
X174068Y-329579D01*
X174080Y-329596D01*
X174090Y-329603D01*
X174108Y-329625D01*
X178375Y-333892D01*
X178454Y-333952D01*
X178526Y-334020D01*
X178579Y-334049D01*
X178627Y-334086D01*
X178718Y-334126D01*
X178804Y-334174D01*
X178863Y-334189D01*
X178919Y-334213D01*
X179017Y-334228D01*
X179112Y-334253D01*
X179212Y-334259D01*
X179233Y-334263D01*
X179245Y-334261D01*
X179273Y-334263D01*
X193802Y-334263D01*
X193920Y-334248D01*
X194039Y-334241D01*
X194077Y-334228D01*
X194118Y-334223D01*
X194228Y-334180D01*
X194341Y-334143D01*
X194376Y-334121D01*
X194413Y-334106D01*
X194509Y-334037D01*
X194610Y-333973D01*
X194638Y-333943D01*
X194671Y-333920D01*
X194747Y-333828D01*
X194828Y-333741D01*
X194848Y-333706D01*
X194873Y-333675D01*
X194924Y-333567D01*
X194982Y-333463D01*
X194992Y-333423D01*
X195009Y-333387D01*
X195031Y-333270D01*
X195048Y-333207D01*
X199854Y-328401D01*
X199881Y-328399D01*
X199919Y-328386D01*
X199960Y-328381D01*
X200070Y-328338D01*
X200183Y-328301D01*
X200218Y-328279D01*
X200255Y-328264D01*
X200351Y-328195D01*
X200452Y-328131D01*
X200480Y-328101D01*
X200513Y-328078D01*
X200589Y-327986D01*
X200670Y-327899D01*
X200690Y-327864D01*
X200715Y-327833D01*
X200766Y-327725D01*
X200824Y-327621D01*
X200834Y-327581D01*
X200851Y-327545D01*
X200873Y-327428D01*
X200903Y-327313D01*
X200907Y-327253D01*
X200911Y-327233D01*
X200909Y-327212D01*
X200913Y-327152D01*
X200913Y-322903D01*
X208603Y-315213D01*
X316027Y-315213D01*
X316125Y-315201D01*
X316224Y-315198D01*
X316282Y-315181D01*
X316343Y-315173D01*
X316435Y-315137D01*
X316530Y-315109D01*
X316582Y-315079D01*
X316638Y-315056D01*
X316718Y-314998D01*
X316804Y-314948D01*
X316879Y-314882D01*
X316896Y-314870D01*
X316903Y-314860D01*
X316925Y-314842D01*
X327542Y-304225D01*
X327602Y-304146D01*
X327670Y-304074D01*
X327699Y-304021D01*
X327736Y-303973D01*
X327776Y-303882D01*
X327824Y-303796D01*
X327839Y-303737D01*
X327863Y-303681D01*
X327878Y-303583D01*
X327903Y-303488D01*
X327909Y-303388D01*
X327913Y-303367D01*
X327911Y-303355D01*
X327913Y-303327D01*
X327913Y-249885D01*
X327896Y-249747D01*
X327883Y-249609D01*
X327876Y-249590D01*
X327873Y-249569D01*
X327822Y-249440D01*
X327775Y-249309D01*
X327764Y-249292D01*
X327756Y-249274D01*
X327675Y-249161D01*
X327597Y-249046D01*
X327581Y-249033D01*
X327570Y-249016D01*
X327462Y-248928D01*
X327358Y-248836D01*
X327340Y-248826D01*
X327325Y-248814D01*
X327199Y-248754D01*
X327075Y-248691D01*
X327055Y-248687D01*
X327037Y-248678D01*
X326900Y-248652D01*
X326765Y-248621D01*
X326744Y-248622D01*
X326725Y-248618D01*
X326586Y-248627D01*
X326447Y-248631D01*
X326427Y-248637D01*
X326407Y-248638D01*
X326275Y-248681D01*
X326141Y-248719D01*
X326124Y-248730D01*
X326105Y-248736D01*
X325987Y-248810D01*
X325867Y-248881D01*
X325846Y-248900D01*
X325836Y-248906D01*
X325822Y-248921D01*
X325747Y-248987D01*
X324426Y-250308D01*
X324425Y-250308D01*
X313808Y-260925D01*
X313808Y-260926D01*
X312097Y-262637D01*
X211023Y-262637D01*
X210925Y-262649D01*
X210826Y-262652D01*
X210768Y-262669D01*
X210707Y-262677D01*
X210615Y-262713D01*
X210520Y-262741D01*
X210468Y-262771D01*
X210412Y-262794D01*
X210332Y-262852D01*
X210246Y-262902D01*
X210171Y-262968D01*
X210154Y-262980D01*
X210147Y-262990D01*
X210125Y-263008D01*
X205858Y-267275D01*
X205798Y-267354D01*
X205730Y-267426D01*
X205701Y-267479D01*
X205664Y-267527D01*
X205624Y-267618D01*
X205576Y-267704D01*
X205561Y-267763D01*
X205537Y-267819D01*
X205522Y-267917D01*
X205497Y-268012D01*
X205491Y-268112D01*
X205487Y-268133D01*
X205489Y-268145D01*
X205487Y-268173D01*
X205487Y-270002D01*
X205502Y-270120D01*
X205509Y-270239D01*
X205522Y-270277D01*
X205527Y-270318D01*
X205570Y-270428D01*
X205607Y-270541D01*
X205629Y-270576D01*
X205644Y-270613D01*
X205713Y-270709D01*
X205777Y-270810D01*
X205807Y-270838D01*
X205830Y-270871D01*
X205922Y-270947D01*
X206009Y-271028D01*
X206044Y-271048D01*
X206075Y-271073D01*
X206183Y-271124D01*
X206287Y-271182D01*
X206327Y-271192D01*
X206363Y-271209D01*
X206480Y-271231D01*
X206543Y-271248D01*
X211329Y-276033D01*
X211329Y-282767D01*
X206567Y-287529D01*
X199804Y-287529D01*
X199783Y-287511D01*
X199747Y-287492D01*
X199715Y-287467D01*
X199606Y-287420D01*
X199500Y-287366D01*
X199461Y-287357D01*
X199424Y-287341D01*
X199306Y-287322D01*
X199190Y-287296D01*
X199149Y-287298D01*
X199109Y-287291D01*
X198991Y-287302D01*
X198872Y-287306D01*
X198833Y-287317D01*
X198793Y-287321D01*
X198681Y-287361D01*
X198566Y-287394D01*
X198532Y-287415D01*
X198494Y-287429D01*
X198395Y-287495D01*
X198292Y-287556D01*
X198247Y-287596D01*
X198230Y-287607D01*
X198217Y-287622D01*
X198172Y-287662D01*
X197797Y-288037D01*
X189553Y-288037D01*
X175513Y-273997D01*
X175513Y-261823D01*
X175501Y-261725D01*
X175498Y-261626D01*
X175481Y-261568D01*
X175473Y-261507D01*
X175437Y-261415D01*
X175409Y-261320D01*
X175379Y-261268D01*
X175356Y-261212D01*
X175298Y-261132D01*
X175248Y-261046D01*
X175182Y-260971D01*
X175170Y-260954D01*
X175160Y-260947D01*
X175142Y-260925D01*
X157159Y-242942D01*
X157080Y-242882D01*
X157008Y-242814D01*
X156955Y-242785D01*
X156907Y-242748D01*
X156816Y-242708D01*
X156730Y-242660D01*
X156671Y-242645D01*
X156615Y-242621D01*
X156517Y-242606D01*
X156422Y-242581D01*
X156322Y-242575D01*
X156301Y-242571D01*
X156289Y-242573D01*
X156261Y-242571D01*
X113538Y-242571D01*
X113420Y-242586D01*
X113301Y-242593D01*
X113263Y-242606D01*
X113222Y-242611D01*
X113112Y-242654D01*
X112999Y-242691D01*
X112964Y-242713D01*
X112927Y-242728D01*
X112831Y-242797D01*
X112730Y-242861D01*
X112702Y-242891D01*
X112669Y-242914D01*
X112593Y-243006D01*
X112512Y-243093D01*
X112492Y-243128D01*
X112467Y-243159D01*
X112416Y-243267D01*
X112358Y-243371D01*
X112348Y-243411D01*
X112331Y-243447D01*
X112309Y-243564D01*
X112279Y-243679D01*
X112275Y-243739D01*
X112271Y-243759D01*
X112273Y-243780D01*
X112269Y-243840D01*
X112269Y-244072D01*
X106912Y-249429D01*
X99336Y-249429D01*
X93979Y-244072D01*
X93979Y-236496D01*
X99336Y-231139D01*
X106912Y-231139D01*
X112269Y-236496D01*
X112269Y-236728D01*
X112284Y-236846D01*
X112291Y-236965D01*
X112304Y-237003D01*
X112309Y-237044D01*
X112352Y-237154D01*
X112389Y-237267D01*
X112411Y-237302D01*
X112426Y-237339D01*
X112495Y-237435D01*
X112559Y-237536D01*
X112589Y-237564D01*
X112612Y-237597D01*
X112704Y-237673D01*
X112791Y-237754D01*
X112826Y-237774D01*
X112857Y-237799D01*
X112965Y-237850D01*
X113069Y-237908D01*
X113109Y-237918D01*
X113145Y-237935D01*
X113262Y-237957D01*
X113377Y-237987D01*
X113437Y-237991D01*
X113457Y-237995D01*
X113478Y-237993D01*
X113538Y-237997D01*
X158681Y-237997D01*
X180087Y-259403D01*
X180087Y-271577D01*
X180099Y-271675D01*
X180102Y-271774D01*
X180119Y-271832D01*
X180127Y-271893D01*
X180163Y-271985D01*
X180191Y-272080D01*
X180221Y-272132D01*
X180244Y-272188D01*
X180302Y-272268D01*
X180352Y-272354D01*
X180418Y-272429D01*
X180430Y-272446D01*
X180440Y-272453D01*
X180458Y-272475D01*
X191075Y-283092D01*
X191154Y-283152D01*
X191226Y-283220D01*
X191279Y-283249D01*
X191327Y-283286D01*
X191418Y-283326D01*
X191504Y-283374D01*
X191563Y-283389D01*
X191619Y-283413D01*
X191717Y-283428D01*
X191812Y-283453D01*
X191912Y-283459D01*
X191933Y-283463D01*
X191945Y-283461D01*
X191973Y-283463D01*
X193802Y-283463D01*
X193920Y-283448D01*
X194039Y-283441D01*
X194077Y-283428D01*
X194118Y-283423D01*
X194228Y-283380D01*
X194341Y-283343D01*
X194376Y-283321D01*
X194413Y-283306D01*
X194509Y-283237D01*
X194610Y-283173D01*
X194638Y-283143D01*
X194671Y-283120D01*
X194747Y-283028D01*
X194828Y-282941D01*
X194848Y-282906D01*
X194873Y-282875D01*
X194924Y-282767D01*
X194982Y-282663D01*
X194992Y-282623D01*
X195009Y-282587D01*
X195031Y-282470D01*
X195061Y-282355D01*
X195065Y-282295D01*
X195069Y-282275D01*
X195067Y-282254D01*
X195071Y-282194D01*
X195071Y-276033D01*
X199854Y-271251D01*
X199881Y-271249D01*
X199919Y-271236D01*
X199960Y-271231D01*
X200070Y-271188D01*
X200183Y-271151D01*
X200218Y-271129D01*
X200255Y-271114D01*
X200351Y-271045D01*
X200452Y-270981D01*
X200480Y-270951D01*
X200513Y-270928D01*
X200589Y-270836D01*
X200670Y-270749D01*
X200690Y-270714D01*
X200715Y-270683D01*
X200766Y-270575D01*
X200824Y-270471D01*
X200834Y-270431D01*
X200851Y-270395D01*
X200873Y-270278D01*
X200903Y-270163D01*
X200907Y-270103D01*
X200911Y-270083D01*
X200909Y-270062D01*
X200913Y-270002D01*
X200913Y-265753D01*
X208603Y-258063D01*
X309677Y-258063D01*
X309775Y-258051D01*
X309874Y-258048D01*
X309933Y-258031D01*
X309993Y-258023D01*
X310085Y-257987D01*
X310180Y-257959D01*
X310232Y-257929D01*
X310288Y-257906D01*
X310368Y-257848D01*
X310454Y-257798D01*
X310529Y-257732D01*
X310546Y-257720D01*
X310553Y-257710D01*
X310575Y-257692D01*
X321192Y-247075D01*
X321252Y-246996D01*
X321320Y-246924D01*
X321349Y-246871D01*
X321386Y-246823D01*
X321426Y-246732D01*
X321474Y-246646D01*
X321489Y-246587D01*
X321513Y-246531D01*
X321528Y-246433D01*
X321553Y-246338D01*
X321559Y-246238D01*
X321563Y-246217D01*
X321561Y-246205D01*
X321563Y-246177D01*
X321563Y-231553D01*
X321546Y-231415D01*
X321533Y-231277D01*
X321526Y-231258D01*
X321523Y-231238D01*
X321472Y-231109D01*
X321425Y-230978D01*
X321414Y-230961D01*
X321406Y-230942D01*
X321325Y-230830D01*
X321247Y-230715D01*
X321231Y-230701D01*
X321220Y-230685D01*
X321112Y-230596D01*
X321008Y-230504D01*
X320990Y-230495D01*
X320975Y-230482D01*
X320849Y-230423D01*
X320725Y-230359D01*
X320705Y-230355D01*
X320687Y-230346D01*
X320550Y-230320D01*
X320415Y-230290D01*
X320394Y-230290D01*
X320375Y-230287D01*
X320236Y-230295D01*
X320097Y-230299D01*
X320077Y-230305D01*
X320057Y-230306D01*
X319925Y-230349D01*
X319791Y-230388D01*
X319774Y-230398D01*
X319755Y-230404D01*
X319637Y-230479D01*
X319517Y-230549D01*
X319496Y-230568D01*
X319486Y-230575D01*
X319472Y-230590D01*
X319397Y-230656D01*
X318286Y-231766D01*
X307966Y-242086D01*
X305958Y-244095D01*
X170292Y-244095D01*
X143255Y-217058D01*
X143255Y-141383D01*
X143243Y-141285D01*
X143240Y-141186D01*
X143223Y-141128D01*
X143215Y-141068D01*
X143179Y-140976D01*
X143151Y-140881D01*
X143121Y-140828D01*
X143098Y-140772D01*
X143040Y-140692D01*
X142990Y-140607D01*
X142924Y-140531D01*
X142912Y-140515D01*
X142902Y-140507D01*
X142884Y-140486D01*
X132564Y-130166D01*
X132486Y-130106D01*
X132414Y-130038D01*
X132361Y-130009D01*
X132313Y-129972D01*
X132222Y-129932D01*
X132135Y-129884D01*
X132077Y-129869D01*
X132021Y-129845D01*
X131923Y-129830D01*
X131827Y-129805D01*
X131727Y-129799D01*
X131707Y-129795D01*
X131695Y-129797D01*
X131667Y-129795D01*
X46133Y-129795D01*
X46035Y-129807D01*
X45936Y-129810D01*
X45878Y-129827D01*
X45818Y-129835D01*
X45726Y-129871D01*
X45631Y-129899D01*
X45578Y-129929D01*
X45522Y-129952D01*
X45442Y-130010D01*
X45357Y-130060D01*
X45281Y-130126D01*
X45265Y-130138D01*
X45257Y-130148D01*
X45236Y-130166D01*
X41266Y-134136D01*
X41206Y-134214D01*
X41138Y-134286D01*
X41109Y-134339D01*
X41072Y-134387D01*
X41032Y-134478D01*
X40984Y-134565D01*
X40969Y-134623D01*
X40945Y-134679D01*
X40930Y-134777D01*
X40905Y-134873D01*
X40899Y-134973D01*
X40895Y-134993D01*
X40897Y-135005D01*
X40895Y-135033D01*
X40895Y-182467D01*
X40907Y-182565D01*
X40910Y-182664D01*
X40927Y-182722D01*
X40935Y-182782D01*
X40971Y-182874D01*
X40999Y-182969D01*
X41029Y-183022D01*
X41052Y-183078D01*
X41110Y-183158D01*
X41160Y-183243D01*
X41226Y-183319D01*
X41238Y-183335D01*
X41248Y-183343D01*
X41266Y-183364D01*
X53872Y-195970D01*
X53950Y-196030D01*
X54022Y-196098D01*
X54075Y-196127D01*
X54123Y-196164D01*
X54214Y-196204D01*
X54301Y-196252D01*
X54359Y-196267D01*
X54415Y-196291D01*
X54513Y-196306D01*
X54609Y-196331D01*
X54709Y-196337D01*
X54729Y-196341D01*
X54741Y-196339D01*
X54769Y-196341D01*
X64262Y-196341D01*
X64380Y-196326D01*
X64499Y-196319D01*
X64537Y-196306D01*
X64578Y-196301D01*
X64688Y-196258D01*
X64801Y-196221D01*
X64836Y-196199D01*
X64873Y-196184D01*
X64969Y-196115D01*
X65070Y-196051D01*
X65098Y-196021D01*
X65131Y-195998D01*
X65207Y-195906D01*
X65288Y-195819D01*
X65308Y-195784D01*
X65333Y-195753D01*
X65384Y-195645D01*
X65442Y-195541D01*
X65452Y-195501D01*
X65469Y-195465D01*
X65482Y-195398D01*
X70888Y-189991D01*
X78464Y-189991D01*
X83821Y-195348D01*
X83821Y-202924D01*
X78464Y-208281D01*
X70888Y-208281D01*
X65491Y-202884D01*
X65448Y-202774D01*
X65411Y-202661D01*
X65389Y-202626D01*
X65374Y-202589D01*
X65305Y-202493D01*
X65241Y-202392D01*
X65211Y-202364D01*
X65188Y-202331D01*
X65096Y-202255D01*
X65009Y-202174D01*
X64974Y-202154D01*
X64943Y-202129D01*
X64835Y-202078D01*
X64731Y-202020D01*
X64691Y-202010D01*
X64655Y-201993D01*
X64538Y-201971D01*
X64423Y-201941D01*
X64363Y-201937D01*
X64343Y-201933D01*
X64322Y-201935D01*
X64262Y-201931D01*
X51928Y-201931D01*
X51697Y-201700D01*
X51610Y-201632D01*
X51572Y-201596D01*
X51563Y-201592D01*
X51514Y-201548D01*
X51478Y-201530D01*
X51446Y-201505D01*
X51337Y-201458D01*
X51231Y-201403D01*
X51192Y-201395D01*
X51154Y-201379D01*
X51037Y-201360D01*
X50921Y-201334D01*
X50880Y-201335D01*
X50840Y-201329D01*
X50722Y-201340D01*
X50603Y-201343D01*
X50564Y-201355D01*
X50524Y-201359D01*
X50411Y-201399D01*
X50297Y-201432D01*
X50262Y-201452D01*
X50224Y-201466D01*
X50126Y-201533D01*
X50023Y-201593D01*
X49978Y-201633D01*
X49961Y-201645D01*
X49948Y-201660D01*
X49902Y-201700D01*
X41266Y-210336D01*
X41206Y-210414D01*
X41138Y-210486D01*
X41109Y-210539D01*
X41072Y-210587D01*
X41032Y-210678D01*
X40984Y-210765D01*
X40969Y-210823D01*
X40945Y-210879D01*
X40930Y-210977D01*
X40905Y-211073D01*
X40899Y-211173D01*
X40895Y-211193D01*
X40897Y-211205D01*
X40895Y-211233D01*
X40895Y-360267D01*
X40907Y-360365D01*
X40910Y-360464D01*
X40927Y-360522D01*
X40935Y-360582D01*
X40971Y-360674D01*
X40999Y-360769D01*
X41029Y-360822D01*
X41052Y-360878D01*
X41110Y-360958D01*
X41160Y-361043D01*
X41226Y-361119D01*
X41238Y-361135D01*
X41248Y-361143D01*
X41266Y-361164D01*
X64286Y-384184D01*
X64364Y-384244D01*
X64436Y-384312D01*
X64489Y-384341D01*
X64537Y-384378D01*
X64628Y-384418D01*
X64715Y-384466D01*
X64773Y-384481D01*
X64829Y-384505D01*
X64927Y-384520D01*
X65023Y-384545D01*
X65123Y-384551D01*
X65143Y-384555D01*
X65155Y-384553D01*
X65183Y-384555D01*
X153558Y-384555D01*
X210336Y-441334D01*
X210414Y-441394D01*
X210486Y-441462D01*
X210539Y-441491D01*
X210587Y-441528D01*
X210678Y-441568D01*
X210765Y-441616D01*
X210823Y-441631D01*
X210879Y-441655D01*
X210977Y-441670D01*
X211073Y-441695D01*
X211173Y-441701D01*
X211193Y-441705D01*
X211205Y-441703D01*
X211233Y-441705D01*
X277717Y-441705D01*
X277815Y-441693D01*
X277914Y-441690D01*
X277972Y-441673D01*
X278032Y-441665D01*
X278124Y-441629D01*
X278219Y-441601D01*
X278272Y-441571D01*
X278328Y-441548D01*
X278408Y-441490D01*
X278493Y-441440D01*
X278569Y-441374D01*
X278585Y-441362D01*
X278593Y-441352D01*
X278614Y-441334D01*
X341742Y-378205D01*
X359073Y-378205D01*
X359171Y-378193D01*
X359270Y-378190D01*
X359329Y-378173D01*
X359389Y-378165D01*
X359481Y-378129D01*
X359576Y-378101D01*
X359628Y-378071D01*
X359684Y-378048D01*
X359764Y-377990D01*
X359850Y-377940D01*
X359925Y-377874D01*
X359942Y-377862D01*
X359950Y-377852D01*
X359971Y-377834D01*
X365134Y-372671D01*
X365194Y-372592D01*
X365262Y-372520D01*
X365291Y-372467D01*
X365328Y-372419D01*
X365368Y-372328D01*
X365416Y-372242D01*
X365431Y-372183D01*
X365455Y-372128D01*
X365470Y-372030D01*
X365495Y-371934D01*
X365501Y-371834D01*
X365505Y-371814D01*
X365503Y-371801D01*
X365505Y-371773D01*
X365505Y-360792D01*
X367142Y-359155D01*
X506317Y-359155D01*
X506415Y-359143D01*
X506514Y-359140D01*
X506572Y-359123D01*
X506632Y-359115D01*
X506724Y-359079D01*
X506819Y-359051D01*
X506872Y-359021D01*
X506928Y-358998D01*
X507008Y-358940D01*
X507093Y-358890D01*
X507169Y-358824D01*
X507185Y-358812D01*
X507193Y-358802D01*
X507214Y-358784D01*
X523884Y-342114D01*
X523944Y-342036D01*
X524012Y-341964D01*
X524041Y-341911D01*
X524078Y-341863D01*
X524118Y-341772D01*
X524166Y-341685D01*
X524181Y-341627D01*
X524205Y-341571D01*
X524220Y-341473D01*
X524245Y-341377D01*
X524251Y-341277D01*
X524255Y-341257D01*
X524253Y-341245D01*
X524255Y-341217D01*
X524255Y-255683D01*
X524243Y-255585D01*
X524240Y-255486D01*
X524223Y-255428D01*
X524215Y-255368D01*
X524179Y-255276D01*
X524151Y-255181D01*
X524121Y-255128D01*
X524098Y-255072D01*
X524040Y-254992D01*
X523990Y-254907D01*
X523924Y-254831D01*
X523912Y-254815D01*
X523902Y-254807D01*
X523884Y-254786D01*
X513564Y-244466D01*
X511555Y-242458D01*
X511555Y-224643D01*
X511552Y-224614D01*
X511554Y-224584D01*
X511532Y-224456D01*
X511515Y-224327D01*
X511505Y-224300D01*
X511500Y-224271D01*
X511446Y-224152D01*
X511398Y-224032D01*
X511381Y-224008D01*
X511369Y-223981D01*
X511288Y-223880D01*
X511212Y-223774D01*
X511189Y-223756D01*
X511170Y-223732D01*
X511067Y-223654D01*
X510967Y-223572D01*
X510940Y-223559D01*
X510916Y-223541D01*
X510772Y-223470D01*
X509745Y-223045D01*
X507459Y-220759D01*
X506221Y-217771D01*
X506221Y-201329D01*
X507459Y-198341D01*
X509745Y-196055D01*
X512733Y-194817D01*
X515967Y-194817D01*
X518955Y-196055D01*
X521241Y-198341D01*
X522479Y-201329D01*
X522479Y-217771D01*
X521241Y-220759D01*
X518955Y-223045D01*
X517928Y-223470D01*
X517903Y-223485D01*
X517875Y-223494D01*
X517765Y-223564D01*
X517652Y-223628D01*
X517631Y-223648D01*
X517606Y-223664D01*
X517517Y-223759D01*
X517424Y-223849D01*
X517408Y-223874D01*
X517388Y-223896D01*
X517325Y-224010D01*
X517257Y-224120D01*
X517249Y-224148D01*
X517234Y-224174D01*
X517202Y-224300D01*
X517164Y-224424D01*
X517162Y-224454D01*
X517155Y-224482D01*
X517145Y-224643D01*
X517145Y-239617D01*
X517157Y-239715D01*
X517160Y-239814D01*
X517177Y-239872D01*
X517185Y-239932D01*
X517221Y-240024D01*
X517249Y-240119D01*
X517279Y-240172D01*
X517302Y-240228D01*
X517360Y-240308D01*
X517410Y-240393D01*
X517476Y-240469D01*
X517488Y-240485D01*
X517498Y-240493D01*
X517516Y-240514D01*
X527836Y-250834D01*
X529845Y-252842D01*
X529845Y-344058D01*
X522375Y-351528D01*
X522302Y-351622D01*
X522223Y-351711D01*
X522205Y-351747D01*
X522180Y-351779D01*
X522133Y-351888D01*
X522078Y-351994D01*
X522070Y-352033D01*
X522054Y-352071D01*
X522035Y-352188D01*
X522009Y-352304D01*
X522010Y-352345D01*
X522004Y-352385D01*
X522015Y-352503D01*
X522018Y-352622D01*
X522030Y-352661D01*
X522034Y-352701D01*
X522074Y-352814D01*
X522107Y-352928D01*
X522127Y-352963D01*
X522141Y-353001D01*
X522208Y-353099D01*
X522268Y-353202D01*
X522308Y-353247D01*
X522320Y-353264D01*
X522335Y-353277D01*
X522375Y-353323D01*
X534186Y-365134D01*
X534264Y-365194D01*
X534336Y-365262D01*
X534389Y-365291D01*
X534437Y-365328D01*
X534528Y-365368D01*
X534615Y-365416D01*
X534673Y-365431D01*
X534729Y-365455D01*
X534827Y-365470D01*
X534923Y-365495D01*
X535023Y-365501D01*
X535043Y-365505D01*
X535055Y-365503D01*
X535083Y-365505D01*
X607917Y-365505D01*
X608015Y-365493D01*
X608114Y-365490D01*
X608172Y-365473D01*
X608232Y-365465D01*
X608324Y-365429D01*
X608419Y-365401D01*
X608472Y-365371D01*
X608528Y-365348D01*
X608608Y-365290D01*
X608693Y-365240D01*
X608769Y-365174D01*
X608785Y-365162D01*
X608793Y-365152D01*
X608814Y-365134D01*
X621142Y-352805D01*
X644823Y-352805D01*
X644921Y-352793D01*
X645020Y-352790D01*
X645079Y-352773D01*
X645139Y-352765D01*
X645231Y-352729D01*
X645326Y-352701D01*
X645378Y-352671D01*
X645434Y-352648D01*
X645514Y-352590D01*
X645600Y-352540D01*
X645675Y-352474D01*
X645692Y-352462D01*
X645700Y-352452D01*
X645721Y-352434D01*
X650683Y-347471D01*
X657417Y-347471D01*
X662179Y-352233D01*
X662179Y-358967D01*
X657417Y-363729D01*
X650683Y-363729D01*
X645721Y-358766D01*
X645642Y-358706D01*
X645570Y-358638D01*
X645517Y-358609D01*
X645469Y-358572D01*
X645378Y-358532D01*
X645292Y-358484D01*
X645233Y-358469D01*
X645178Y-358445D01*
X645080Y-358430D01*
X644984Y-358405D01*
X644884Y-358399D01*
X644864Y-358395D01*
X644851Y-358397D01*
X644823Y-358395D01*
X623983Y-358395D01*
X623885Y-358407D01*
X623786Y-358410D01*
X623728Y-358427D01*
X623668Y-358435D01*
X623576Y-358471D01*
X623481Y-358499D01*
X623428Y-358529D01*
X623372Y-358552D01*
X623292Y-358610D01*
X623207Y-358660D01*
X623131Y-358726D01*
X623115Y-358738D01*
X623107Y-358748D01*
X623086Y-358766D01*
X610758Y-371095D01*
X532242Y-371095D01*
X530234Y-369086D01*
X518423Y-357275D01*
X518328Y-357202D01*
X518239Y-357123D01*
X518203Y-357105D01*
X518171Y-357080D01*
X518062Y-357033D01*
X517956Y-356978D01*
X517917Y-356970D01*
X517879Y-356954D01*
X517762Y-356935D01*
X517646Y-356909D01*
X517605Y-356910D01*
X517565Y-356904D01*
X517447Y-356915D01*
X517328Y-356918D01*
X517289Y-356930D01*
X517249Y-356934D01*
X517136Y-356974D01*
X517022Y-357007D01*
X516988Y-357027D01*
X516949Y-357041D01*
X516851Y-357108D01*
X516748Y-357168D01*
X516703Y-357208D01*
X516686Y-357220D01*
X516673Y-357235D01*
X516628Y-357275D01*
X509158Y-364745D01*
X428911Y-364745D01*
X428774Y-364762D01*
X428635Y-364775D01*
X428616Y-364782D01*
X428596Y-364785D01*
X428467Y-364836D01*
X428336Y-364883D01*
X428319Y-364894D01*
X428300Y-364902D01*
X428188Y-364983D01*
X428073Y-365061D01*
X428059Y-365077D01*
X428043Y-365088D01*
X427954Y-365196D01*
X427862Y-365300D01*
X427853Y-365318D01*
X427840Y-365333D01*
X427781Y-365459D01*
X427717Y-365583D01*
X427713Y-365603D01*
X427704Y-365621D01*
X427678Y-365757D01*
X427648Y-365893D01*
X427648Y-365914D01*
X427645Y-365933D01*
X427653Y-366072D01*
X427657Y-366211D01*
X427663Y-366231D01*
X427664Y-366251D01*
X427707Y-366383D01*
X427746Y-366517D01*
X427756Y-366534D01*
X427762Y-366553D01*
X427837Y-366671D01*
X427907Y-366791D01*
X427926Y-366812D01*
X427933Y-366822D01*
X427948Y-366836D01*
X428014Y-366911D01*
X434595Y-373492D01*
X434595Y-396536D01*
X434598Y-396566D01*
X434596Y-396595D01*
X434618Y-396723D01*
X434635Y-396852D01*
X434645Y-396879D01*
X434650Y-396908D01*
X434704Y-397027D01*
X434752Y-397148D01*
X434769Y-397172D01*
X434781Y-397198D01*
X434862Y-397300D01*
X434938Y-397405D01*
X434961Y-397424D01*
X434980Y-397447D01*
X435083Y-397525D01*
X435183Y-397608D01*
X435210Y-397620D01*
X435234Y-397638D01*
X435378Y-397709D01*
X437124Y-398432D01*
X439768Y-401076D01*
X441199Y-404530D01*
X441199Y-408270D01*
X439768Y-411724D01*
X437124Y-414368D01*
X433670Y-415799D01*
X429930Y-415799D01*
X426476Y-414368D01*
X423832Y-411724D01*
X422401Y-408270D01*
X422401Y-404530D01*
X423832Y-401076D01*
X426476Y-398432D01*
X428222Y-397709D01*
X428247Y-397694D01*
X428275Y-397685D01*
X428385Y-397616D01*
X428498Y-397552D01*
X428519Y-397531D01*
X428544Y-397515D01*
X428633Y-397421D01*
X428726Y-397330D01*
X428742Y-397305D01*
X428762Y-397284D01*
X428825Y-397170D01*
X428893Y-397059D01*
X428901Y-397031D01*
X428916Y-397005D01*
X428948Y-396879D01*
X428986Y-396755D01*
X428988Y-396726D01*
X428995Y-396697D01*
X429005Y-396536D01*
X429005Y-376333D01*
X428993Y-376235D01*
X428990Y-376136D01*
X428973Y-376078D01*
X428965Y-376018D01*
X428929Y-375926D01*
X428901Y-375831D01*
X428871Y-375778D01*
X428848Y-375722D01*
X428790Y-375642D01*
X428740Y-375557D01*
X428674Y-375481D01*
X428662Y-375465D01*
X428652Y-375457D01*
X428634Y-375436D01*
X418314Y-365116D01*
X418236Y-365056D01*
X418164Y-364988D01*
X418111Y-364959D01*
X418063Y-364922D01*
X417972Y-364882D01*
X417885Y-364834D01*
X417827Y-364819D01*
X417771Y-364795D01*
X417673Y-364780D01*
X417577Y-364755D01*
X417477Y-364749D01*
X417457Y-364745D01*
X417445Y-364747D01*
X417417Y-364745D01*
X372364Y-364745D01*
X372246Y-364760D01*
X372127Y-364767D01*
X372089Y-364780D01*
X372048Y-364785D01*
X371938Y-364828D01*
X371825Y-364865D01*
X371790Y-364887D01*
X371753Y-364902D01*
X371657Y-364971D01*
X371556Y-365035D01*
X371528Y-365065D01*
X371495Y-365088D01*
X371419Y-365180D01*
X371338Y-365267D01*
X371318Y-365302D01*
X371293Y-365333D01*
X371242Y-365441D01*
X371184Y-365545D01*
X371174Y-365585D01*
X371157Y-365621D01*
X371135Y-365738D01*
X371105Y-365853D01*
X371101Y-365913D01*
X371097Y-365933D01*
X371099Y-365954D01*
X371095Y-366014D01*
X371095Y-371773D01*
X371107Y-371871D01*
X371110Y-371970D01*
X371127Y-372029D01*
X371135Y-372089D01*
X371171Y-372181D01*
X371199Y-372276D01*
X371229Y-372328D01*
X371252Y-372384D01*
X371310Y-372464D01*
X371360Y-372550D01*
X371426Y-372625D01*
X371438Y-372642D01*
X371448Y-372650D01*
X371466Y-372671D01*
X376429Y-377633D01*
X376429Y-384367D01*
X371667Y-389129D01*
X364933Y-389129D01*
X359971Y-384166D01*
X359892Y-384106D01*
X359820Y-384038D01*
X359767Y-384009D01*
X359719Y-383972D01*
X359628Y-383932D01*
X359542Y-383884D01*
X359483Y-383869D01*
X359428Y-383845D01*
X359330Y-383830D01*
X359234Y-383805D01*
X359134Y-383799D01*
X359114Y-383795D01*
X359101Y-383797D01*
X359073Y-383795D01*
X344583Y-383795D01*
X344485Y-383807D01*
X344386Y-383810D01*
X344328Y-383827D01*
X344268Y-383835D01*
X344176Y-383871D01*
X344081Y-383899D01*
X344028Y-383929D01*
X343972Y-383952D01*
X343892Y-384010D01*
X343807Y-384060D01*
X343731Y-384126D01*
X343715Y-384138D01*
X343707Y-384148D01*
X343686Y-384166D01*
X280558Y-447295D01*
X249333Y-447295D01*
X249235Y-447307D01*
X249136Y-447310D01*
X249078Y-447327D01*
X249018Y-447335D01*
X248926Y-447371D01*
X248831Y-447399D01*
X248778Y-447429D01*
X248722Y-447452D01*
X248642Y-447510D01*
X248557Y-447560D01*
X248481Y-447626D01*
X248465Y-447638D01*
X248457Y-447648D01*
X248436Y-447666D01*
X244466Y-451636D01*
X244406Y-451714D01*
X244338Y-451786D01*
X244309Y-451839D01*
X244272Y-451887D01*
X244232Y-451978D01*
X244184Y-452065D01*
X244169Y-452123D01*
X244145Y-452179D01*
X244130Y-452277D01*
X244105Y-452373D01*
X244099Y-452473D01*
X244095Y-452493D01*
X244097Y-452505D01*
X244095Y-452533D01*
X244095Y-457708D01*
X244110Y-457826D01*
X244117Y-457945D01*
X244130Y-457983D01*
X244135Y-458024D01*
X244178Y-458134D01*
X244215Y-458247D01*
X244237Y-458282D01*
X244252Y-458319D01*
X244321Y-458415D01*
X244385Y-458516D01*
X244415Y-458544D01*
X244438Y-458577D01*
X244530Y-458653D01*
X244617Y-458734D01*
X244652Y-458754D01*
X244683Y-458779D01*
X244791Y-458830D01*
X244895Y-458888D01*
X244935Y-458898D01*
X244971Y-458915D01*
X245088Y-458937D01*
X245203Y-458967D01*
X245263Y-458971D01*
X245283Y-458975D01*
X245304Y-458973D01*
X245364Y-458977D01*
X248455Y-458977D01*
X258573Y-469095D01*
X258573Y-483405D01*
X248455Y-493523D01*
X234145Y-493523D01*
G37*
%LPD*%
G36*
X193920Y-385048D02*
X193920Y-385048D01*
X194039Y-385041D01*
X194077Y-385028D01*
X194118Y-385023D01*
X194228Y-384980D01*
X194341Y-384943D01*
X194376Y-384921D01*
X194413Y-384906D01*
X194509Y-384837D01*
X194610Y-384773D01*
X194638Y-384743D01*
X194671Y-384720D01*
X194747Y-384628D01*
X194828Y-384541D01*
X194848Y-384506D01*
X194873Y-384475D01*
X194924Y-384367D01*
X194982Y-384263D01*
X194992Y-384223D01*
X195009Y-384187D01*
X195031Y-384070D01*
X195048Y-384007D01*
X199833Y-379221D01*
X206596Y-379221D01*
X206617Y-379239D01*
X206653Y-379258D01*
X206685Y-379283D01*
X206794Y-379330D01*
X206900Y-379384D01*
X206939Y-379393D01*
X206977Y-379409D01*
X207094Y-379428D01*
X207210Y-379454D01*
X207251Y-379452D01*
X207291Y-379459D01*
X207409Y-379448D01*
X207528Y-379444D01*
X207567Y-379433D01*
X207607Y-379429D01*
X207719Y-379389D01*
X207834Y-379356D01*
X207868Y-379335D01*
X207907Y-379321D01*
X208005Y-379255D01*
X208108Y-379194D01*
X208153Y-379154D01*
X208170Y-379143D01*
X208183Y-379128D01*
X208228Y-379088D01*
X219592Y-367725D01*
X219592Y-367724D01*
X221303Y-366013D01*
X322377Y-366013D01*
X322475Y-366001D01*
X322574Y-365998D01*
X322632Y-365981D01*
X322693Y-365973D01*
X322785Y-365937D01*
X322880Y-365909D01*
X322932Y-365879D01*
X322988Y-365856D01*
X323068Y-365798D01*
X323154Y-365748D01*
X323229Y-365682D01*
X323246Y-365670D01*
X323253Y-365660D01*
X323275Y-365642D01*
X333892Y-355025D01*
X333952Y-354946D01*
X334020Y-354874D01*
X334049Y-354821D01*
X334086Y-354773D01*
X334126Y-354682D01*
X334174Y-354596D01*
X334189Y-354537D01*
X334213Y-354481D01*
X334228Y-354383D01*
X334253Y-354288D01*
X334259Y-354188D01*
X334263Y-354167D01*
X334261Y-354155D01*
X334263Y-354127D01*
X334263Y-307035D01*
X334246Y-306897D01*
X334233Y-306759D01*
X334226Y-306740D01*
X334223Y-306719D01*
X334172Y-306590D01*
X334125Y-306459D01*
X334114Y-306442D01*
X334106Y-306424D01*
X334025Y-306311D01*
X333947Y-306196D01*
X333931Y-306183D01*
X333920Y-306166D01*
X333812Y-306078D01*
X333708Y-305986D01*
X333690Y-305976D01*
X333675Y-305964D01*
X333549Y-305904D01*
X333425Y-305841D01*
X333405Y-305837D01*
X333387Y-305828D01*
X333250Y-305802D01*
X333115Y-305771D01*
X333094Y-305772D01*
X333075Y-305768D01*
X332936Y-305777D01*
X332797Y-305781D01*
X332777Y-305787D01*
X332757Y-305788D01*
X332625Y-305831D01*
X332491Y-305869D01*
X332474Y-305880D01*
X332455Y-305886D01*
X332337Y-305960D01*
X332217Y-306031D01*
X332196Y-306050D01*
X332186Y-306056D01*
X332172Y-306071D01*
X332097Y-306137D01*
X330775Y-307458D01*
X318447Y-319787D01*
X211023Y-319787D01*
X210925Y-319799D01*
X210826Y-319802D01*
X210768Y-319819D01*
X210707Y-319827D01*
X210615Y-319863D01*
X210520Y-319891D01*
X210468Y-319921D01*
X210412Y-319944D01*
X210332Y-320002D01*
X210246Y-320052D01*
X210171Y-320118D01*
X210154Y-320130D01*
X210147Y-320140D01*
X210125Y-320158D01*
X205858Y-324425D01*
X205798Y-324504D01*
X205730Y-324576D01*
X205701Y-324629D01*
X205664Y-324677D01*
X205624Y-324768D01*
X205576Y-324854D01*
X205561Y-324913D01*
X205537Y-324969D01*
X205522Y-325067D01*
X205497Y-325162D01*
X205491Y-325262D01*
X205487Y-325283D01*
X205489Y-325295D01*
X205487Y-325323D01*
X205487Y-327152D01*
X205502Y-327270D01*
X205509Y-327389D01*
X205522Y-327427D01*
X205527Y-327468D01*
X205570Y-327578D01*
X205607Y-327691D01*
X205629Y-327726D01*
X205644Y-327763D01*
X205713Y-327859D01*
X205777Y-327960D01*
X205807Y-327988D01*
X205830Y-328021D01*
X205922Y-328097D01*
X206009Y-328178D01*
X206044Y-328198D01*
X206075Y-328223D01*
X206183Y-328274D01*
X206287Y-328332D01*
X206327Y-328342D01*
X206363Y-328359D01*
X206480Y-328381D01*
X206543Y-328398D01*
X211329Y-333183D01*
X211329Y-339917D01*
X206567Y-344679D01*
X199833Y-344679D01*
X195051Y-339896D01*
X195049Y-339869D01*
X195036Y-339831D01*
X195031Y-339790D01*
X194988Y-339680D01*
X194951Y-339567D01*
X194929Y-339532D01*
X194914Y-339495D01*
X194845Y-339399D01*
X194781Y-339298D01*
X194751Y-339270D01*
X194728Y-339237D01*
X194636Y-339161D01*
X194549Y-339080D01*
X194514Y-339060D01*
X194483Y-339035D01*
X194375Y-338984D01*
X194271Y-338926D01*
X194231Y-338916D01*
X194195Y-338899D01*
X194078Y-338877D01*
X193963Y-338847D01*
X193903Y-338843D01*
X193883Y-338839D01*
X193862Y-338841D01*
X193802Y-338837D01*
X176853Y-338837D01*
X175142Y-337125D01*
X169553Y-331537D01*
X169444Y-331452D01*
X169337Y-331364D01*
X169318Y-331355D01*
X169302Y-331342D01*
X169174Y-331287D01*
X169049Y-331228D01*
X169029Y-331224D01*
X169010Y-331216D01*
X168872Y-331194D01*
X168736Y-331168D01*
X168716Y-331169D01*
X168696Y-331166D01*
X168557Y-331179D01*
X168419Y-331188D01*
X168400Y-331194D01*
X168380Y-331196D01*
X168248Y-331243D01*
X168117Y-331286D01*
X168099Y-331297D01*
X168080Y-331304D01*
X167965Y-331382D01*
X167848Y-331456D01*
X167834Y-331471D01*
X167817Y-331482D01*
X167725Y-331587D01*
X167630Y-331688D01*
X167620Y-331705D01*
X167607Y-331721D01*
X167543Y-331845D01*
X167476Y-331966D01*
X167471Y-331986D01*
X167462Y-332004D01*
X167432Y-332140D01*
X167397Y-332274D01*
X167395Y-332302D01*
X167392Y-332314D01*
X167393Y-332335D01*
X167387Y-332435D01*
X167387Y-373177D01*
X167399Y-373275D01*
X167402Y-373374D01*
X167419Y-373432D01*
X167427Y-373493D01*
X167463Y-373585D01*
X167491Y-373680D01*
X167521Y-373732D01*
X167544Y-373788D01*
X167602Y-373868D01*
X167652Y-373954D01*
X167718Y-374029D01*
X167730Y-374046D01*
X167740Y-374053D01*
X167758Y-374075D01*
X178375Y-384692D01*
X178454Y-384752D01*
X178526Y-384820D01*
X178579Y-384849D01*
X178627Y-384886D01*
X178718Y-384926D01*
X178804Y-384974D01*
X178863Y-384989D01*
X178919Y-385013D01*
X179017Y-385028D01*
X179112Y-385053D01*
X179212Y-385059D01*
X179233Y-385063D01*
X179245Y-385061D01*
X179273Y-385063D01*
X193802Y-385063D01*
X193920Y-385048D01*
G37*
%LPC*%
G36*
X608795Y-156973D02*
X608795Y-156973D01*
X598677Y-146855D01*
X598677Y-132545D01*
X608795Y-122427D01*
X623105Y-122427D01*
X630861Y-130184D01*
X630939Y-130244D01*
X631011Y-130312D01*
X631064Y-130341D01*
X631112Y-130378D01*
X631203Y-130418D01*
X631290Y-130466D01*
X631348Y-130481D01*
X631404Y-130505D01*
X631502Y-130520D01*
X631598Y-130545D01*
X631698Y-130551D01*
X631718Y-130555D01*
X631730Y-130553D01*
X631758Y-130555D01*
X658717Y-130555D01*
X658815Y-130543D01*
X658914Y-130540D01*
X658972Y-130523D01*
X659032Y-130515D01*
X659124Y-130479D01*
X659219Y-130451D01*
X659272Y-130421D01*
X659328Y-130398D01*
X659408Y-130340D01*
X659493Y-130290D01*
X659569Y-130224D01*
X659585Y-130212D01*
X659593Y-130202D01*
X659614Y-130184D01*
X669934Y-119864D01*
X669994Y-119786D01*
X670062Y-119714D01*
X670091Y-119661D01*
X670128Y-119613D01*
X670168Y-119522D01*
X670216Y-119435D01*
X670231Y-119377D01*
X670255Y-119321D01*
X670270Y-119223D01*
X670295Y-119127D01*
X670301Y-119027D01*
X670305Y-119007D01*
X670303Y-118995D01*
X670305Y-118967D01*
X670305Y-86892D01*
X670302Y-86863D01*
X670304Y-86833D01*
X670282Y-86705D01*
X670265Y-86577D01*
X670255Y-86549D01*
X670250Y-86520D01*
X670196Y-86401D01*
X670148Y-86281D01*
X670131Y-86257D01*
X670119Y-86230D01*
X670038Y-86129D01*
X669962Y-86024D01*
X669939Y-86005D01*
X669920Y-85982D01*
X669817Y-85904D01*
X669717Y-85821D01*
X669690Y-85808D01*
X669666Y-85790D01*
X669522Y-85719D01*
X667965Y-85075D01*
X665415Y-82525D01*
X664035Y-79193D01*
X664035Y-60507D01*
X665415Y-57175D01*
X667965Y-54625D01*
X670030Y-53770D01*
X670055Y-53756D01*
X670083Y-53746D01*
X670193Y-53677D01*
X670306Y-53613D01*
X670327Y-53592D01*
X670352Y-53576D01*
X670441Y-53482D01*
X670534Y-53391D01*
X670550Y-53366D01*
X670570Y-53345D01*
X670633Y-53231D01*
X670701Y-53120D01*
X670709Y-53092D01*
X670724Y-53066D01*
X670756Y-52940D01*
X670794Y-52816D01*
X670796Y-52787D01*
X670803Y-52758D01*
X670813Y-52598D01*
X670813Y-52273D01*
X670801Y-52175D01*
X670798Y-52076D01*
X670781Y-52018D01*
X670773Y-51957D01*
X670737Y-51865D01*
X670709Y-51770D01*
X670679Y-51718D01*
X670656Y-51662D01*
X670598Y-51582D01*
X670548Y-51496D01*
X670482Y-51421D01*
X670470Y-51404D01*
X670460Y-51397D01*
X670442Y-51375D01*
X666175Y-47108D01*
X666096Y-47048D01*
X666024Y-46980D01*
X665971Y-46951D01*
X665923Y-46914D01*
X665832Y-46874D01*
X665746Y-46826D01*
X665687Y-46811D01*
X665631Y-46787D01*
X665533Y-46772D01*
X665438Y-46747D01*
X665338Y-46741D01*
X665317Y-46737D01*
X665305Y-46739D01*
X665277Y-46737D01*
X556006Y-46737D01*
X555888Y-46752D01*
X555769Y-46759D01*
X555731Y-46772D01*
X555690Y-46777D01*
X555580Y-46820D01*
X555467Y-46857D01*
X555432Y-46879D01*
X555395Y-46894D01*
X555299Y-46963D01*
X555198Y-47027D01*
X555170Y-47057D01*
X555137Y-47080D01*
X555061Y-47172D01*
X554980Y-47259D01*
X554960Y-47294D01*
X554935Y-47325D01*
X554884Y-47433D01*
X554826Y-47537D01*
X554816Y-47577D01*
X554799Y-47613D01*
X554777Y-47730D01*
X554747Y-47845D01*
X554743Y-47905D01*
X554739Y-47925D01*
X554741Y-47946D01*
X554737Y-48006D01*
X554737Y-52598D01*
X554740Y-52627D01*
X554738Y-52656D01*
X554760Y-52784D01*
X554777Y-52913D01*
X554787Y-52940D01*
X554792Y-52970D01*
X554846Y-53088D01*
X554894Y-53209D01*
X554911Y-53233D01*
X554923Y-53260D01*
X555004Y-53361D01*
X555080Y-53466D01*
X555103Y-53485D01*
X555122Y-53508D01*
X555225Y-53586D01*
X555325Y-53669D01*
X555352Y-53681D01*
X555376Y-53699D01*
X555520Y-53770D01*
X557585Y-54625D01*
X560135Y-57175D01*
X561515Y-60507D01*
X561515Y-79193D01*
X560135Y-82525D01*
X557585Y-85075D01*
X554253Y-86455D01*
X550647Y-86455D01*
X547315Y-85075D01*
X544765Y-82525D01*
X543385Y-79193D01*
X543385Y-60507D01*
X544765Y-57175D01*
X547315Y-54625D01*
X549380Y-53770D01*
X549405Y-53756D01*
X549433Y-53746D01*
X549543Y-53677D01*
X549656Y-53613D01*
X549677Y-53592D01*
X549702Y-53576D01*
X549791Y-53482D01*
X549884Y-53391D01*
X549900Y-53366D01*
X549920Y-53345D01*
X549983Y-53231D01*
X550051Y-53120D01*
X550059Y-53092D01*
X550074Y-53066D01*
X550106Y-52940D01*
X550144Y-52816D01*
X550146Y-52787D01*
X550153Y-52758D01*
X550163Y-52598D01*
X550163Y-48006D01*
X550148Y-47888D01*
X550141Y-47769D01*
X550128Y-47731D01*
X550123Y-47690D01*
X550080Y-47580D01*
X550043Y-47467D01*
X550021Y-47432D01*
X550006Y-47395D01*
X549937Y-47299D01*
X549873Y-47198D01*
X549843Y-47170D01*
X549820Y-47137D01*
X549728Y-47061D01*
X549641Y-46980D01*
X549606Y-46960D01*
X549575Y-46935D01*
X549467Y-46884D01*
X549363Y-46826D01*
X549323Y-46816D01*
X549287Y-46799D01*
X549170Y-46777D01*
X549055Y-46747D01*
X548995Y-46743D01*
X548975Y-46739D01*
X548954Y-46741D01*
X548894Y-46737D01*
X435356Y-46737D01*
X435238Y-46752D01*
X435119Y-46759D01*
X435081Y-46772D01*
X435040Y-46777D01*
X434930Y-46820D01*
X434817Y-46857D01*
X434782Y-46879D01*
X434745Y-46894D01*
X434649Y-46963D01*
X434548Y-47027D01*
X434520Y-47057D01*
X434487Y-47080D01*
X434411Y-47172D01*
X434330Y-47259D01*
X434310Y-47294D01*
X434285Y-47325D01*
X434234Y-47433D01*
X434176Y-47537D01*
X434166Y-47577D01*
X434149Y-47613D01*
X434127Y-47730D01*
X434097Y-47845D01*
X434093Y-47905D01*
X434089Y-47925D01*
X434091Y-47946D01*
X434087Y-48006D01*
X434087Y-52598D01*
X434090Y-52627D01*
X434088Y-52656D01*
X434110Y-52784D01*
X434127Y-52913D01*
X434137Y-52940D01*
X434142Y-52970D01*
X434196Y-53088D01*
X434244Y-53209D01*
X434261Y-53233D01*
X434273Y-53260D01*
X434354Y-53361D01*
X434430Y-53466D01*
X434453Y-53485D01*
X434472Y-53508D01*
X434575Y-53586D01*
X434675Y-53669D01*
X434702Y-53681D01*
X434726Y-53699D01*
X434870Y-53770D01*
X436935Y-54625D01*
X439485Y-57175D01*
X440865Y-60507D01*
X440865Y-79193D01*
X439485Y-82525D01*
X436935Y-85075D01*
X433603Y-86455D01*
X429997Y-86455D01*
X426665Y-85075D01*
X424115Y-82525D01*
X422735Y-79193D01*
X422735Y-60507D01*
X424115Y-57175D01*
X426665Y-54625D01*
X428730Y-53770D01*
X428755Y-53756D01*
X428783Y-53746D01*
X428893Y-53677D01*
X429006Y-53613D01*
X429027Y-53592D01*
X429052Y-53576D01*
X429141Y-53482D01*
X429234Y-53391D01*
X429250Y-53366D01*
X429270Y-53345D01*
X429333Y-53231D01*
X429401Y-53120D01*
X429409Y-53092D01*
X429424Y-53066D01*
X429456Y-52940D01*
X429494Y-52816D01*
X429496Y-52787D01*
X429503Y-52758D01*
X429513Y-52598D01*
X429513Y-48260D01*
X429498Y-48142D01*
X429491Y-48023D01*
X429478Y-47985D01*
X429473Y-47944D01*
X429430Y-47834D01*
X429393Y-47721D01*
X429371Y-47686D01*
X429356Y-47649D01*
X429287Y-47553D01*
X429223Y-47452D01*
X429193Y-47424D01*
X429170Y-47391D01*
X429078Y-47315D01*
X428991Y-47234D01*
X428956Y-47214D01*
X428925Y-47189D01*
X428817Y-47138D01*
X428713Y-47080D01*
X428673Y-47070D01*
X428637Y-47053D01*
X428520Y-47031D01*
X428405Y-47001D01*
X428345Y-46997D01*
X428325Y-46993D01*
X428304Y-46995D01*
X428244Y-46991D01*
X340360Y-46991D01*
X340242Y-47006D01*
X340123Y-47013D01*
X340085Y-47026D01*
X340044Y-47031D01*
X339934Y-47074D01*
X339821Y-47111D01*
X339786Y-47133D01*
X339749Y-47148D01*
X339653Y-47217D01*
X339552Y-47281D01*
X339524Y-47311D01*
X339491Y-47334D01*
X339415Y-47426D01*
X339334Y-47513D01*
X339314Y-47548D01*
X339289Y-47579D01*
X339238Y-47687D01*
X339180Y-47791D01*
X339170Y-47831D01*
X339153Y-47867D01*
X339131Y-47984D01*
X339101Y-48099D01*
X339097Y-48160D01*
X339093Y-48179D01*
X339095Y-48200D01*
X339091Y-48260D01*
X339091Y-96302D01*
X337602Y-97791D01*
X185728Y-97791D01*
X185630Y-97803D01*
X185531Y-97806D01*
X185473Y-97823D01*
X185413Y-97831D01*
X185321Y-97867D01*
X185225Y-97895D01*
X185173Y-97925D01*
X185117Y-97948D01*
X185037Y-98006D01*
X184952Y-98056D01*
X184876Y-98122D01*
X184860Y-98134D01*
X184852Y-98144D01*
X184831Y-98162D01*
X180712Y-102281D01*
X180652Y-102359D01*
X180584Y-102431D01*
X180555Y-102484D01*
X180518Y-102532D01*
X180478Y-102623D01*
X180430Y-102710D01*
X180415Y-102768D01*
X180391Y-102824D01*
X180376Y-102922D01*
X180351Y-103017D01*
X180345Y-103118D01*
X180341Y-103138D01*
X180343Y-103150D01*
X180341Y-103178D01*
X180341Y-125781D01*
X180353Y-125879D01*
X180356Y-125978D01*
X180373Y-126037D01*
X180381Y-126097D01*
X180417Y-126189D01*
X180445Y-126284D01*
X180475Y-126336D01*
X180498Y-126392D01*
X180556Y-126472D01*
X180606Y-126558D01*
X180672Y-126633D01*
X180684Y-126650D01*
X180694Y-126657D01*
X180712Y-126679D01*
X184725Y-130692D01*
X184804Y-130752D01*
X184876Y-130820D01*
X184929Y-130849D01*
X184977Y-130886D01*
X185068Y-130926D01*
X185154Y-130974D01*
X185213Y-130989D01*
X185269Y-131013D01*
X185367Y-131028D01*
X185462Y-131053D01*
X185562Y-131059D01*
X185583Y-131063D01*
X185595Y-131061D01*
X185623Y-131063D01*
X187452Y-131063D01*
X187570Y-131048D01*
X187689Y-131041D01*
X187727Y-131028D01*
X187768Y-131023D01*
X187878Y-130980D01*
X187991Y-130943D01*
X188026Y-130921D01*
X188063Y-130906D01*
X188159Y-130837D01*
X188260Y-130773D01*
X188288Y-130743D01*
X188321Y-130720D01*
X188397Y-130628D01*
X188478Y-130541D01*
X188498Y-130506D01*
X188523Y-130475D01*
X188574Y-130367D01*
X188632Y-130263D01*
X188642Y-130223D01*
X188659Y-130187D01*
X188681Y-130070D01*
X188698Y-130007D01*
X193483Y-125221D01*
X200217Y-125221D01*
X204979Y-129983D01*
X204979Y-136717D01*
X200217Y-141479D01*
X193483Y-141479D01*
X188701Y-136696D01*
X188699Y-136669D01*
X188686Y-136631D01*
X188681Y-136590D01*
X188638Y-136480D01*
X188601Y-136367D01*
X188579Y-136332D01*
X188564Y-136295D01*
X188495Y-136199D01*
X188431Y-136098D01*
X188401Y-136070D01*
X188378Y-136037D01*
X188286Y-135961D01*
X188199Y-135880D01*
X188164Y-135860D01*
X188133Y-135835D01*
X188025Y-135784D01*
X187921Y-135726D01*
X187881Y-135716D01*
X187845Y-135699D01*
X187728Y-135677D01*
X187613Y-135647D01*
X187553Y-135643D01*
X187533Y-135639D01*
X187512Y-135641D01*
X187452Y-135637D01*
X183203Y-135637D01*
X177479Y-129912D01*
X177400Y-129852D01*
X177328Y-129784D01*
X177275Y-129755D01*
X177227Y-129718D01*
X177136Y-129678D01*
X177050Y-129630D01*
X176991Y-129615D01*
X176935Y-129591D01*
X176837Y-129576D01*
X176763Y-129557D01*
X175259Y-128052D01*
X175259Y-100548D01*
X183098Y-92709D01*
X332740Y-92709D01*
X332858Y-92694D01*
X332977Y-92687D01*
X333015Y-92674D01*
X333056Y-92669D01*
X333166Y-92626D01*
X333279Y-92589D01*
X333314Y-92567D01*
X333351Y-92552D01*
X333447Y-92483D01*
X333548Y-92419D01*
X333576Y-92389D01*
X333609Y-92366D01*
X333685Y-92274D01*
X333766Y-92187D01*
X333786Y-92152D01*
X333811Y-92121D01*
X333862Y-92013D01*
X333920Y-91909D01*
X333930Y-91869D01*
X333947Y-91833D01*
X333969Y-91716D01*
X333999Y-91601D01*
X334003Y-91541D01*
X334007Y-91521D01*
X334005Y-91500D01*
X334009Y-91440D01*
X334009Y-43398D01*
X335498Y-41909D01*
X432874Y-41909D01*
X432885Y-41920D01*
X432938Y-41949D01*
X432986Y-41986D01*
X433077Y-42026D01*
X433164Y-42074D01*
X433222Y-42089D01*
X433278Y-42113D01*
X433376Y-42128D01*
X433471Y-42153D01*
X433572Y-42159D01*
X433592Y-42163D01*
X433604Y-42161D01*
X433632Y-42163D01*
X667697Y-42163D01*
X675387Y-49853D01*
X675387Y-52598D01*
X675390Y-52627D01*
X675388Y-52656D01*
X675410Y-52784D01*
X675427Y-52913D01*
X675437Y-52940D01*
X675442Y-52970D01*
X675496Y-53088D01*
X675544Y-53209D01*
X675561Y-53233D01*
X675573Y-53260D01*
X675654Y-53361D01*
X675730Y-53466D01*
X675753Y-53485D01*
X675772Y-53508D01*
X675875Y-53586D01*
X675975Y-53669D01*
X676002Y-53681D01*
X676026Y-53699D01*
X676170Y-53770D01*
X678235Y-54625D01*
X680785Y-57175D01*
X682165Y-60507D01*
X682165Y-79193D01*
X680785Y-82525D01*
X678235Y-85075D01*
X676678Y-85719D01*
X676653Y-85734D01*
X676625Y-85743D01*
X676515Y-85813D01*
X676402Y-85877D01*
X676381Y-85898D01*
X676356Y-85913D01*
X676267Y-86008D01*
X676174Y-86098D01*
X676158Y-86123D01*
X676138Y-86145D01*
X676075Y-86259D01*
X676007Y-86369D01*
X675999Y-86398D01*
X675984Y-86423D01*
X675952Y-86549D01*
X675914Y-86673D01*
X675912Y-86703D01*
X675905Y-86731D01*
X675895Y-86892D01*
X675895Y-121808D01*
X661558Y-136145D01*
X634492Y-136145D01*
X634374Y-136160D01*
X634255Y-136167D01*
X634217Y-136180D01*
X634176Y-136185D01*
X634066Y-136228D01*
X633953Y-136265D01*
X633918Y-136287D01*
X633881Y-136302D01*
X633785Y-136371D01*
X633684Y-136435D01*
X633656Y-136465D01*
X633623Y-136488D01*
X633547Y-136580D01*
X633466Y-136667D01*
X633446Y-136702D01*
X633421Y-136733D01*
X633370Y-136841D01*
X633312Y-136945D01*
X633302Y-136985D01*
X633285Y-137021D01*
X633263Y-137138D01*
X633233Y-137253D01*
X633229Y-137313D01*
X633225Y-137333D01*
X633227Y-137354D01*
X633223Y-137414D01*
X633223Y-146855D01*
X623105Y-156973D01*
X608795Y-156973D01*
G37*
%LPD*%
%LPC*%
G36*
X284945Y-493523D02*
X284945Y-493523D01*
X274827Y-483405D01*
X274827Y-469095D01*
X284945Y-458977D01*
X299255Y-458977D01*
X301440Y-461163D01*
X301534Y-461236D01*
X301623Y-461314D01*
X301659Y-461333D01*
X301691Y-461358D01*
X301801Y-461405D01*
X301907Y-461459D01*
X301946Y-461468D01*
X301983Y-461484D01*
X302101Y-461503D01*
X302217Y-461529D01*
X302257Y-461527D01*
X302297Y-461534D01*
X302416Y-461523D01*
X302535Y-461519D01*
X302574Y-461508D01*
X302614Y-461504D01*
X302726Y-461464D01*
X302840Y-461431D01*
X302875Y-461410D01*
X302913Y-461396D01*
X303012Y-461330D01*
X303114Y-461269D01*
X303159Y-461229D01*
X303176Y-461218D01*
X303190Y-461202D01*
X303235Y-461163D01*
X303642Y-460755D01*
X332486Y-460755D01*
X332604Y-460740D01*
X332723Y-460733D01*
X332761Y-460720D01*
X332802Y-460715D01*
X332912Y-460672D01*
X333025Y-460635D01*
X333060Y-460613D01*
X333097Y-460598D01*
X333193Y-460529D01*
X333294Y-460465D01*
X333322Y-460435D01*
X333355Y-460412D01*
X333431Y-460320D01*
X333512Y-460233D01*
X333532Y-460198D01*
X333557Y-460167D01*
X333608Y-460059D01*
X333666Y-459955D01*
X333676Y-459915D01*
X333693Y-459879D01*
X333715Y-459762D01*
X333745Y-459647D01*
X333749Y-459587D01*
X333753Y-459567D01*
X333751Y-459546D01*
X333755Y-459486D01*
X333755Y-430686D01*
X333743Y-430588D01*
X333740Y-430489D01*
X333723Y-430430D01*
X333715Y-430370D01*
X333679Y-430278D01*
X333651Y-430183D01*
X333621Y-430131D01*
X333598Y-430075D01*
X333540Y-429995D01*
X333490Y-429909D01*
X333424Y-429834D01*
X333412Y-429817D01*
X333402Y-429810D01*
X333384Y-429788D01*
X332051Y-428456D01*
X331243Y-426506D01*
X331243Y-424394D01*
X332051Y-422444D01*
X333544Y-420951D01*
X335494Y-420143D01*
X337606Y-420143D01*
X339556Y-420951D01*
X341049Y-422444D01*
X341857Y-424394D01*
X341857Y-426506D01*
X341049Y-428456D01*
X339716Y-429788D01*
X339656Y-429867D01*
X339588Y-429939D01*
X339559Y-429992D01*
X339522Y-430040D01*
X339482Y-430131D01*
X339434Y-430217D01*
X339419Y-430276D01*
X339395Y-430332D01*
X339380Y-430429D01*
X339355Y-430525D01*
X339349Y-430625D01*
X339345Y-430646D01*
X339347Y-430658D01*
X339345Y-430686D01*
X339345Y-459486D01*
X339360Y-459604D01*
X339367Y-459723D01*
X339380Y-459761D01*
X339385Y-459802D01*
X339428Y-459912D01*
X339465Y-460025D01*
X339487Y-460060D01*
X339502Y-460097D01*
X339571Y-460193D01*
X339635Y-460294D01*
X339665Y-460322D01*
X339688Y-460355D01*
X339780Y-460431D01*
X339867Y-460512D01*
X339902Y-460532D01*
X339933Y-460557D01*
X340041Y-460608D01*
X340145Y-460666D01*
X340185Y-460676D01*
X340221Y-460693D01*
X340338Y-460715D01*
X340453Y-460745D01*
X340513Y-460749D01*
X340533Y-460753D01*
X340554Y-460751D01*
X340614Y-460755D01*
X480917Y-460755D01*
X481015Y-460743D01*
X481114Y-460740D01*
X481172Y-460723D01*
X481232Y-460715D01*
X481324Y-460679D01*
X481419Y-460651D01*
X481472Y-460621D01*
X481528Y-460598D01*
X481608Y-460540D01*
X481693Y-460490D01*
X481769Y-460424D01*
X481785Y-460412D01*
X481793Y-460402D01*
X481814Y-460384D01*
X518006Y-424191D01*
X518024Y-424168D01*
X518047Y-424149D01*
X518121Y-424043D01*
X518201Y-423940D01*
X518213Y-423913D01*
X518230Y-423889D01*
X518276Y-423768D01*
X518328Y-423648D01*
X518332Y-423619D01*
X518343Y-423591D01*
X518357Y-423462D01*
X518377Y-423334D01*
X518375Y-423305D01*
X518378Y-423275D01*
X518360Y-423147D01*
X518348Y-423018D01*
X518338Y-422990D01*
X518334Y-422960D01*
X518281Y-422808D01*
X517985Y-422093D01*
X517985Y-403407D01*
X519365Y-400075D01*
X521915Y-397525D01*
X525247Y-396145D01*
X528853Y-396145D01*
X532185Y-397525D01*
X534735Y-400075D01*
X536115Y-403407D01*
X536115Y-422093D01*
X534735Y-425425D01*
X532185Y-427975D01*
X528853Y-429355D01*
X525247Y-429355D01*
X522849Y-428361D01*
X522821Y-428354D01*
X522794Y-428340D01*
X522667Y-428312D01*
X522542Y-428278D01*
X522513Y-428277D01*
X522484Y-428271D01*
X522354Y-428275D01*
X522224Y-428272D01*
X522196Y-428279D01*
X522166Y-428280D01*
X522041Y-428316D01*
X521915Y-428347D01*
X521889Y-428360D01*
X521861Y-428369D01*
X521749Y-428435D01*
X521634Y-428495D01*
X521612Y-428515D01*
X521587Y-428530D01*
X521466Y-428637D01*
X483758Y-466345D01*
X309686Y-466345D01*
X309548Y-466362D01*
X309410Y-466375D01*
X309391Y-466382D01*
X309371Y-466385D01*
X309242Y-466436D01*
X309111Y-466483D01*
X309094Y-466494D01*
X309075Y-466502D01*
X308963Y-466583D01*
X308847Y-466661D01*
X308834Y-466677D01*
X308818Y-466688D01*
X308729Y-466796D01*
X308637Y-466900D01*
X308628Y-466918D01*
X308615Y-466933D01*
X308556Y-467059D01*
X308492Y-467183D01*
X308488Y-467203D01*
X308479Y-467221D01*
X308453Y-467358D01*
X308423Y-467493D01*
X308423Y-467514D01*
X308420Y-467533D01*
X308428Y-467672D01*
X308432Y-467811D01*
X308438Y-467831D01*
X308439Y-467851D01*
X308482Y-467983D01*
X308521Y-468117D01*
X308531Y-468134D01*
X308537Y-468153D01*
X308612Y-468271D01*
X308682Y-468391D01*
X308701Y-468412D01*
X308708Y-468422D01*
X308722Y-468436D01*
X308789Y-468511D01*
X309373Y-469095D01*
X309373Y-483405D01*
X299255Y-493523D01*
X284945Y-493523D01*
G37*
%LPD*%
%LPC*%
G36*
X644707Y-256715D02*
X644707Y-256715D01*
X641375Y-255335D01*
X638825Y-252785D01*
X637445Y-249453D01*
X637445Y-245847D01*
X638825Y-242515D01*
X640997Y-240344D01*
X641070Y-240250D01*
X641148Y-240161D01*
X641167Y-240125D01*
X641192Y-240093D01*
X641239Y-239983D01*
X641293Y-239877D01*
X641302Y-239838D01*
X641318Y-239801D01*
X641337Y-239683D01*
X641363Y-239567D01*
X641361Y-239527D01*
X641368Y-239487D01*
X641357Y-239368D01*
X641353Y-239249D01*
X641342Y-239210D01*
X641338Y-239170D01*
X641298Y-239058D01*
X641265Y-238944D01*
X641244Y-238909D01*
X641230Y-238871D01*
X641163Y-238772D01*
X641103Y-238670D01*
X641064Y-238625D01*
X641062Y-238623D01*
X641061Y-238622D01*
X641052Y-238608D01*
X641036Y-238594D01*
X640997Y-238549D01*
X633706Y-231258D01*
X633628Y-231198D01*
X633556Y-231130D01*
X633503Y-231101D01*
X633455Y-231064D01*
X633364Y-231024D01*
X633277Y-230976D01*
X633219Y-230961D01*
X633163Y-230937D01*
X633065Y-230922D01*
X632969Y-230897D01*
X632869Y-230891D01*
X632849Y-230887D01*
X632837Y-230889D01*
X632809Y-230887D01*
X602303Y-230887D01*
X575563Y-204147D01*
X575563Y-179991D01*
X575551Y-179893D01*
X575548Y-179794D01*
X575531Y-179736D01*
X575523Y-179676D01*
X575487Y-179584D01*
X575459Y-179489D01*
X575429Y-179436D01*
X575406Y-179380D01*
X575348Y-179300D01*
X575298Y-179215D01*
X575232Y-179139D01*
X575220Y-179123D01*
X575210Y-179115D01*
X575192Y-179094D01*
X575055Y-178958D01*
X575055Y-176642D01*
X575192Y-176506D01*
X575252Y-176428D01*
X575320Y-176356D01*
X575349Y-176303D01*
X575386Y-176255D01*
X575426Y-176164D01*
X575474Y-176077D01*
X575489Y-176019D01*
X575513Y-175963D01*
X575528Y-175865D01*
X575553Y-175769D01*
X575559Y-175669D01*
X575563Y-175649D01*
X575561Y-175637D01*
X575563Y-175609D01*
X575563Y-111506D01*
X575548Y-111388D01*
X575541Y-111269D01*
X575528Y-111231D01*
X575523Y-111190D01*
X575480Y-111080D01*
X575443Y-110967D01*
X575421Y-110932D01*
X575406Y-110895D01*
X575337Y-110799D01*
X575273Y-110698D01*
X575243Y-110670D01*
X575220Y-110637D01*
X575128Y-110561D01*
X575041Y-110480D01*
X575006Y-110460D01*
X574975Y-110435D01*
X574867Y-110384D01*
X574763Y-110326D01*
X574723Y-110316D01*
X574687Y-110299D01*
X574570Y-110277D01*
X574455Y-110247D01*
X574395Y-110243D01*
X574375Y-110239D01*
X574354Y-110241D01*
X574294Y-110237D01*
X492506Y-110237D01*
X492388Y-110252D01*
X492269Y-110259D01*
X492231Y-110272D01*
X492190Y-110277D01*
X492080Y-110320D01*
X491967Y-110357D01*
X491932Y-110379D01*
X491895Y-110394D01*
X491799Y-110463D01*
X491698Y-110527D01*
X491670Y-110557D01*
X491637Y-110580D01*
X491561Y-110672D01*
X491480Y-110759D01*
X491460Y-110794D01*
X491435Y-110825D01*
X491384Y-110933D01*
X491326Y-111037D01*
X491316Y-111077D01*
X491299Y-111113D01*
X491277Y-111230D01*
X491247Y-111345D01*
X491243Y-111405D01*
X491239Y-111425D01*
X491241Y-111446D01*
X491237Y-111506D01*
X491237Y-118047D01*
X491240Y-118076D01*
X491238Y-118105D01*
X491260Y-118233D01*
X491277Y-118362D01*
X491287Y-118390D01*
X491292Y-118419D01*
X491346Y-118537D01*
X491394Y-118658D01*
X491411Y-118682D01*
X491423Y-118709D01*
X491504Y-118810D01*
X491580Y-118915D01*
X491603Y-118934D01*
X491622Y-118957D01*
X491725Y-119035D01*
X491825Y-119118D01*
X491852Y-119131D01*
X491876Y-119148D01*
X492020Y-119219D01*
X493555Y-119855D01*
X495841Y-122141D01*
X497079Y-125129D01*
X497079Y-141571D01*
X495841Y-144559D01*
X493555Y-146845D01*
X490567Y-148083D01*
X487333Y-148083D01*
X484345Y-146845D01*
X482059Y-144559D01*
X480821Y-141571D01*
X480821Y-125129D01*
X482059Y-122141D01*
X484345Y-119855D01*
X485880Y-119219D01*
X485905Y-119205D01*
X485933Y-119196D01*
X486043Y-119126D01*
X486156Y-119062D01*
X486177Y-119041D01*
X486202Y-119025D01*
X486291Y-118931D01*
X486384Y-118840D01*
X486400Y-118815D01*
X486420Y-118794D01*
X486483Y-118680D01*
X486551Y-118569D01*
X486559Y-118541D01*
X486574Y-118515D01*
X486606Y-118390D01*
X486644Y-118265D01*
X486646Y-118236D01*
X486653Y-118207D01*
X486663Y-118047D01*
X486663Y-107003D01*
X488003Y-105663D01*
X578797Y-105663D01*
X580137Y-107003D01*
X580137Y-173736D01*
X580152Y-173854D01*
X580159Y-173973D01*
X580172Y-174011D01*
X580177Y-174052D01*
X580220Y-174162D01*
X580257Y-174275D01*
X580279Y-174310D01*
X580294Y-174347D01*
X580363Y-174443D01*
X580427Y-174544D01*
X580457Y-174572D01*
X580480Y-174605D01*
X580572Y-174681D01*
X580659Y-174762D01*
X580694Y-174782D01*
X580725Y-174807D01*
X580833Y-174858D01*
X580937Y-174916D01*
X580977Y-174926D01*
X581013Y-174943D01*
X581130Y-174965D01*
X581245Y-174995D01*
X581305Y-174999D01*
X581325Y-175003D01*
X581346Y-175001D01*
X581406Y-175005D01*
X594023Y-175005D01*
X594121Y-174993D01*
X594220Y-174990D01*
X594279Y-174973D01*
X594339Y-174965D01*
X594431Y-174929D01*
X594526Y-174901D01*
X594578Y-174871D01*
X594634Y-174848D01*
X594714Y-174790D01*
X594800Y-174740D01*
X594875Y-174674D01*
X594892Y-174662D01*
X594900Y-174652D01*
X594921Y-174634D01*
X599883Y-169671D01*
X606617Y-169671D01*
X611379Y-174433D01*
X611379Y-181167D01*
X606617Y-185929D01*
X599883Y-185929D01*
X594921Y-180966D01*
X594842Y-180906D01*
X594770Y-180838D01*
X594717Y-180809D01*
X594669Y-180772D01*
X594578Y-180732D01*
X594492Y-180684D01*
X594433Y-180669D01*
X594378Y-180645D01*
X594280Y-180630D01*
X594184Y-180605D01*
X594084Y-180599D01*
X594064Y-180595D01*
X594051Y-180597D01*
X594023Y-180595D01*
X581406Y-180595D01*
X581288Y-180610D01*
X581169Y-180617D01*
X581131Y-180630D01*
X581090Y-180635D01*
X580980Y-180678D01*
X580867Y-180715D01*
X580832Y-180737D01*
X580795Y-180752D01*
X580699Y-180821D01*
X580598Y-180885D01*
X580570Y-180915D01*
X580537Y-180938D01*
X580461Y-181030D01*
X580380Y-181117D01*
X580360Y-181152D01*
X580335Y-181183D01*
X580284Y-181291D01*
X580226Y-181395D01*
X580216Y-181435D01*
X580199Y-181471D01*
X580177Y-181588D01*
X580147Y-181703D01*
X580143Y-181764D01*
X580139Y-181783D01*
X580141Y-181804D01*
X580137Y-181864D01*
X580137Y-201727D01*
X580149Y-201825D01*
X580152Y-201924D01*
X580169Y-201982D01*
X580177Y-202043D01*
X580213Y-202135D01*
X580241Y-202230D01*
X580271Y-202282D01*
X580294Y-202338D01*
X580352Y-202418D01*
X580402Y-202504D01*
X580468Y-202579D01*
X580480Y-202596D01*
X580490Y-202603D01*
X580508Y-202625D01*
X603825Y-225942D01*
X603904Y-226002D01*
X603976Y-226070D01*
X604029Y-226099D01*
X604077Y-226136D01*
X604168Y-226176D01*
X604254Y-226224D01*
X604313Y-226239D01*
X604369Y-226263D01*
X604467Y-226278D01*
X604562Y-226303D01*
X604662Y-226309D01*
X604683Y-226313D01*
X604695Y-226311D01*
X604723Y-226313D01*
X632809Y-226313D01*
X632907Y-226301D01*
X633006Y-226298D01*
X633064Y-226281D01*
X633124Y-226273D01*
X633216Y-226237D01*
X633311Y-226209D01*
X633364Y-226179D01*
X633420Y-226156D01*
X633500Y-226098D01*
X633585Y-226048D01*
X633661Y-225982D01*
X633677Y-225970D01*
X633685Y-225960D01*
X633706Y-225942D01*
X633842Y-225805D01*
X636158Y-225805D01*
X648566Y-238214D01*
X648644Y-238274D01*
X648716Y-238342D01*
X648769Y-238371D01*
X648817Y-238408D01*
X648908Y-238448D01*
X648995Y-238496D01*
X649053Y-238511D01*
X649109Y-238535D01*
X649207Y-238550D01*
X649303Y-238575D01*
X649403Y-238581D01*
X649423Y-238585D01*
X649435Y-238583D01*
X649463Y-238585D01*
X663393Y-238585D01*
X666725Y-239965D01*
X669275Y-242515D01*
X670655Y-245847D01*
X670655Y-249453D01*
X669275Y-252785D01*
X666725Y-255335D01*
X663393Y-256715D01*
X644707Y-256715D01*
G37*
%LPD*%
%LPC*%
G36*
X396539Y-318771D02*
X396539Y-318771D01*
X389755Y-316953D01*
X383674Y-313442D01*
X378708Y-308476D01*
X375197Y-302395D01*
X373379Y-295611D01*
X373379Y-288589D01*
X375197Y-281805D01*
X378708Y-275724D01*
X383674Y-270758D01*
X389755Y-267247D01*
X396539Y-265429D01*
X403561Y-265429D01*
X410345Y-267247D01*
X416426Y-270758D01*
X421392Y-275724D01*
X424903Y-281805D01*
X426721Y-288589D01*
X426721Y-295611D01*
X424903Y-302395D01*
X421392Y-308476D01*
X416426Y-313442D01*
X410345Y-316953D01*
X403561Y-318771D01*
X396539Y-318771D01*
G37*
%LPD*%
%LPC*%
G36*
X85389Y-447295D02*
X85389Y-447295D01*
X78605Y-445477D01*
X72524Y-441966D01*
X67558Y-437000D01*
X64047Y-430919D01*
X62229Y-424135D01*
X62229Y-417113D01*
X64047Y-410329D01*
X67558Y-404248D01*
X72524Y-399282D01*
X78605Y-395771D01*
X85389Y-393953D01*
X92411Y-393953D01*
X99195Y-395771D01*
X105276Y-399282D01*
X110242Y-404248D01*
X113753Y-410329D01*
X115571Y-417113D01*
X115571Y-424135D01*
X113753Y-430919D01*
X110242Y-437000D01*
X105276Y-441966D01*
X99195Y-445477D01*
X92411Y-447295D01*
X85389Y-447295D01*
G37*
%LPD*%
%LPC*%
G36*
X85389Y-114047D02*
X85389Y-114047D01*
X78605Y-112229D01*
X72524Y-108718D01*
X67558Y-103752D01*
X64047Y-97671D01*
X62229Y-90887D01*
X62229Y-83865D01*
X64047Y-77081D01*
X67558Y-71000D01*
X72524Y-66034D01*
X78605Y-62523D01*
X85389Y-60705D01*
X92411Y-60705D01*
X99195Y-62523D01*
X105276Y-66034D01*
X110242Y-71000D01*
X113753Y-77081D01*
X115571Y-83865D01*
X115571Y-90887D01*
X113753Y-97671D01*
X110242Y-103752D01*
X105276Y-108718D01*
X99195Y-112229D01*
X92411Y-114047D01*
X85389Y-114047D01*
G37*
%LPD*%
%LPC*%
G36*
X644707Y-282115D02*
X644707Y-282115D01*
X641375Y-280735D01*
X638825Y-278185D01*
X638181Y-276628D01*
X638166Y-276603D01*
X638157Y-276575D01*
X638087Y-276465D01*
X638023Y-276352D01*
X638002Y-276331D01*
X637987Y-276306D01*
X637892Y-276217D01*
X637802Y-276124D01*
X637777Y-276108D01*
X637755Y-276088D01*
X637641Y-276025D01*
X637531Y-275957D01*
X637502Y-275949D01*
X637477Y-275934D01*
X637351Y-275902D01*
X637227Y-275864D01*
X637197Y-275862D01*
X637169Y-275855D01*
X637008Y-275845D01*
X621142Y-275845D01*
X619134Y-273836D01*
X577064Y-231766D01*
X576986Y-231706D01*
X576914Y-231638D01*
X576861Y-231609D01*
X576813Y-231572D01*
X576722Y-231532D01*
X576635Y-231484D01*
X576577Y-231469D01*
X576521Y-231445D01*
X576423Y-231430D01*
X576327Y-231405D01*
X576227Y-231399D01*
X576207Y-231395D01*
X576195Y-231397D01*
X576167Y-231395D01*
X544986Y-231395D01*
X544888Y-231407D01*
X544789Y-231410D01*
X544730Y-231427D01*
X544670Y-231435D01*
X544578Y-231471D01*
X544483Y-231499D01*
X544431Y-231529D01*
X544375Y-231552D01*
X544295Y-231610D01*
X544209Y-231660D01*
X544134Y-231726D01*
X544117Y-231738D01*
X544110Y-231748D01*
X544088Y-231766D01*
X542756Y-233099D01*
X540806Y-233907D01*
X538694Y-233907D01*
X536744Y-233099D01*
X535251Y-231606D01*
X534443Y-229656D01*
X534443Y-227544D01*
X535251Y-225594D01*
X536744Y-224101D01*
X538694Y-223293D01*
X540806Y-223293D01*
X542756Y-224101D01*
X544088Y-225434D01*
X544167Y-225494D01*
X544239Y-225562D01*
X544292Y-225591D01*
X544340Y-225628D01*
X544431Y-225668D01*
X544517Y-225716D01*
X544576Y-225731D01*
X544632Y-225755D01*
X544729Y-225770D01*
X544825Y-225795D01*
X544925Y-225801D01*
X544946Y-225805D01*
X544958Y-225803D01*
X544986Y-225805D01*
X579008Y-225805D01*
X581016Y-227814D01*
X623086Y-269884D01*
X623164Y-269944D01*
X623236Y-270012D01*
X623289Y-270041D01*
X623337Y-270078D01*
X623428Y-270118D01*
X623515Y-270166D01*
X623573Y-270181D01*
X623629Y-270205D01*
X623727Y-270220D01*
X623823Y-270245D01*
X623923Y-270251D01*
X623943Y-270255D01*
X623955Y-270253D01*
X623983Y-270255D01*
X637008Y-270255D01*
X637037Y-270252D01*
X637067Y-270254D01*
X637195Y-270232D01*
X637323Y-270215D01*
X637351Y-270205D01*
X637380Y-270200D01*
X637499Y-270146D01*
X637619Y-270098D01*
X637643Y-270081D01*
X637670Y-270069D01*
X637771Y-269988D01*
X637876Y-269912D01*
X637895Y-269889D01*
X637918Y-269870D01*
X637996Y-269767D01*
X638079Y-269667D01*
X638092Y-269640D01*
X638110Y-269616D01*
X638181Y-269472D01*
X638825Y-267915D01*
X641375Y-265365D01*
X644707Y-263985D01*
X663393Y-263985D01*
X666725Y-265365D01*
X669275Y-267915D01*
X670655Y-271247D01*
X670655Y-274853D01*
X669275Y-278185D01*
X666725Y-280735D01*
X663393Y-282115D01*
X644707Y-282115D01*
G37*
%LPD*%
%LPC*%
G36*
X303995Y-87123D02*
X303995Y-87123D01*
X293877Y-77005D01*
X293877Y-62695D01*
X303995Y-52577D01*
X318305Y-52577D01*
X328423Y-62695D01*
X328423Y-77005D01*
X318305Y-87123D01*
X303995Y-87123D01*
G37*
%LPD*%
%LPC*%
G36*
X501649Y-314961D02*
X501649Y-314961D01*
X501649Y-313690D01*
X501634Y-313572D01*
X501627Y-313453D01*
X501614Y-313415D01*
X501609Y-313374D01*
X501565Y-313264D01*
X501529Y-313151D01*
X501507Y-313116D01*
X501492Y-313079D01*
X501422Y-312983D01*
X501359Y-312882D01*
X501329Y-312854D01*
X501305Y-312821D01*
X501214Y-312746D01*
X501127Y-312664D01*
X501092Y-312644D01*
X501060Y-312619D01*
X500953Y-312568D01*
X500848Y-312510D01*
X500809Y-312500D01*
X500773Y-312483D01*
X500656Y-312461D01*
X500541Y-312431D01*
X500480Y-312427D01*
X500460Y-312423D01*
X500440Y-312425D01*
X500380Y-312421D01*
X482611Y-312421D01*
X482614Y-312402D01*
X483145Y-310767D01*
X483926Y-309235D01*
X484937Y-307844D01*
X486152Y-306629D01*
X487543Y-305618D01*
X489075Y-304837D01*
X490727Y-304301D01*
X490830Y-304271D01*
X490956Y-304241D01*
X490982Y-304227D01*
X491011Y-304218D01*
X491123Y-304152D01*
X491237Y-304092D01*
X491259Y-304072D01*
X491285Y-304056D01*
X491377Y-303965D01*
X491472Y-303878D01*
X491489Y-303853D01*
X491510Y-303832D01*
X491576Y-303720D01*
X491647Y-303612D01*
X491657Y-303584D01*
X491672Y-303558D01*
X491708Y-303434D01*
X491750Y-303312D01*
X491752Y-303281D01*
X491761Y-303253D01*
X491765Y-303124D01*
X491775Y-302995D01*
X491770Y-302965D01*
X491771Y-302935D01*
X491743Y-302809D01*
X491721Y-302681D01*
X491708Y-302654D01*
X491702Y-302624D01*
X491643Y-302509D01*
X491590Y-302391D01*
X491571Y-302368D01*
X491558Y-302341D01*
X491473Y-302244D01*
X491392Y-302143D01*
X491368Y-302125D01*
X491348Y-302102D01*
X491241Y-302029D01*
X491138Y-301952D01*
X491099Y-301933D01*
X491085Y-301923D01*
X491064Y-301916D01*
X490993Y-301881D01*
X487656Y-300499D01*
X484869Y-297712D01*
X483361Y-294071D01*
X483361Y-290129D01*
X484869Y-286488D01*
X487656Y-283701D01*
X491297Y-282193D01*
X512003Y-282193D01*
X515644Y-283701D01*
X518431Y-286488D01*
X519939Y-290129D01*
X519939Y-294071D01*
X518431Y-297712D01*
X515644Y-300499D01*
X512307Y-301881D01*
X512195Y-301945D01*
X512079Y-302003D01*
X512057Y-302023D01*
X512031Y-302038D01*
X511938Y-302128D01*
X511841Y-302214D01*
X511824Y-302239D01*
X511802Y-302259D01*
X511735Y-302369D01*
X511662Y-302477D01*
X511652Y-302505D01*
X511636Y-302531D01*
X511598Y-302654D01*
X511554Y-302776D01*
X511551Y-302806D01*
X511542Y-302835D01*
X511536Y-302963D01*
X511524Y-303092D01*
X511529Y-303122D01*
X511527Y-303152D01*
X511553Y-303279D01*
X511574Y-303406D01*
X511585Y-303434D01*
X511592Y-303464D01*
X511649Y-303580D01*
X511700Y-303698D01*
X511718Y-303722D01*
X511731Y-303749D01*
X511815Y-303848D01*
X511894Y-303950D01*
X511918Y-303968D01*
X511938Y-303991D01*
X512043Y-304066D01*
X512145Y-304145D01*
X512173Y-304157D01*
X512198Y-304174D01*
X512319Y-304220D01*
X512437Y-304272D01*
X512479Y-304281D01*
X512495Y-304287D01*
X512517Y-304290D01*
X512587Y-304305D01*
X514225Y-304837D01*
X515757Y-305618D01*
X517148Y-306629D01*
X518363Y-307844D01*
X519374Y-309235D01*
X520155Y-310767D01*
X520686Y-312402D01*
X520689Y-312421D01*
X502920Y-312421D01*
X502802Y-312436D01*
X502683Y-312443D01*
X502645Y-312456D01*
X502605Y-312461D01*
X502494Y-312504D01*
X502381Y-312541D01*
X502347Y-312563D01*
X502309Y-312578D01*
X502213Y-312648D01*
X502112Y-312711D01*
X502084Y-312741D01*
X502052Y-312764D01*
X501976Y-312856D01*
X501894Y-312943D01*
X501875Y-312978D01*
X501849Y-313009D01*
X501798Y-313117D01*
X501741Y-313221D01*
X501730Y-313261D01*
X501713Y-313297D01*
X501691Y-313414D01*
X501661Y-313529D01*
X501657Y-313590D01*
X501653Y-313610D01*
X501655Y-313630D01*
X501651Y-313690D01*
X501651Y-314961D01*
X501649Y-314961D01*
G37*
%LPD*%
%LPC*%
G36*
X193483Y-224029D02*
X193483Y-224029D01*
X188521Y-219066D01*
X188442Y-219006D01*
X188370Y-218938D01*
X188317Y-218909D01*
X188269Y-218872D01*
X188178Y-218832D01*
X188092Y-218784D01*
X188033Y-218769D01*
X187978Y-218745D01*
X187880Y-218730D01*
X187784Y-218705D01*
X187684Y-218699D01*
X187664Y-218695D01*
X187651Y-218697D01*
X187623Y-218695D01*
X182992Y-218695D01*
X162305Y-198008D01*
X162305Y-125886D01*
X162293Y-125788D01*
X162290Y-125689D01*
X162273Y-125630D01*
X162265Y-125570D01*
X162229Y-125478D01*
X162201Y-125383D01*
X162171Y-125331D01*
X162148Y-125275D01*
X162090Y-125195D01*
X162040Y-125109D01*
X161974Y-125034D01*
X161962Y-125017D01*
X161952Y-125010D01*
X161934Y-124988D01*
X160601Y-123656D01*
X159793Y-121706D01*
X159793Y-119594D01*
X160601Y-117644D01*
X162094Y-116151D01*
X164044Y-115343D01*
X166156Y-115343D01*
X168106Y-116151D01*
X169599Y-117644D01*
X170407Y-119594D01*
X170407Y-121706D01*
X169599Y-123656D01*
X168266Y-124988D01*
X168206Y-125067D01*
X168138Y-125139D01*
X168109Y-125192D01*
X168072Y-125240D01*
X168032Y-125331D01*
X167984Y-125417D01*
X167969Y-125476D01*
X167945Y-125532D01*
X167930Y-125629D01*
X167905Y-125725D01*
X167899Y-125825D01*
X167895Y-125846D01*
X167897Y-125858D01*
X167895Y-125886D01*
X167895Y-195167D01*
X167907Y-195265D01*
X167910Y-195364D01*
X167927Y-195422D01*
X167935Y-195482D01*
X167971Y-195574D01*
X167999Y-195669D01*
X168029Y-195722D01*
X168052Y-195778D01*
X168110Y-195858D01*
X168160Y-195943D01*
X168226Y-196019D01*
X168238Y-196035D01*
X168248Y-196043D01*
X168266Y-196064D01*
X184936Y-212734D01*
X185014Y-212794D01*
X185086Y-212862D01*
X185139Y-212891D01*
X185187Y-212928D01*
X185278Y-212968D01*
X185365Y-213016D01*
X185423Y-213031D01*
X185479Y-213055D01*
X185577Y-213070D01*
X185673Y-213095D01*
X185773Y-213101D01*
X185793Y-213105D01*
X185805Y-213103D01*
X185833Y-213105D01*
X187623Y-213105D01*
X187721Y-213093D01*
X187820Y-213090D01*
X187879Y-213073D01*
X187939Y-213065D01*
X188031Y-213029D01*
X188126Y-213001D01*
X188178Y-212971D01*
X188234Y-212948D01*
X188314Y-212890D01*
X188400Y-212840D01*
X188475Y-212774D01*
X188492Y-212762D01*
X188500Y-212752D01*
X188521Y-212734D01*
X193483Y-207771D01*
X200217Y-207771D01*
X204979Y-212533D01*
X204979Y-219267D01*
X200217Y-224029D01*
X193483Y-224029D01*
G37*
%LPD*%
%LPC*%
G36*
X491297Y-279147D02*
X491297Y-279147D01*
X487656Y-277639D01*
X484869Y-274852D01*
X483361Y-271211D01*
X483361Y-267269D01*
X484869Y-263628D01*
X487656Y-260841D01*
X491297Y-259333D01*
X512003Y-259333D01*
X515644Y-260841D01*
X518431Y-263628D01*
X519939Y-267269D01*
X519939Y-271211D01*
X518431Y-274852D01*
X515644Y-277639D01*
X512003Y-279147D01*
X491297Y-279147D01*
G37*
%LPD*%
%LPC*%
G36*
X499847Y-429355D02*
X499847Y-429355D01*
X496515Y-427975D01*
X493965Y-425425D01*
X492585Y-422093D01*
X492585Y-403407D01*
X493965Y-400075D01*
X496515Y-397525D01*
X499847Y-396145D01*
X503453Y-396145D01*
X506785Y-397525D01*
X509335Y-400075D01*
X510715Y-403407D01*
X510715Y-422093D01*
X509335Y-425425D01*
X506785Y-427975D01*
X503453Y-429355D01*
X499847Y-429355D01*
G37*
%LPD*%
%LPC*%
G36*
X644707Y-307515D02*
X644707Y-307515D01*
X641375Y-306135D01*
X638825Y-303585D01*
X637445Y-300253D01*
X637445Y-296647D01*
X638825Y-293315D01*
X641375Y-290765D01*
X644707Y-289385D01*
X663393Y-289385D01*
X666725Y-290765D01*
X669275Y-293315D01*
X670655Y-296647D01*
X670655Y-300253D01*
X669275Y-303585D01*
X666725Y-306135D01*
X663393Y-307515D01*
X644707Y-307515D01*
G37*
%LPD*%
%LPC*%
G36*
X588747Y-429355D02*
X588747Y-429355D01*
X585415Y-427975D01*
X582865Y-425425D01*
X581485Y-422093D01*
X581485Y-403407D01*
X582865Y-400075D01*
X585415Y-397525D01*
X588747Y-396145D01*
X592353Y-396145D01*
X595685Y-397525D01*
X598235Y-400075D01*
X599615Y-403407D01*
X599615Y-422093D01*
X598235Y-425425D01*
X595685Y-427975D01*
X592353Y-429355D01*
X588747Y-429355D01*
G37*
%LPD*%
%LPC*%
G36*
X404597Y-86455D02*
X404597Y-86455D01*
X401265Y-85075D01*
X398715Y-82525D01*
X397335Y-79193D01*
X397335Y-60507D01*
X398715Y-57175D01*
X401265Y-54625D01*
X404597Y-53245D01*
X408203Y-53245D01*
X411535Y-54625D01*
X414085Y-57175D01*
X415465Y-60507D01*
X415465Y-79193D01*
X414085Y-82525D01*
X411535Y-85075D01*
X408203Y-86455D01*
X404597Y-86455D01*
G37*
%LPD*%
%LPC*%
G36*
X525247Y-86455D02*
X525247Y-86455D01*
X521915Y-85075D01*
X519365Y-82525D01*
X517985Y-79193D01*
X517985Y-60507D01*
X519365Y-57175D01*
X521915Y-54625D01*
X525247Y-53245D01*
X528853Y-53245D01*
X532185Y-54625D01*
X534735Y-57175D01*
X536115Y-60507D01*
X536115Y-79193D01*
X534735Y-82525D01*
X532185Y-85075D01*
X528853Y-86455D01*
X525247Y-86455D01*
G37*
%LPD*%
%LPC*%
G36*
X645897Y-86455D02*
X645897Y-86455D01*
X642565Y-85075D01*
X640015Y-82525D01*
X638635Y-79193D01*
X638635Y-60507D01*
X640015Y-57175D01*
X642565Y-54625D01*
X645897Y-53245D01*
X649503Y-53245D01*
X652835Y-54625D01*
X655385Y-57175D01*
X656765Y-60507D01*
X656765Y-79193D01*
X655385Y-82525D01*
X652835Y-85075D01*
X649503Y-86455D01*
X645897Y-86455D01*
G37*
%LPD*%
%LPC*%
G36*
X487333Y-224283D02*
X487333Y-224283D01*
X484345Y-223045D01*
X482059Y-220759D01*
X480821Y-217771D01*
X480821Y-201329D01*
X482059Y-198341D01*
X484345Y-196055D01*
X487333Y-194817D01*
X490567Y-194817D01*
X493555Y-196055D01*
X495841Y-198341D01*
X497079Y-201329D01*
X497079Y-217771D01*
X495841Y-220759D01*
X493555Y-223045D01*
X490567Y-224283D01*
X487333Y-224283D01*
G37*
%LPD*%
%LPC*%
G36*
X411133Y-224283D02*
X411133Y-224283D01*
X408145Y-223045D01*
X405859Y-220759D01*
X404621Y-217771D01*
X404621Y-201329D01*
X405859Y-198341D01*
X408145Y-196055D01*
X411133Y-194817D01*
X414367Y-194817D01*
X417355Y-196055D01*
X419641Y-198341D01*
X420879Y-201329D01*
X420879Y-217771D01*
X419641Y-220759D01*
X417355Y-223045D01*
X414367Y-224283D01*
X411133Y-224283D01*
G37*
%LPD*%
%LPC*%
G36*
X360333Y-224283D02*
X360333Y-224283D01*
X357345Y-223045D01*
X355059Y-220759D01*
X353821Y-217771D01*
X353821Y-201329D01*
X355059Y-198341D01*
X357345Y-196055D01*
X360333Y-194817D01*
X363567Y-194817D01*
X366555Y-196055D01*
X368841Y-198341D01*
X370079Y-201329D01*
X370079Y-217771D01*
X368841Y-220759D01*
X366555Y-223045D01*
X363567Y-224283D01*
X360333Y-224283D01*
G37*
%LPD*%
%LPC*%
G36*
X436533Y-224283D02*
X436533Y-224283D01*
X433545Y-223045D01*
X431259Y-220759D01*
X430021Y-217771D01*
X430021Y-201329D01*
X431259Y-198341D01*
X433545Y-196055D01*
X436533Y-194817D01*
X439767Y-194817D01*
X442755Y-196055D01*
X445041Y-198341D01*
X446279Y-201329D01*
X446279Y-217771D01*
X445041Y-220759D01*
X442755Y-223045D01*
X439767Y-224283D01*
X436533Y-224283D01*
G37*
%LPD*%
%LPC*%
G36*
X461933Y-224283D02*
X461933Y-224283D01*
X458945Y-223045D01*
X456659Y-220759D01*
X455421Y-217771D01*
X455421Y-201329D01*
X456659Y-198341D01*
X458945Y-196055D01*
X461933Y-194817D01*
X465167Y-194817D01*
X468155Y-196055D01*
X470441Y-198341D01*
X471679Y-201329D01*
X471679Y-217771D01*
X470441Y-220759D01*
X468155Y-223045D01*
X465167Y-224283D01*
X461933Y-224283D01*
G37*
%LPD*%
%LPC*%
G36*
X512733Y-148083D02*
X512733Y-148083D01*
X509745Y-146845D01*
X507459Y-144559D01*
X506221Y-141571D01*
X506221Y-125129D01*
X507459Y-122141D01*
X509745Y-119855D01*
X512733Y-118617D01*
X515967Y-118617D01*
X518955Y-119855D01*
X521241Y-122141D01*
X522479Y-125129D01*
X522479Y-141571D01*
X521241Y-144559D01*
X518955Y-146845D01*
X515967Y-148083D01*
X512733Y-148083D01*
G37*
%LPD*%
%LPC*%
G36*
X385733Y-224283D02*
X385733Y-224283D01*
X382745Y-223045D01*
X380459Y-220759D01*
X379221Y-217771D01*
X379221Y-201329D01*
X380459Y-198341D01*
X382745Y-196055D01*
X385733Y-194817D01*
X388967Y-194817D01*
X391955Y-196055D01*
X394241Y-198341D01*
X395479Y-201329D01*
X395479Y-217771D01*
X394241Y-220759D01*
X391955Y-223045D01*
X388967Y-224283D01*
X385733Y-224283D01*
G37*
%LPD*%
%LPC*%
G36*
X70888Y-263145D02*
X70888Y-263145D01*
X65531Y-257788D01*
X65531Y-250212D01*
X70888Y-244855D01*
X78464Y-244855D01*
X83821Y-250212D01*
X83821Y-257788D01*
X78464Y-263145D01*
X70888Y-263145D01*
G37*
%LPD*%
%LPC*%
G36*
X70888Y-290577D02*
X70888Y-290577D01*
X65531Y-285220D01*
X65531Y-277644D01*
X70888Y-272287D01*
X78464Y-272287D01*
X83821Y-277644D01*
X83821Y-285220D01*
X78464Y-290577D01*
X70888Y-290577D01*
G37*
%LPD*%
%LPC*%
G36*
X99336Y-331725D02*
X99336Y-331725D01*
X93979Y-326368D01*
X93979Y-318792D01*
X99336Y-313435D01*
X106912Y-313435D01*
X112269Y-318792D01*
X112269Y-326368D01*
X106912Y-331725D01*
X99336Y-331725D01*
G37*
%LPD*%
%LPC*%
G36*
X99336Y-167133D02*
X99336Y-167133D01*
X93979Y-161776D01*
X93979Y-154200D01*
X99336Y-148843D01*
X106912Y-148843D01*
X112269Y-154200D01*
X112269Y-161776D01*
X106912Y-167133D01*
X99336Y-167133D01*
G37*
%LPD*%
%LPC*%
G36*
X70888Y-180849D02*
X70888Y-180849D01*
X65531Y-175492D01*
X65531Y-167916D01*
X70888Y-162559D01*
X78464Y-162559D01*
X83821Y-167916D01*
X83821Y-175492D01*
X78464Y-180849D01*
X70888Y-180849D01*
G37*
%LPD*%
%LPC*%
G36*
X70888Y-318009D02*
X70888Y-318009D01*
X65531Y-312652D01*
X65531Y-305076D01*
X70888Y-299719D01*
X78464Y-299719D01*
X83821Y-305076D01*
X83821Y-312652D01*
X78464Y-318009D01*
X70888Y-318009D01*
G37*
%LPD*%
%LPC*%
G36*
X99336Y-194565D02*
X99336Y-194565D01*
X93979Y-189208D01*
X93979Y-181632D01*
X99336Y-176275D01*
X106912Y-176275D01*
X112269Y-181632D01*
X112269Y-189208D01*
X106912Y-194565D01*
X99336Y-194565D01*
G37*
%LPD*%
%LPC*%
G36*
X70888Y-345441D02*
X70888Y-345441D01*
X65531Y-340084D01*
X65531Y-332508D01*
X70888Y-327151D01*
X78464Y-327151D01*
X83821Y-332508D01*
X83821Y-340084D01*
X78464Y-345441D01*
X70888Y-345441D01*
G37*
%LPD*%
%LPC*%
G36*
X99336Y-221997D02*
X99336Y-221997D01*
X93979Y-216640D01*
X93979Y-209064D01*
X99336Y-203707D01*
X106912Y-203707D01*
X112269Y-209064D01*
X112269Y-216640D01*
X106912Y-221997D01*
X99336Y-221997D01*
G37*
%LPD*%
%LPC*%
G36*
X70888Y-235713D02*
X70888Y-235713D01*
X65531Y-230356D01*
X65531Y-222780D01*
X70888Y-217423D01*
X78464Y-217423D01*
X83821Y-222780D01*
X83821Y-230356D01*
X78464Y-235713D01*
X70888Y-235713D01*
G37*
%LPD*%
%LPC*%
G36*
X549083Y-255779D02*
X549083Y-255779D01*
X544321Y-251017D01*
X544321Y-244283D01*
X549083Y-239521D01*
X555817Y-239521D01*
X560579Y-244283D01*
X560579Y-251017D01*
X555817Y-255779D01*
X549083Y-255779D01*
G37*
%LPD*%
%LPC*%
G36*
X269683Y-46229D02*
X269683Y-46229D01*
X264921Y-41467D01*
X264921Y-34733D01*
X269683Y-29971D01*
X276417Y-29971D01*
X281179Y-34733D01*
X281179Y-41467D01*
X276417Y-46229D01*
X269683Y-46229D01*
G37*
%LPD*%
%LPC*%
G36*
X650683Y-465329D02*
X650683Y-465329D01*
X645921Y-460567D01*
X645921Y-453833D01*
X650683Y-449071D01*
X657417Y-449071D01*
X662179Y-453833D01*
X662179Y-460567D01*
X657417Y-465329D01*
X650683Y-465329D01*
G37*
%LPD*%
%LPC*%
G36*
X168083Y-77979D02*
X168083Y-77979D01*
X163321Y-73217D01*
X163321Y-66483D01*
X168083Y-61721D01*
X174817Y-61721D01*
X179579Y-66483D01*
X179579Y-73217D01*
X174817Y-77979D01*
X168083Y-77979D01*
G37*
%LPD*%
%LPC*%
G36*
X269683Y-77979D02*
X269683Y-77979D01*
X264921Y-73217D01*
X264921Y-66483D01*
X269683Y-61721D01*
X276417Y-61721D01*
X281179Y-66483D01*
X281179Y-73217D01*
X276417Y-77979D01*
X269683Y-77979D01*
G37*
%LPD*%
%LPC*%
G36*
X193483Y-185929D02*
X193483Y-185929D01*
X188721Y-181167D01*
X188721Y-174433D01*
X193483Y-169671D01*
X200217Y-169671D01*
X204979Y-174433D01*
X204979Y-181167D01*
X200217Y-185929D01*
X193483Y-185929D01*
G37*
%LPD*%
%LPC*%
G36*
X167639Y-478789D02*
X167639Y-478789D01*
X177547Y-478789D01*
X177547Y-487136D01*
X177240Y-489071D01*
X176635Y-490934D01*
X175745Y-492680D01*
X174594Y-494264D01*
X173208Y-495650D01*
X171624Y-496801D01*
X169878Y-497691D01*
X168015Y-498296D01*
X167639Y-498356D01*
X167639Y-478789D01*
G37*
%LPD*%
%LPC*%
G36*
X167639Y-473711D02*
X167639Y-473711D01*
X167639Y-454144D01*
X168015Y-454204D01*
X169878Y-454809D01*
X171624Y-455699D01*
X173208Y-456850D01*
X174594Y-458236D01*
X175745Y-459820D01*
X176635Y-461566D01*
X177240Y-463429D01*
X177547Y-465364D01*
X177547Y-473711D01*
X167639Y-473711D01*
G37*
%LPD*%
%LPC*%
G36*
X162185Y-498296D02*
X162185Y-498296D01*
X160322Y-497691D01*
X158576Y-496801D01*
X156992Y-495650D01*
X155606Y-494264D01*
X154455Y-492680D01*
X153565Y-490934D01*
X152960Y-489071D01*
X152653Y-487136D01*
X152653Y-478789D01*
X162561Y-478789D01*
X162561Y-498356D01*
X162185Y-498296D01*
G37*
%LPD*%
%LPC*%
G36*
X152653Y-473711D02*
X152653Y-473711D01*
X152653Y-465364D01*
X152960Y-463429D01*
X153565Y-461566D01*
X154455Y-459820D01*
X155606Y-458236D01*
X156992Y-456850D01*
X158576Y-455699D01*
X160322Y-454809D01*
X162185Y-454204D01*
X162561Y-454144D01*
X162561Y-473711D01*
X152653Y-473711D01*
G37*
%LPD*%
%LPC*%
G36*
X504189Y-325883D02*
X504189Y-325883D01*
X504189Y-317499D01*
X520689Y-317499D01*
X520686Y-317518D01*
X520155Y-319153D01*
X519374Y-320685D01*
X518363Y-322076D01*
X517148Y-323291D01*
X515757Y-324302D01*
X514225Y-325083D01*
X512590Y-325614D01*
X510892Y-325883D01*
X504189Y-325883D01*
G37*
%LPD*%
%LPC*%
G36*
X492408Y-325883D02*
X492408Y-325883D01*
X490710Y-325614D01*
X489075Y-325083D01*
X487543Y-324302D01*
X486152Y-323291D01*
X484937Y-322076D01*
X483926Y-320685D01*
X483145Y-319153D01*
X482614Y-317518D01*
X482611Y-317499D01*
X499111Y-317499D01*
X499111Y-325883D01*
X492408Y-325883D01*
G37*
%LPD*%
%LPC*%
G36*
X656549Y-333931D02*
X656549Y-333931D01*
X656549Y-326349D01*
X671377Y-326349D01*
X670932Y-327720D01*
X670212Y-329133D01*
X669279Y-330417D01*
X668157Y-331539D01*
X666873Y-332472D01*
X665460Y-333192D01*
X663951Y-333683D01*
X662383Y-333931D01*
X656549Y-333931D01*
G37*
%LPD*%
%LPC*%
G36*
X358099Y-72349D02*
X358099Y-72349D01*
X365681Y-72349D01*
X365681Y-78183D01*
X365433Y-79751D01*
X364942Y-81260D01*
X364222Y-82673D01*
X363289Y-83957D01*
X362167Y-85079D01*
X360883Y-86012D01*
X359470Y-86732D01*
X358099Y-87177D01*
X358099Y-72349D01*
G37*
%LPD*%
%LPC*%
G36*
X478749Y-72349D02*
X478749Y-72349D01*
X486331Y-72349D01*
X486331Y-78183D01*
X486083Y-79751D01*
X485592Y-81260D01*
X484872Y-82673D01*
X483939Y-83957D01*
X482817Y-85079D01*
X481533Y-86012D01*
X480120Y-86732D01*
X478749Y-87177D01*
X478749Y-72349D01*
G37*
%LPD*%
%LPC*%
G36*
X567649Y-415249D02*
X567649Y-415249D01*
X575231Y-415249D01*
X575231Y-421083D01*
X574983Y-422651D01*
X574492Y-424160D01*
X573772Y-425573D01*
X572839Y-426857D01*
X571717Y-427979D01*
X570433Y-428912D01*
X569020Y-429632D01*
X567649Y-430077D01*
X567649Y-415249D01*
G37*
%LPD*%
%LPC*%
G36*
X599399Y-72349D02*
X599399Y-72349D01*
X606981Y-72349D01*
X606981Y-78183D01*
X606733Y-79751D01*
X606242Y-81260D01*
X605522Y-82673D01*
X604589Y-83957D01*
X603467Y-85079D01*
X602183Y-86012D01*
X600770Y-86732D01*
X599399Y-87177D01*
X599399Y-72349D01*
G37*
%LPD*%
%LPC*%
G36*
X478749Y-67351D02*
X478749Y-67351D01*
X478749Y-52523D01*
X480120Y-52968D01*
X481533Y-53688D01*
X482817Y-54621D01*
X483939Y-55743D01*
X484872Y-57027D01*
X485592Y-58440D01*
X486083Y-59949D01*
X486331Y-61517D01*
X486331Y-67351D01*
X478749Y-67351D01*
G37*
%LPD*%
%LPC*%
G36*
X599399Y-67351D02*
X599399Y-67351D01*
X599399Y-52523D01*
X600770Y-52968D01*
X602183Y-53688D01*
X603467Y-54621D01*
X604589Y-55743D01*
X605522Y-57027D01*
X606242Y-58440D01*
X606733Y-59949D01*
X606981Y-61517D01*
X606981Y-67351D01*
X599399Y-67351D01*
G37*
%LPD*%
%LPC*%
G36*
X567649Y-410251D02*
X567649Y-410251D01*
X567649Y-395423D01*
X569020Y-395868D01*
X570433Y-396588D01*
X571717Y-397521D01*
X572839Y-398643D01*
X573772Y-399927D01*
X574492Y-401340D01*
X574983Y-402849D01*
X575231Y-404417D01*
X575231Y-410251D01*
X567649Y-410251D01*
G37*
%LPD*%
%LPC*%
G36*
X358099Y-67351D02*
X358099Y-67351D01*
X358099Y-52523D01*
X359470Y-52968D01*
X360883Y-53688D01*
X362167Y-54621D01*
X363289Y-55743D01*
X364222Y-57027D01*
X364942Y-58440D01*
X365433Y-59949D01*
X365681Y-61517D01*
X365681Y-67351D01*
X358099Y-67351D01*
G37*
%LPD*%
%LPC*%
G36*
X644149Y-333683D02*
X644149Y-333683D01*
X642640Y-333192D01*
X641227Y-332472D01*
X639943Y-331539D01*
X638821Y-330417D01*
X637888Y-329133D01*
X637168Y-327720D01*
X636723Y-326349D01*
X651551Y-326349D01*
X651551Y-333931D01*
X645717Y-333931D01*
X644149Y-333683D01*
G37*
%LPD*%
%LPC*%
G36*
X656549Y-321351D02*
X656549Y-321351D01*
X656549Y-313769D01*
X662383Y-313769D01*
X663951Y-314017D01*
X665460Y-314508D01*
X666873Y-315228D01*
X668157Y-316161D01*
X669279Y-317283D01*
X670212Y-318567D01*
X670932Y-319980D01*
X671377Y-321351D01*
X656549Y-321351D01*
G37*
%LPD*%
%LPC*%
G36*
X561280Y-429632D02*
X561280Y-429632D01*
X559867Y-428912D01*
X558583Y-427979D01*
X557461Y-426857D01*
X556528Y-425573D01*
X555808Y-424160D01*
X555317Y-422651D01*
X555069Y-421083D01*
X555069Y-415249D01*
X562651Y-415249D01*
X562651Y-430077D01*
X561280Y-429632D01*
G37*
%LPD*%
%LPC*%
G36*
X472380Y-86732D02*
X472380Y-86732D01*
X470967Y-86012D01*
X469683Y-85079D01*
X468561Y-83957D01*
X467628Y-82673D01*
X466908Y-81260D01*
X466417Y-79751D01*
X466169Y-78183D01*
X466169Y-72349D01*
X473751Y-72349D01*
X473751Y-87177D01*
X472380Y-86732D01*
G37*
%LPD*%
%LPC*%
G36*
X593030Y-86732D02*
X593030Y-86732D01*
X591617Y-86012D01*
X590333Y-85079D01*
X589211Y-83957D01*
X588278Y-82673D01*
X587558Y-81260D01*
X587067Y-79751D01*
X586819Y-78183D01*
X586819Y-72349D01*
X594401Y-72349D01*
X594401Y-87177D01*
X593030Y-86732D01*
G37*
%LPD*%
%LPC*%
G36*
X351730Y-86732D02*
X351730Y-86732D01*
X350317Y-86012D01*
X349033Y-85079D01*
X347911Y-83957D01*
X346978Y-82673D01*
X346258Y-81260D01*
X345767Y-79751D01*
X345519Y-78183D01*
X345519Y-72349D01*
X353101Y-72349D01*
X353101Y-87177D01*
X351730Y-86732D01*
G37*
%LPD*%
%LPC*%
G36*
X466169Y-67351D02*
X466169Y-67351D01*
X466169Y-61517D01*
X466417Y-59949D01*
X466908Y-58440D01*
X467628Y-57027D01*
X468561Y-55743D01*
X469683Y-54621D01*
X470967Y-53688D01*
X472380Y-52968D01*
X473751Y-52523D01*
X473751Y-67351D01*
X466169Y-67351D01*
G37*
%LPD*%
%LPC*%
G36*
X586819Y-67351D02*
X586819Y-67351D01*
X586819Y-61517D01*
X587067Y-59949D01*
X587558Y-58440D01*
X588278Y-57027D01*
X589211Y-55743D01*
X590333Y-54621D01*
X591617Y-53688D01*
X593030Y-52968D01*
X594401Y-52523D01*
X594401Y-67351D01*
X586819Y-67351D01*
G37*
%LPD*%
%LPC*%
G36*
X636723Y-321351D02*
X636723Y-321351D01*
X637168Y-319980D01*
X637888Y-318567D01*
X638821Y-317283D01*
X639943Y-316161D01*
X641227Y-315228D01*
X642640Y-314508D01*
X644149Y-314017D01*
X645717Y-313769D01*
X651551Y-313769D01*
X651551Y-321351D01*
X636723Y-321351D01*
G37*
%LPD*%
%LPC*%
G36*
X555069Y-410251D02*
X555069Y-410251D01*
X555069Y-404417D01*
X555317Y-402849D01*
X555808Y-401340D01*
X556528Y-399927D01*
X557461Y-398643D01*
X558583Y-397521D01*
X559867Y-396588D01*
X561280Y-395868D01*
X562651Y-395423D01*
X562651Y-410251D01*
X555069Y-410251D01*
G37*
%LPD*%
%LPC*%
G36*
X345519Y-67351D02*
X345519Y-67351D01*
X345519Y-61517D01*
X345767Y-59949D01*
X346258Y-58440D01*
X346978Y-57027D01*
X347911Y-55743D01*
X349033Y-54621D01*
X350317Y-53688D01*
X351730Y-52968D01*
X353101Y-52523D01*
X353101Y-67351D01*
X345519Y-67351D01*
G37*
%LPD*%
%LPC*%
G36*
X363981Y-135381D02*
X363981Y-135381D01*
X371095Y-135381D01*
X371095Y-140674D01*
X370870Y-142095D01*
X370425Y-143464D01*
X369771Y-144747D01*
X368925Y-145911D01*
X367907Y-146929D01*
X366743Y-147775D01*
X365460Y-148429D01*
X364091Y-148874D01*
X363981Y-148891D01*
X363981Y-135381D01*
G37*
%LPD*%
%LPC*%
G36*
X359809Y-148874D02*
X359809Y-148874D01*
X358440Y-148429D01*
X357157Y-147775D01*
X355993Y-146929D01*
X354975Y-145911D01*
X354129Y-144747D01*
X353475Y-143464D01*
X353030Y-142095D01*
X352805Y-140674D01*
X352805Y-135381D01*
X359919Y-135381D01*
X359919Y-148891D01*
X359809Y-148874D01*
G37*
%LPD*%
%LPC*%
G36*
X433831Y-442215D02*
X433831Y-442215D01*
X433831Y-433831D01*
X442215Y-433831D01*
X442215Y-436114D01*
X436114Y-442215D01*
X433831Y-442215D01*
G37*
%LPD*%
%LPC*%
G36*
X433831Y-429769D02*
X433831Y-429769D01*
X433831Y-421385D01*
X436114Y-421385D01*
X442215Y-427486D01*
X442215Y-429769D01*
X433831Y-429769D01*
G37*
%LPD*%
%LPC*%
G36*
X427486Y-442215D02*
X427486Y-442215D01*
X421385Y-436114D01*
X421385Y-433831D01*
X429769Y-433831D01*
X429769Y-442215D01*
X427486Y-442215D01*
G37*
%LPD*%
%LPC*%
G36*
X421385Y-429769D02*
X421385Y-429769D01*
X421385Y-427486D01*
X427486Y-421385D01*
X429769Y-421385D01*
X429769Y-429769D01*
X421385Y-429769D01*
G37*
%LPD*%
%LPC*%
G36*
X105663Y-360173D02*
X105663Y-360173D01*
X105663Y-352551D01*
X113285Y-352551D01*
X113285Y-354221D01*
X107333Y-360173D01*
X105663Y-360173D01*
G37*
%LPD*%
%LPC*%
G36*
X98915Y-360173D02*
X98915Y-360173D01*
X92963Y-354221D01*
X92963Y-352551D01*
X100585Y-352551D01*
X100585Y-360173D01*
X98915Y-360173D01*
G37*
%LPD*%
%LPC*%
G36*
X105663Y-347473D02*
X105663Y-347473D01*
X105663Y-339851D01*
X107333Y-339851D01*
X113285Y-345803D01*
X113285Y-347473D01*
X105663Y-347473D01*
G37*
%LPD*%
%LPC*%
G36*
X92963Y-347473D02*
X92963Y-347473D01*
X92963Y-345803D01*
X98915Y-339851D01*
X100585Y-339851D01*
X100585Y-347473D01*
X92963Y-347473D01*
G37*
%LPD*%
%LPC*%
G36*
X306831Y-288545D02*
X306831Y-288545D01*
X306831Y-281431D01*
X313945Y-281431D01*
X313945Y-283188D01*
X308588Y-288545D01*
X306831Y-288545D01*
G37*
%LPD*%
%LPC*%
G36*
X306831Y-396495D02*
X306831Y-396495D01*
X306831Y-389381D01*
X313945Y-389381D01*
X313945Y-391138D01*
X308588Y-396495D01*
X306831Y-396495D01*
G37*
%LPD*%
%LPC*%
G36*
X554481Y-358395D02*
X554481Y-358395D01*
X554481Y-351281D01*
X561595Y-351281D01*
X561595Y-353038D01*
X556238Y-358395D01*
X554481Y-358395D01*
G37*
%LPD*%
%LPC*%
G36*
X370331Y-440945D02*
X370331Y-440945D01*
X370331Y-433831D01*
X377445Y-433831D01*
X377445Y-435588D01*
X372088Y-440945D01*
X370331Y-440945D01*
G37*
%LPD*%
%LPC*%
G36*
X173481Y-47245D02*
X173481Y-47245D01*
X173481Y-40131D01*
X180595Y-40131D01*
X180595Y-41888D01*
X175238Y-47245D01*
X173481Y-47245D01*
G37*
%LPD*%
%LPC*%
G36*
X706881Y-186945D02*
X706881Y-186945D01*
X706881Y-179831D01*
X713995Y-179831D01*
X713995Y-181588D01*
X708638Y-186945D01*
X706881Y-186945D01*
G37*
%LPD*%
%LPC*%
G36*
X306831Y-345695D02*
X306831Y-345695D01*
X306831Y-338581D01*
X313945Y-338581D01*
X313945Y-340338D01*
X308588Y-345695D01*
X306831Y-345695D01*
G37*
%LPD*%
%LPC*%
G36*
X554481Y-347219D02*
X554481Y-347219D01*
X554481Y-340105D01*
X556238Y-340105D01*
X561595Y-345462D01*
X561595Y-347219D01*
X554481Y-347219D01*
G37*
%LPD*%
%LPC*%
G36*
X306831Y-334519D02*
X306831Y-334519D01*
X306831Y-327405D01*
X308588Y-327405D01*
X313945Y-332762D01*
X313945Y-334519D01*
X306831Y-334519D01*
G37*
%LPD*%
%LPC*%
G36*
X173481Y-36069D02*
X173481Y-36069D01*
X173481Y-28955D01*
X175238Y-28955D01*
X180595Y-34312D01*
X180595Y-36069D01*
X173481Y-36069D01*
G37*
%LPD*%
%LPC*%
G36*
X706881Y-175769D02*
X706881Y-175769D01*
X706881Y-168655D01*
X708638Y-168655D01*
X713995Y-174012D01*
X713995Y-175769D01*
X706881Y-175769D01*
G37*
%LPD*%
%LPC*%
G36*
X370331Y-429769D02*
X370331Y-429769D01*
X370331Y-422655D01*
X372088Y-422655D01*
X377445Y-428012D01*
X377445Y-429769D01*
X370331Y-429769D01*
G37*
%LPD*%
%LPC*%
G36*
X306831Y-277369D02*
X306831Y-277369D01*
X306831Y-270255D01*
X308588Y-270255D01*
X313945Y-275612D01*
X313945Y-277369D01*
X306831Y-277369D01*
G37*
%LPD*%
%LPC*%
G36*
X306831Y-385319D02*
X306831Y-385319D01*
X306831Y-378205D01*
X308588Y-378205D01*
X313945Y-383562D01*
X313945Y-385319D01*
X306831Y-385319D01*
G37*
%LPD*%
%LPC*%
G36*
X301012Y-396495D02*
X301012Y-396495D01*
X295655Y-391138D01*
X295655Y-389381D01*
X302769Y-389381D01*
X302769Y-396495D01*
X301012Y-396495D01*
G37*
%LPD*%
%LPC*%
G36*
X301012Y-345695D02*
X301012Y-345695D01*
X295655Y-340338D01*
X295655Y-338581D01*
X302769Y-338581D01*
X302769Y-345695D01*
X301012Y-345695D01*
G37*
%LPD*%
%LPC*%
G36*
X701062Y-186945D02*
X701062Y-186945D01*
X695705Y-181588D01*
X695705Y-179831D01*
X702819Y-179831D01*
X702819Y-186945D01*
X701062Y-186945D01*
G37*
%LPD*%
%LPC*%
G36*
X301012Y-288545D02*
X301012Y-288545D01*
X295655Y-283188D01*
X295655Y-281431D01*
X302769Y-281431D01*
X302769Y-288545D01*
X301012Y-288545D01*
G37*
%LPD*%
%LPC*%
G36*
X364512Y-440945D02*
X364512Y-440945D01*
X359155Y-435588D01*
X359155Y-433831D01*
X366269Y-433831D01*
X366269Y-440945D01*
X364512Y-440945D01*
G37*
%LPD*%
%LPC*%
G36*
X167662Y-47245D02*
X167662Y-47245D01*
X162305Y-41888D01*
X162305Y-40131D01*
X169419Y-40131D01*
X169419Y-47245D01*
X167662Y-47245D01*
G37*
%LPD*%
%LPC*%
G36*
X548662Y-358395D02*
X548662Y-358395D01*
X543305Y-353038D01*
X543305Y-351281D01*
X550419Y-351281D01*
X550419Y-358395D01*
X548662Y-358395D01*
G37*
%LPD*%
%LPC*%
G36*
X295655Y-334519D02*
X295655Y-334519D01*
X295655Y-332762D01*
X301012Y-327405D01*
X302769Y-327405D01*
X302769Y-334519D01*
X295655Y-334519D01*
G37*
%LPD*%
%LPC*%
G36*
X295655Y-277369D02*
X295655Y-277369D01*
X295655Y-275612D01*
X301012Y-270255D01*
X302769Y-270255D01*
X302769Y-277369D01*
X295655Y-277369D01*
G37*
%LPD*%
%LPC*%
G36*
X695705Y-175769D02*
X695705Y-175769D01*
X695705Y-174012D01*
X701062Y-168655D01*
X702819Y-168655D01*
X702819Y-175769D01*
X695705Y-175769D01*
G37*
%LPD*%
%LPC*%
G36*
X359155Y-429769D02*
X359155Y-429769D01*
X359155Y-428012D01*
X364512Y-422655D01*
X366269Y-422655D01*
X366269Y-429769D01*
X359155Y-429769D01*
G37*
%LPD*%
%LPC*%
G36*
X543305Y-347219D02*
X543305Y-347219D01*
X543305Y-345462D01*
X548662Y-340105D01*
X550419Y-340105D01*
X550419Y-347219D01*
X543305Y-347219D01*
G37*
%LPD*%
%LPC*%
G36*
X162305Y-36069D02*
X162305Y-36069D01*
X162305Y-34312D01*
X167662Y-28955D01*
X169419Y-28955D01*
X169419Y-36069D01*
X162305Y-36069D01*
G37*
%LPD*%
%LPC*%
G36*
X295655Y-385319D02*
X295655Y-385319D01*
X295655Y-383562D01*
X301012Y-378205D01*
X302769Y-378205D01*
X302769Y-385319D01*
X295655Y-385319D01*
G37*
%LPD*%
%LPC*%
G36*
X103123Y-350013D02*
X103123Y-350013D01*
X103123Y-350011D01*
X103125Y-350011D01*
X103125Y-350013D01*
X103123Y-350013D01*
G37*
%LPD*%
%LPC*%
G36*
X165099Y-476251D02*
X165099Y-476251D01*
X165099Y-476249D01*
X165101Y-476249D01*
X165101Y-476251D01*
X165099Y-476251D01*
G37*
%LPD*%
D10*
X501650Y-420290D02*
X501650Y-405210D01*
X527050Y-405210D02*
X527050Y-420290D01*
D11*
X514350Y-139954D02*
X514350Y-126746D01*
X488950Y-126746D02*
X488950Y-139954D01*
X361950Y-139954D02*
X361950Y-126746D01*
X361950Y-202946D02*
X361950Y-216154D01*
X463550Y-139954D02*
X463550Y-126746D01*
X438150Y-126746D02*
X438150Y-139954D01*
X387350Y-139954D02*
X387350Y-126746D01*
X412750Y-126746D02*
X412750Y-139954D01*
X387350Y-202946D02*
X387350Y-216154D01*
X412750Y-216154D02*
X412750Y-202946D01*
X438150Y-202946D02*
X438150Y-216154D01*
X463550Y-216154D02*
X463550Y-202946D01*
X488950Y-202946D02*
X488950Y-216154D01*
X514350Y-216154D02*
X514350Y-202946D01*
D10*
X596900Y-77390D02*
X596900Y-62310D01*
X622300Y-62310D02*
X622300Y-77390D01*
X647700Y-77390D02*
X647700Y-62310D01*
X673100Y-62310D02*
X673100Y-77390D01*
X476250Y-77390D02*
X476250Y-62310D01*
X501650Y-62310D02*
X501650Y-77390D01*
X527050Y-77390D02*
X527050Y-62310D01*
X552450Y-62310D02*
X552450Y-77390D01*
X355600Y-77390D02*
X355600Y-62310D01*
X381000Y-62310D02*
X381000Y-77390D01*
X406400Y-77390D02*
X406400Y-62310D01*
X431800Y-62310D02*
X431800Y-77390D01*
D12*
X552450Y-349250D03*
X552450Y-247650D03*
D10*
X646510Y-323850D02*
X661590Y-323850D01*
X661590Y-298450D02*
X646510Y-298450D01*
X646510Y-273050D02*
X661590Y-273050D01*
X661590Y-247650D02*
X646510Y-247650D01*
D13*
X510032Y-314960D02*
X493268Y-314960D01*
X493268Y-292100D02*
X510032Y-292100D01*
X510032Y-269240D02*
X493268Y-269240D01*
D10*
X565150Y-405210D02*
X565150Y-420290D01*
X590550Y-420290D02*
X590550Y-405210D01*
D14*
X103124Y-350012D03*
X103124Y-322580D03*
X103124Y-295148D03*
X103124Y-267716D03*
X103124Y-240284D03*
X103124Y-212852D03*
X103124Y-185420D03*
X103124Y-157988D03*
X74676Y-336296D03*
X74676Y-308864D03*
X74676Y-281432D03*
X74676Y-254000D03*
X74676Y-226568D03*
X74676Y-199136D03*
X74676Y-171704D03*
D15*
X196850Y-215900D03*
X298450Y-215900D03*
X196850Y-177800D03*
X298450Y-177800D03*
X196850Y-133350D03*
X298450Y-133350D03*
D16*
X304800Y-387350D03*
X203200Y-387350D03*
X304800Y-336550D03*
X203200Y-336550D03*
X304800Y-279400D03*
X203200Y-279400D03*
X704850Y-177800D03*
X603250Y-177800D03*
D12*
X654050Y-457200D03*
X654050Y-355600D03*
D17*
X368300Y-381000D03*
X368300Y-431800D03*
D18*
X431800Y-431800D03*
D19*
X431800Y-406400D03*
D20*
X241300Y-476250D03*
X292100Y-476250D03*
X311150Y-69850D03*
X615950Y-139700D03*
D21*
X165100Y-466344D02*
X165100Y-486156D01*
D16*
X273050Y-69850D03*
X171450Y-69850D03*
D15*
X171450Y-38100D03*
X273050Y-38100D03*
D22*
X74676Y-199136D02*
X53086Y-199136D01*
X38100Y-184150D02*
X38100Y-133350D01*
X44450Y-127000D01*
X133350Y-127000D01*
X146050Y-139700D01*
X146050Y-215900D01*
X171450Y-241300D01*
X53086Y-199136D02*
X50800Y-196850D01*
X38100Y-184150D01*
X171450Y-241300D02*
X304800Y-241300D01*
X368300Y-361950D02*
X368300Y-381000D01*
X368300Y-361950D02*
X419100Y-361950D01*
X431800Y-374650D02*
X431800Y-406400D01*
X431800Y-374650D02*
X419100Y-361950D01*
X508000Y-361950D02*
X517525Y-352425D01*
X527050Y-342900D01*
X527050Y-254000D01*
X514350Y-241300D02*
X514350Y-209550D01*
X508000Y-361950D02*
X419100Y-361950D01*
X527050Y-254000D02*
X514350Y-241300D01*
X517525Y-352425D02*
X533400Y-368300D01*
X609600Y-368300D01*
X622300Y-355600D02*
X654050Y-355600D01*
X622300Y-355600D02*
X609600Y-368300D01*
X50800Y-196850D02*
X38100Y-209550D01*
X38100Y-361950D01*
X63500Y-387350D01*
X209550Y-444500D02*
X247650Y-444500D01*
X279400Y-444500D01*
X342900Y-381000D02*
X368300Y-381000D01*
X152400Y-387350D02*
X63500Y-387350D01*
X152400Y-387350D02*
X209550Y-444500D01*
X279400Y-444500D02*
X342900Y-381000D01*
X241300Y-450850D02*
X241300Y-476250D01*
X241300Y-450850D02*
X247650Y-444500D01*
X304800Y-241300D02*
X317500Y-228600D01*
X317500Y-222250D01*
X317500Y-177800D01*
X317500Y-152400D01*
X298450Y-133350D01*
X298450Y-177800D02*
X317500Y-177800D01*
X311150Y-215900D02*
X298450Y-215900D01*
X311150Y-215900D02*
X317500Y-222250D01*
X304800Y-463550D02*
X292100Y-476250D01*
X304800Y-463550D02*
X336550Y-463550D01*
X482600Y-463550D01*
X527050Y-419100D02*
X527050Y-412750D01*
X527050Y-419100D02*
X482600Y-463550D01*
D23*
X336550Y-425450D03*
D22*
X336550Y-463550D01*
D24*
X161798Y-295148D02*
X103124Y-295148D01*
X161798Y-295148D02*
X165100Y-298450D01*
X165100Y-374650D01*
X177800Y-387350D01*
X203200Y-387350D01*
X222250Y-368300D01*
X323850Y-368300D01*
X336550Y-355600D01*
X336550Y-114300D01*
X336804Y-114046D01*
X486911Y-95250D02*
X615950Y-95250D01*
X468115Y-114046D02*
X336804Y-114046D01*
X468115Y-114046D02*
X486911Y-95250D01*
X615950Y-95250D02*
X622300Y-88900D01*
X622300Y-69850D01*
X157734Y-267716D02*
X103124Y-267716D01*
X157734Y-267716D02*
X158750Y-266700D01*
X171450Y-279400D01*
X171450Y-330200D01*
X177800Y-336550D01*
X203200Y-336550D01*
X203200Y-323850D01*
X209550Y-317500D01*
X317500Y-317500D01*
X330200Y-304800D01*
X330200Y-114300D02*
X333502Y-110998D01*
X375913Y-110998D01*
X378961Y-107950D02*
X469900Y-107950D01*
X378961Y-107950D02*
X375913Y-110998D01*
X469900Y-107950D02*
X501650Y-76200D01*
X501650Y-69850D01*
X330200Y-114300D02*
X330200Y-304800D01*
X157734Y-240284D02*
X103124Y-240284D01*
X177800Y-260350D02*
X177800Y-273050D01*
X190500Y-285750D01*
X196850Y-285750D02*
X203200Y-279400D01*
X196850Y-285750D02*
X190500Y-285750D01*
X177800Y-260350D02*
X157734Y-240284D01*
X203200Y-266700D02*
X203200Y-279400D01*
X203200Y-266700D02*
X209550Y-260350D01*
X311150Y-260350D01*
X323850Y-247650D01*
X374650Y-107950D02*
X381000Y-101600D01*
X381000Y-69850D01*
X330200Y-107950D02*
X323850Y-114300D01*
X330200Y-107950D02*
X374650Y-107950D01*
X323850Y-114300D02*
X323850Y-247650D01*
D22*
X196850Y-215900D02*
X184150Y-215900D01*
X165100Y-196850D01*
X165100Y-120650D01*
D23*
X165100Y-120650D03*
D24*
X603250Y-228600D02*
X635000Y-228600D01*
X603250Y-228600D02*
X577850Y-203200D01*
X577850Y-177800D01*
X577850Y-107950D01*
X488950Y-107950D01*
X488950Y-133350D01*
D22*
X635000Y-228600D02*
X654050Y-247650D01*
X603250Y-177800D02*
X577850Y-177800D01*
D24*
X196850Y-133350D02*
X184150Y-133350D01*
X177800Y-127000D01*
X431800Y-44450D02*
X552450Y-44450D01*
X666750Y-44450D01*
X673100Y-50800D01*
X673100Y-69850D01*
X552450Y-69850D02*
X552450Y-44450D01*
X431800Y-44450D02*
X431800Y-69850D01*
D22*
X615950Y-139700D02*
X622300Y-133350D01*
X660400Y-133350D01*
X673100Y-120650D01*
X673100Y-69850D01*
D25*
X177800Y-101600D02*
X177800Y-127000D01*
X177800Y-101600D02*
X184150Y-95250D01*
X336550Y-95250D01*
X336550Y-44450D01*
X431800Y-44450D01*
D22*
X622300Y-273050D02*
X654050Y-273050D01*
X622300Y-273050D02*
X577850Y-228600D01*
X539750Y-228600D01*
D23*
X539750Y-228600D03*
M02*
