G04 EAGLE Gerber RS-274X export*
G75*
%MOMM*%
%FSLAX34Y34*%
%LPD*%
%INBottom Copper*%
%IPPOS*%
%AMOC8*
5,1,8,0,0,1.08239X$1,22.5*%
G01*
%ADD10C,1.508000*%
%ADD11C,1.320800*%
%ADD12P,1.429621X8X112.500000*%
%ADD13C,1.676400*%
%ADD14P,1.649562X8X292.500000*%
%ADD15P,1.429621X8X22.500000*%
%ADD16P,1.429621X8X202.500000*%
%ADD17P,1.429621X8X292.500000*%
%ADD18P,1.704548X8X292.500000*%
%ADD19C,1.574800*%
%ADD20P,3.409096X8X22.500000*%
%ADD21C,1.981200*%
%ADD22C,0.254000*%
%ADD23C,0.756400*%
%ADD24C,0.203200*%
%ADD25C,0.152400*%

G36*
X32288Y-516119D02*
X32288Y-516119D01*
X32358Y-516120D01*
X32445Y-516099D01*
X32534Y-516087D01*
X32599Y-516062D01*
X32667Y-516045D01*
X32746Y-516003D01*
X32830Y-515970D01*
X32886Y-515929D01*
X32948Y-515897D01*
X33015Y-515836D01*
X33087Y-515784D01*
X33132Y-515730D01*
X33183Y-515683D01*
X33233Y-515608D01*
X33290Y-515539D01*
X33320Y-515475D01*
X33358Y-515417D01*
X33387Y-515332D01*
X33426Y-515251D01*
X33439Y-515182D01*
X33461Y-515116D01*
X33468Y-515027D01*
X33485Y-514939D01*
X33481Y-514869D01*
X33487Y-514799D01*
X33471Y-514711D01*
X33466Y-514621D01*
X33444Y-514555D01*
X33432Y-514486D01*
X33395Y-514404D01*
X33368Y-514319D01*
X33330Y-514260D01*
X33302Y-514196D01*
X33245Y-514126D01*
X33197Y-514050D01*
X33147Y-514002D01*
X33103Y-513948D01*
X33031Y-513893D01*
X32966Y-513832D01*
X32905Y-513798D01*
X32849Y-513756D01*
X32704Y-513685D01*
X27309Y-511450D01*
X21950Y-506091D01*
X19049Y-499089D01*
X19049Y-491511D01*
X21950Y-484509D01*
X27309Y-479150D01*
X34311Y-476249D01*
X41889Y-476249D01*
X48891Y-479150D01*
X54250Y-484509D01*
X57151Y-491511D01*
X57151Y-499089D01*
X54250Y-506091D01*
X48891Y-511450D01*
X43496Y-513685D01*
X43435Y-513720D01*
X43370Y-513746D01*
X43298Y-513798D01*
X43219Y-513843D01*
X43169Y-513891D01*
X43113Y-513932D01*
X43055Y-514002D01*
X42991Y-514064D01*
X42955Y-514124D01*
X42910Y-514177D01*
X42872Y-514259D01*
X42825Y-514335D01*
X42804Y-514402D01*
X42774Y-514465D01*
X42758Y-514553D01*
X42731Y-514639D01*
X42728Y-514709D01*
X42715Y-514778D01*
X42720Y-514867D01*
X42716Y-514957D01*
X42730Y-515025D01*
X42734Y-515095D01*
X42762Y-515180D01*
X42780Y-515268D01*
X42811Y-515331D01*
X42832Y-515397D01*
X42880Y-515473D01*
X42920Y-515554D01*
X42965Y-515607D01*
X43003Y-515666D01*
X43068Y-515728D01*
X43126Y-515796D01*
X43183Y-515836D01*
X43234Y-515884D01*
X43313Y-515927D01*
X43386Y-515979D01*
X43452Y-516004D01*
X43513Y-516038D01*
X43600Y-516060D01*
X43684Y-516092D01*
X43753Y-516100D01*
X43821Y-516117D01*
X43981Y-516127D01*
X711669Y-516127D01*
X711738Y-516119D01*
X711808Y-516120D01*
X711895Y-516099D01*
X711984Y-516087D01*
X712049Y-516062D01*
X712117Y-516045D01*
X712196Y-516003D01*
X712280Y-515970D01*
X712336Y-515929D01*
X712398Y-515897D01*
X712465Y-515836D01*
X712537Y-515784D01*
X712582Y-515730D01*
X712633Y-515683D01*
X712683Y-515608D01*
X712740Y-515539D01*
X712770Y-515475D01*
X712808Y-515417D01*
X712837Y-515332D01*
X712876Y-515251D01*
X712889Y-515182D01*
X712911Y-515116D01*
X712918Y-515027D01*
X712935Y-514939D01*
X712931Y-514869D01*
X712937Y-514799D01*
X712921Y-514711D01*
X712916Y-514621D01*
X712894Y-514555D01*
X712882Y-514486D01*
X712845Y-514404D01*
X712818Y-514319D01*
X712780Y-514260D01*
X712752Y-514196D01*
X712695Y-514126D01*
X712647Y-514050D01*
X712597Y-514002D01*
X712553Y-513948D01*
X712481Y-513893D01*
X712416Y-513832D01*
X712355Y-513798D01*
X712299Y-513756D01*
X712154Y-513685D01*
X706759Y-511450D01*
X701400Y-506091D01*
X698499Y-499089D01*
X698499Y-491511D01*
X701400Y-484509D01*
X706759Y-479150D01*
X713761Y-476249D01*
X721339Y-476249D01*
X728341Y-479150D01*
X733700Y-484509D01*
X736601Y-491511D01*
X736601Y-499089D01*
X733700Y-506091D01*
X728341Y-511450D01*
X722946Y-513685D01*
X722885Y-513720D01*
X722820Y-513746D01*
X722748Y-513798D01*
X722669Y-513843D01*
X722619Y-513891D01*
X722563Y-513932D01*
X722505Y-514002D01*
X722441Y-514064D01*
X722405Y-514124D01*
X722360Y-514177D01*
X722322Y-514259D01*
X722275Y-514335D01*
X722254Y-514402D01*
X722224Y-514465D01*
X722208Y-514553D01*
X722181Y-514639D01*
X722178Y-514709D01*
X722165Y-514778D01*
X722170Y-514867D01*
X722166Y-514957D01*
X722180Y-515025D01*
X722184Y-515095D01*
X722212Y-515180D01*
X722230Y-515268D01*
X722261Y-515331D01*
X722282Y-515397D01*
X722330Y-515473D01*
X722370Y-515554D01*
X722415Y-515607D01*
X722453Y-515666D01*
X722518Y-515728D01*
X722576Y-515796D01*
X722633Y-515836D01*
X722684Y-515884D01*
X722763Y-515927D01*
X722836Y-515979D01*
X722902Y-516004D01*
X722963Y-516038D01*
X723050Y-516060D01*
X723134Y-516092D01*
X723203Y-516100D01*
X723271Y-516117D01*
X723431Y-516127D01*
X749300Y-516127D01*
X749418Y-516112D01*
X749537Y-516105D01*
X749575Y-516092D01*
X749616Y-516087D01*
X749726Y-516044D01*
X749839Y-516007D01*
X749874Y-515985D01*
X749911Y-515970D01*
X750007Y-515901D01*
X750108Y-515837D01*
X750136Y-515807D01*
X750169Y-515784D01*
X750245Y-515692D01*
X750326Y-515605D01*
X750346Y-515570D01*
X750371Y-515539D01*
X750422Y-515431D01*
X750480Y-515327D01*
X750490Y-515287D01*
X750507Y-515251D01*
X750529Y-515134D01*
X750559Y-515019D01*
X750563Y-514959D01*
X750567Y-514939D01*
X750565Y-514918D01*
X750569Y-514858D01*
X750569Y-12192D01*
X750554Y-12074D01*
X750547Y-11955D01*
X750534Y-11917D01*
X750529Y-11876D01*
X750486Y-11766D01*
X750449Y-11653D01*
X750427Y-11618D01*
X750412Y-11581D01*
X750343Y-11485D01*
X750279Y-11384D01*
X750249Y-11356D01*
X750226Y-11323D01*
X750134Y-11247D01*
X750047Y-11166D01*
X750012Y-11146D01*
X749981Y-11121D01*
X749873Y-11070D01*
X749769Y-11012D01*
X749729Y-11002D01*
X749693Y-10985D01*
X749576Y-10963D01*
X749461Y-10933D01*
X749401Y-10929D01*
X749381Y-10925D01*
X749360Y-10927D01*
X749300Y-10923D01*
X723431Y-10923D01*
X723362Y-10931D01*
X723292Y-10930D01*
X723205Y-10951D01*
X723116Y-10963D01*
X723051Y-10988D01*
X722983Y-11005D01*
X722904Y-11047D01*
X722820Y-11080D01*
X722764Y-11121D01*
X722702Y-11153D01*
X722635Y-11214D01*
X722563Y-11266D01*
X722518Y-11320D01*
X722467Y-11367D01*
X722417Y-11442D01*
X722360Y-11511D01*
X722330Y-11575D01*
X722292Y-11633D01*
X722263Y-11718D01*
X722224Y-11799D01*
X722211Y-11868D01*
X722189Y-11934D01*
X722182Y-12023D01*
X722165Y-12111D01*
X722169Y-12181D01*
X722163Y-12251D01*
X722179Y-12339D01*
X722184Y-12429D01*
X722206Y-12495D01*
X722218Y-12564D01*
X722255Y-12646D01*
X722282Y-12731D01*
X722320Y-12790D01*
X722348Y-12854D01*
X722405Y-12924D01*
X722453Y-13000D01*
X722503Y-13048D01*
X722547Y-13102D01*
X722619Y-13157D01*
X722684Y-13218D01*
X722745Y-13252D01*
X722801Y-13294D01*
X722946Y-13365D01*
X728341Y-15600D01*
X733700Y-20959D01*
X736601Y-27961D01*
X736601Y-35539D01*
X733700Y-42541D01*
X728341Y-47900D01*
X721339Y-50801D01*
X713761Y-50801D01*
X706759Y-47900D01*
X701400Y-42541D01*
X698499Y-35539D01*
X698499Y-27961D01*
X701400Y-20959D01*
X706759Y-15600D01*
X712154Y-13365D01*
X712215Y-13330D01*
X712280Y-13304D01*
X712352Y-13252D01*
X712431Y-13207D01*
X712481Y-13159D01*
X712537Y-13118D01*
X712595Y-13048D01*
X712659Y-12986D01*
X712695Y-12926D01*
X712740Y-12873D01*
X712778Y-12791D01*
X712825Y-12715D01*
X712846Y-12648D01*
X712876Y-12585D01*
X712892Y-12497D01*
X712919Y-12411D01*
X712922Y-12341D01*
X712935Y-12272D01*
X712930Y-12183D01*
X712934Y-12093D01*
X712920Y-12025D01*
X712916Y-11955D01*
X712888Y-11870D01*
X712870Y-11782D01*
X712839Y-11719D01*
X712818Y-11653D01*
X712770Y-11577D01*
X712730Y-11496D01*
X712685Y-11443D01*
X712647Y-11384D01*
X712582Y-11322D01*
X712524Y-11254D01*
X712467Y-11214D01*
X712416Y-11166D01*
X712337Y-11123D01*
X712264Y-11071D01*
X712198Y-11046D01*
X712137Y-11012D01*
X712050Y-10990D01*
X711966Y-10958D01*
X711897Y-10950D01*
X711829Y-10933D01*
X711669Y-10923D01*
X43981Y-10923D01*
X43912Y-10931D01*
X43842Y-10930D01*
X43755Y-10951D01*
X43666Y-10963D01*
X43601Y-10988D01*
X43533Y-11005D01*
X43454Y-11047D01*
X43370Y-11080D01*
X43314Y-11121D01*
X43252Y-11153D01*
X43185Y-11214D01*
X43113Y-11266D01*
X43068Y-11320D01*
X43017Y-11367D01*
X42967Y-11442D01*
X42910Y-11511D01*
X42880Y-11575D01*
X42842Y-11633D01*
X42813Y-11718D01*
X42774Y-11799D01*
X42761Y-11868D01*
X42739Y-11934D01*
X42732Y-12023D01*
X42715Y-12111D01*
X42719Y-12181D01*
X42713Y-12251D01*
X42729Y-12339D01*
X42734Y-12429D01*
X42756Y-12495D01*
X42768Y-12564D01*
X42805Y-12646D01*
X42832Y-12731D01*
X42870Y-12790D01*
X42898Y-12854D01*
X42955Y-12924D01*
X43003Y-13000D01*
X43053Y-13048D01*
X43097Y-13102D01*
X43169Y-13157D01*
X43234Y-13218D01*
X43295Y-13252D01*
X43351Y-13294D01*
X43496Y-13365D01*
X48891Y-15600D01*
X54250Y-20959D01*
X57151Y-27961D01*
X57151Y-35539D01*
X54250Y-42541D01*
X48891Y-47900D01*
X41889Y-50801D01*
X34311Y-50801D01*
X27309Y-47900D01*
X21950Y-42541D01*
X19049Y-35539D01*
X19049Y-27961D01*
X21950Y-20959D01*
X27309Y-15600D01*
X32704Y-13365D01*
X32765Y-13330D01*
X32830Y-13304D01*
X32902Y-13252D01*
X32981Y-13207D01*
X33031Y-13159D01*
X33087Y-13118D01*
X33145Y-13048D01*
X33209Y-12986D01*
X33245Y-12926D01*
X33290Y-12873D01*
X33328Y-12791D01*
X33375Y-12715D01*
X33396Y-12648D01*
X33426Y-12585D01*
X33442Y-12497D01*
X33469Y-12411D01*
X33472Y-12341D01*
X33485Y-12272D01*
X33480Y-12183D01*
X33484Y-12093D01*
X33470Y-12025D01*
X33466Y-11955D01*
X33438Y-11870D01*
X33420Y-11782D01*
X33389Y-11719D01*
X33368Y-11653D01*
X33320Y-11577D01*
X33280Y-11496D01*
X33235Y-11443D01*
X33197Y-11384D01*
X33132Y-11322D01*
X33074Y-11254D01*
X33017Y-11214D01*
X32966Y-11166D01*
X32887Y-11123D01*
X32814Y-11071D01*
X32748Y-11046D01*
X32687Y-11012D01*
X32600Y-10990D01*
X32516Y-10958D01*
X32447Y-10950D01*
X32379Y-10933D01*
X32219Y-10923D01*
X12700Y-10923D01*
X12582Y-10938D01*
X12463Y-10945D01*
X12425Y-10958D01*
X12384Y-10963D01*
X12274Y-11006D01*
X12161Y-11043D01*
X12126Y-11065D01*
X12089Y-11080D01*
X11993Y-11149D01*
X11892Y-11213D01*
X11864Y-11243D01*
X11831Y-11266D01*
X11756Y-11358D01*
X11674Y-11445D01*
X11654Y-11480D01*
X11629Y-11511D01*
X11578Y-11619D01*
X11520Y-11723D01*
X11510Y-11763D01*
X11493Y-11799D01*
X11471Y-11916D01*
X11441Y-12031D01*
X11437Y-12091D01*
X11433Y-12111D01*
X11435Y-12132D01*
X11431Y-12192D01*
X11431Y-514858D01*
X11446Y-514976D01*
X11453Y-515095D01*
X11466Y-515133D01*
X11471Y-515174D01*
X11514Y-515284D01*
X11551Y-515397D01*
X11573Y-515432D01*
X11588Y-515469D01*
X11658Y-515565D01*
X11721Y-515666D01*
X11751Y-515694D01*
X11774Y-515727D01*
X11866Y-515803D01*
X11953Y-515884D01*
X11988Y-515904D01*
X12019Y-515929D01*
X12127Y-515980D01*
X12231Y-516038D01*
X12271Y-516048D01*
X12307Y-516065D01*
X12424Y-516087D01*
X12539Y-516117D01*
X12600Y-516121D01*
X12620Y-516125D01*
X12640Y-516123D01*
X12700Y-516127D01*
X32219Y-516127D01*
X32288Y-516119D01*
G37*
%LPC*%
G36*
X344917Y-488570D02*
X344917Y-488570D01*
X297664Y-441316D01*
X297586Y-441256D01*
X297514Y-441188D01*
X297461Y-441159D01*
X297413Y-441122D01*
X297322Y-441082D01*
X297235Y-441034D01*
X297177Y-441019D01*
X297121Y-440995D01*
X297023Y-440980D01*
X296927Y-440955D01*
X296827Y-440949D01*
X296807Y-440945D01*
X296795Y-440947D01*
X296767Y-440945D01*
X151242Y-440945D01*
X149605Y-439308D01*
X149605Y-230283D01*
X149593Y-230185D01*
X149590Y-230086D01*
X149573Y-230028D01*
X149565Y-229968D01*
X149529Y-229876D01*
X149501Y-229781D01*
X149471Y-229728D01*
X149448Y-229672D01*
X149390Y-229592D01*
X149340Y-229507D01*
X149274Y-229431D01*
X149262Y-229415D01*
X149252Y-229407D01*
X149234Y-229386D01*
X135866Y-216018D01*
X135788Y-215958D01*
X135716Y-215890D01*
X135663Y-215861D01*
X135615Y-215824D01*
X135524Y-215784D01*
X135437Y-215736D01*
X135379Y-215721D01*
X135323Y-215697D01*
X135225Y-215682D01*
X135129Y-215657D01*
X135029Y-215651D01*
X135009Y-215647D01*
X134997Y-215649D01*
X134969Y-215647D01*
X113538Y-215647D01*
X113420Y-215662D01*
X113301Y-215669D01*
X113263Y-215682D01*
X113222Y-215687D01*
X113112Y-215730D01*
X112999Y-215767D01*
X112964Y-215789D01*
X112927Y-215804D01*
X112831Y-215873D01*
X112730Y-215937D01*
X112702Y-215967D01*
X112669Y-215990D01*
X112593Y-216082D01*
X112512Y-216169D01*
X112492Y-216204D01*
X112467Y-216235D01*
X112416Y-216343D01*
X112358Y-216447D01*
X112348Y-216487D01*
X112331Y-216523D01*
X112318Y-216590D01*
X106912Y-221997D01*
X99336Y-221997D01*
X93979Y-216640D01*
X93979Y-209064D01*
X99336Y-203707D01*
X106912Y-203707D01*
X112309Y-209104D01*
X112352Y-209214D01*
X112389Y-209327D01*
X112411Y-209362D01*
X112426Y-209399D01*
X112495Y-209495D01*
X112559Y-209596D01*
X112589Y-209624D01*
X112612Y-209657D01*
X112704Y-209733D01*
X112791Y-209814D01*
X112826Y-209834D01*
X112857Y-209859D01*
X112965Y-209910D01*
X113069Y-209968D01*
X113109Y-209978D01*
X113145Y-209995D01*
X113262Y-210017D01*
X113377Y-210047D01*
X113437Y-210051D01*
X113457Y-210055D01*
X113478Y-210053D01*
X113538Y-210057D01*
X137810Y-210057D01*
X155195Y-227442D01*
X155195Y-434086D01*
X155210Y-434204D01*
X155217Y-434323D01*
X155230Y-434361D01*
X155235Y-434402D01*
X155278Y-434512D01*
X155315Y-434625D01*
X155337Y-434660D01*
X155352Y-434697D01*
X155421Y-434793D01*
X155485Y-434894D01*
X155515Y-434922D01*
X155538Y-434955D01*
X155630Y-435031D01*
X155717Y-435112D01*
X155752Y-435132D01*
X155783Y-435157D01*
X155891Y-435208D01*
X155995Y-435266D01*
X156035Y-435276D01*
X156071Y-435293D01*
X156188Y-435315D01*
X156303Y-435345D01*
X156363Y-435349D01*
X156383Y-435353D01*
X156404Y-435351D01*
X156464Y-435355D01*
X174339Y-435355D01*
X174477Y-435338D01*
X174615Y-435325D01*
X174634Y-435318D01*
X174654Y-435315D01*
X174784Y-435264D01*
X174914Y-435217D01*
X174931Y-435206D01*
X174950Y-435198D01*
X175062Y-435117D01*
X175177Y-435039D01*
X175191Y-435023D01*
X175207Y-435012D01*
X175296Y-434904D01*
X175388Y-434800D01*
X175397Y-434782D01*
X175410Y-434767D01*
X175469Y-434641D01*
X175533Y-434517D01*
X175537Y-434497D01*
X175546Y-434479D01*
X175572Y-434343D01*
X175602Y-434207D01*
X175602Y-434186D01*
X175605Y-434167D01*
X175597Y-434028D01*
X175593Y-433889D01*
X175587Y-433869D01*
X175586Y-433849D01*
X175543Y-433717D01*
X175504Y-433583D01*
X175494Y-433566D01*
X175488Y-433547D01*
X175413Y-433429D01*
X175343Y-433309D01*
X175324Y-433288D01*
X175317Y-433278D01*
X175303Y-433264D01*
X175236Y-433188D01*
X174634Y-432586D01*
X168655Y-426608D01*
X168655Y-424292D01*
X168792Y-424156D01*
X168852Y-424078D01*
X168920Y-424006D01*
X168949Y-423953D01*
X168986Y-423905D01*
X169026Y-423814D01*
X169074Y-423727D01*
X169089Y-423669D01*
X169113Y-423613D01*
X169128Y-423515D01*
X169153Y-423419D01*
X169159Y-423319D01*
X169163Y-423299D01*
X169161Y-423287D01*
X169163Y-423259D01*
X169163Y-223723D01*
X169151Y-223625D01*
X169148Y-223526D01*
X169131Y-223468D01*
X169123Y-223407D01*
X169087Y-223315D01*
X169059Y-223220D01*
X169029Y-223168D01*
X169006Y-223112D01*
X168948Y-223032D01*
X168898Y-222946D01*
X168832Y-222871D01*
X168820Y-222854D01*
X168810Y-222847D01*
X168792Y-222825D01*
X134045Y-188078D01*
X133966Y-188018D01*
X133894Y-187950D01*
X133841Y-187921D01*
X133793Y-187884D01*
X133702Y-187844D01*
X133616Y-187796D01*
X133557Y-187781D01*
X133501Y-187757D01*
X133403Y-187742D01*
X133308Y-187717D01*
X133208Y-187711D01*
X133187Y-187707D01*
X133175Y-187709D01*
X133147Y-187707D01*
X113538Y-187707D01*
X113420Y-187722D01*
X113301Y-187729D01*
X113263Y-187742D01*
X113222Y-187747D01*
X113112Y-187790D01*
X112999Y-187827D01*
X112964Y-187849D01*
X112927Y-187864D01*
X112831Y-187933D01*
X112730Y-187997D01*
X112702Y-188027D01*
X112669Y-188050D01*
X112593Y-188142D01*
X112512Y-188229D01*
X112492Y-188264D01*
X112467Y-188295D01*
X112416Y-188403D01*
X112358Y-188507D01*
X112348Y-188547D01*
X112331Y-188583D01*
X112309Y-188700D01*
X112279Y-188815D01*
X112275Y-188875D01*
X112271Y-188895D01*
X112273Y-188916D01*
X112269Y-188976D01*
X112269Y-189208D01*
X106912Y-194565D01*
X99336Y-194565D01*
X93979Y-189208D01*
X93979Y-181632D01*
X99336Y-176275D01*
X106912Y-176275D01*
X112269Y-181632D01*
X112269Y-181864D01*
X112284Y-181982D01*
X112291Y-182101D01*
X112304Y-182139D01*
X112309Y-182180D01*
X112352Y-182290D01*
X112389Y-182403D01*
X112411Y-182438D01*
X112426Y-182475D01*
X112495Y-182571D01*
X112559Y-182672D01*
X112589Y-182700D01*
X112612Y-182733D01*
X112704Y-182809D01*
X112791Y-182890D01*
X112826Y-182910D01*
X112857Y-182935D01*
X112965Y-182986D01*
X113069Y-183044D01*
X113109Y-183054D01*
X113145Y-183071D01*
X113262Y-183093D01*
X113377Y-183123D01*
X113437Y-183127D01*
X113457Y-183131D01*
X113478Y-183129D01*
X113538Y-183133D01*
X135567Y-183133D01*
X153789Y-201355D01*
X153898Y-201440D01*
X154005Y-201528D01*
X154024Y-201537D01*
X154040Y-201550D01*
X154168Y-201605D01*
X154293Y-201664D01*
X154313Y-201668D01*
X154332Y-201676D01*
X154470Y-201698D01*
X154606Y-201724D01*
X154626Y-201723D01*
X154646Y-201726D01*
X154785Y-201713D01*
X154923Y-201704D01*
X154942Y-201698D01*
X154962Y-201696D01*
X155094Y-201649D01*
X155225Y-201606D01*
X155243Y-201595D01*
X155262Y-201588D01*
X155377Y-201510D01*
X155494Y-201436D01*
X155508Y-201421D01*
X155525Y-201410D01*
X155617Y-201306D01*
X155712Y-201204D01*
X155722Y-201186D01*
X155735Y-201171D01*
X155799Y-201047D01*
X155866Y-200926D01*
X155871Y-200906D01*
X155880Y-200888D01*
X155910Y-200752D01*
X155945Y-200618D01*
X155947Y-200590D01*
X155950Y-200578D01*
X155949Y-200557D01*
X155955Y-200457D01*
X155955Y-173133D01*
X155943Y-173035D01*
X155940Y-172936D01*
X155923Y-172878D01*
X155915Y-172818D01*
X155879Y-172726D01*
X155851Y-172631D01*
X155821Y-172578D01*
X155798Y-172522D01*
X155740Y-172442D01*
X155690Y-172357D01*
X155624Y-172281D01*
X155612Y-172265D01*
X155602Y-172257D01*
X155584Y-172236D01*
X126214Y-142866D01*
X126136Y-142806D01*
X126064Y-142738D01*
X126011Y-142709D01*
X125963Y-142672D01*
X125872Y-142632D01*
X125785Y-142584D01*
X125727Y-142569D01*
X125671Y-142545D01*
X125573Y-142530D01*
X125477Y-142505D01*
X125377Y-142499D01*
X125357Y-142495D01*
X125345Y-142497D01*
X125317Y-142495D01*
X84233Y-142495D01*
X84135Y-142507D01*
X84036Y-142510D01*
X83978Y-142527D01*
X83918Y-142535D01*
X83826Y-142571D01*
X83731Y-142599D01*
X83678Y-142629D01*
X83622Y-142652D01*
X83542Y-142710D01*
X83457Y-142760D01*
X83381Y-142826D01*
X83365Y-142838D01*
X83357Y-142848D01*
X83336Y-142866D01*
X77842Y-148360D01*
X77782Y-148438D01*
X77714Y-148510D01*
X77685Y-148563D01*
X77648Y-148611D01*
X77608Y-148702D01*
X77560Y-148789D01*
X77545Y-148847D01*
X77521Y-148903D01*
X77506Y-149001D01*
X77481Y-149097D01*
X77475Y-149197D01*
X77471Y-149217D01*
X77473Y-149229D01*
X77471Y-149257D01*
X77471Y-161290D01*
X77486Y-161408D01*
X77493Y-161527D01*
X77506Y-161565D01*
X77511Y-161606D01*
X77554Y-161716D01*
X77591Y-161829D01*
X77613Y-161864D01*
X77628Y-161901D01*
X77697Y-161997D01*
X77761Y-162098D01*
X77791Y-162126D01*
X77814Y-162159D01*
X77906Y-162235D01*
X77993Y-162316D01*
X78028Y-162336D01*
X78059Y-162361D01*
X78167Y-162412D01*
X78271Y-162470D01*
X78311Y-162480D01*
X78347Y-162497D01*
X78414Y-162510D01*
X83821Y-167916D01*
X83821Y-175492D01*
X78464Y-180849D01*
X70888Y-180849D01*
X65531Y-175492D01*
X65531Y-167916D01*
X70928Y-162519D01*
X71038Y-162476D01*
X71151Y-162439D01*
X71186Y-162417D01*
X71223Y-162402D01*
X71319Y-162333D01*
X71420Y-162269D01*
X71448Y-162239D01*
X71481Y-162216D01*
X71557Y-162124D01*
X71638Y-162037D01*
X71658Y-162002D01*
X71683Y-161971D01*
X71734Y-161863D01*
X71792Y-161759D01*
X71802Y-161719D01*
X71819Y-161683D01*
X71841Y-161566D01*
X71871Y-161451D01*
X71875Y-161391D01*
X71879Y-161371D01*
X71877Y-161350D01*
X71881Y-161290D01*
X71881Y-146416D01*
X81392Y-136905D01*
X128158Y-136905D01*
X161545Y-170292D01*
X161545Y-201517D01*
X161557Y-201615D01*
X161560Y-201714D01*
X161577Y-201772D01*
X161585Y-201832D01*
X161621Y-201924D01*
X161649Y-202019D01*
X161679Y-202072D01*
X161702Y-202128D01*
X161760Y-202208D01*
X161810Y-202293D01*
X161876Y-202369D01*
X161888Y-202385D01*
X161898Y-202393D01*
X161916Y-202414D01*
X180595Y-221092D01*
X180595Y-239617D01*
X180607Y-239715D01*
X180610Y-239814D01*
X180627Y-239872D01*
X180635Y-239932D01*
X180671Y-240024D01*
X180699Y-240119D01*
X180729Y-240172D01*
X180752Y-240228D01*
X180810Y-240308D01*
X180860Y-240393D01*
X180926Y-240469D01*
X180938Y-240485D01*
X180948Y-240493D01*
X180966Y-240514D01*
X191286Y-250834D01*
X191364Y-250894D01*
X191436Y-250962D01*
X191489Y-250991D01*
X191537Y-251028D01*
X191628Y-251068D01*
X191715Y-251116D01*
X191773Y-251131D01*
X191829Y-251155D01*
X191927Y-251170D01*
X192023Y-251195D01*
X192123Y-251201D01*
X192143Y-251205D01*
X192155Y-251203D01*
X192183Y-251205D01*
X325008Y-251205D01*
X339345Y-265542D01*
X339345Y-420214D01*
X339357Y-420312D01*
X339360Y-420411D01*
X339377Y-420470D01*
X339385Y-420530D01*
X339421Y-420622D01*
X339449Y-420717D01*
X339479Y-420769D01*
X339502Y-420825D01*
X339560Y-420905D01*
X339610Y-420991D01*
X339676Y-421066D01*
X339688Y-421083D01*
X339698Y-421090D01*
X339716Y-421112D01*
X341049Y-422444D01*
X341857Y-424394D01*
X341857Y-426506D01*
X341049Y-428456D01*
X339556Y-429949D01*
X337606Y-430757D01*
X335494Y-430757D01*
X333544Y-429949D01*
X332051Y-428456D01*
X331243Y-426506D01*
X331243Y-424394D01*
X332051Y-422444D01*
X333384Y-421112D01*
X333444Y-421033D01*
X333512Y-420961D01*
X333541Y-420908D01*
X333578Y-420860D01*
X333618Y-420769D01*
X333666Y-420683D01*
X333681Y-420624D01*
X333705Y-420568D01*
X333720Y-420471D01*
X333745Y-420375D01*
X333751Y-420275D01*
X333755Y-420254D01*
X333753Y-420242D01*
X333755Y-420214D01*
X333755Y-268383D01*
X333743Y-268285D01*
X333740Y-268186D01*
X333723Y-268128D01*
X333715Y-268068D01*
X333679Y-267976D01*
X333651Y-267881D01*
X333621Y-267828D01*
X333598Y-267772D01*
X333540Y-267692D01*
X333490Y-267607D01*
X333424Y-267531D01*
X333412Y-267515D01*
X333402Y-267507D01*
X333384Y-267486D01*
X323064Y-257166D01*
X322986Y-257106D01*
X322914Y-257038D01*
X322861Y-257009D01*
X322813Y-256972D01*
X322722Y-256932D01*
X322635Y-256884D01*
X322577Y-256869D01*
X322521Y-256845D01*
X322423Y-256830D01*
X322327Y-256805D01*
X322227Y-256799D01*
X322207Y-256795D01*
X322195Y-256797D01*
X322167Y-256795D01*
X189342Y-256795D01*
X187334Y-254786D01*
X175903Y-243356D01*
X175794Y-243271D01*
X175687Y-243182D01*
X175668Y-243173D01*
X175652Y-243161D01*
X175524Y-243105D01*
X175399Y-243046D01*
X175379Y-243043D01*
X175360Y-243035D01*
X175222Y-243013D01*
X175086Y-242987D01*
X175066Y-242988D01*
X175046Y-242985D01*
X174907Y-242998D01*
X174769Y-243006D01*
X174750Y-243013D01*
X174730Y-243014D01*
X174598Y-243062D01*
X174467Y-243104D01*
X174449Y-243115D01*
X174430Y-243122D01*
X174315Y-243200D01*
X174198Y-243275D01*
X174184Y-243289D01*
X174167Y-243301D01*
X174075Y-243405D01*
X173980Y-243506D01*
X173970Y-243524D01*
X173957Y-243539D01*
X173893Y-243663D01*
X173826Y-243785D01*
X173821Y-243804D01*
X173812Y-243822D01*
X173782Y-243958D01*
X173747Y-244093D01*
X173745Y-244121D01*
X173742Y-244133D01*
X173743Y-244153D01*
X173737Y-244253D01*
X173737Y-423259D01*
X173749Y-423357D01*
X173752Y-423456D01*
X173769Y-423514D01*
X173777Y-423574D01*
X173813Y-423666D01*
X173841Y-423761D01*
X173871Y-423814D01*
X173894Y-423870D01*
X173952Y-423950D01*
X174002Y-424035D01*
X174068Y-424111D01*
X174080Y-424127D01*
X174090Y-424135D01*
X174108Y-424156D01*
X178586Y-428634D01*
X178664Y-428694D01*
X178736Y-428762D01*
X178789Y-428791D01*
X178837Y-428828D01*
X178928Y-428868D01*
X179015Y-428916D01*
X179073Y-428931D01*
X179129Y-428955D01*
X179227Y-428970D01*
X179323Y-428995D01*
X179423Y-429001D01*
X179443Y-429005D01*
X179455Y-429003D01*
X179483Y-429005D01*
X305958Y-429005D01*
X330986Y-454034D01*
X331064Y-454094D01*
X331136Y-454162D01*
X331189Y-454191D01*
X331237Y-454228D01*
X331328Y-454268D01*
X331415Y-454316D01*
X331473Y-454331D01*
X331529Y-454355D01*
X331627Y-454370D01*
X331723Y-454395D01*
X331823Y-454401D01*
X331843Y-454405D01*
X331855Y-454403D01*
X331883Y-454405D01*
X607917Y-454405D01*
X608015Y-454393D01*
X608114Y-454390D01*
X608172Y-454373D01*
X608232Y-454365D01*
X608324Y-454329D01*
X608419Y-454301D01*
X608472Y-454271D01*
X608528Y-454248D01*
X608608Y-454190D01*
X608693Y-454140D01*
X608769Y-454074D01*
X608785Y-454062D01*
X608793Y-454052D01*
X608814Y-454034D01*
X617450Y-445397D01*
X617523Y-445303D01*
X617602Y-445214D01*
X617620Y-445178D01*
X617645Y-445146D01*
X617692Y-445037D01*
X617747Y-444931D01*
X617755Y-444892D01*
X617771Y-444854D01*
X617790Y-444737D01*
X617816Y-444621D01*
X617815Y-444580D01*
X617821Y-444540D01*
X617810Y-444422D01*
X617807Y-444303D01*
X617795Y-444264D01*
X617791Y-444224D01*
X617751Y-444111D01*
X617718Y-443997D01*
X617698Y-443962D01*
X617684Y-443924D01*
X617617Y-443826D01*
X617557Y-443723D01*
X617517Y-443678D01*
X617505Y-443661D01*
X617490Y-443648D01*
X617450Y-443602D01*
X599651Y-425803D01*
X599557Y-425730D01*
X599468Y-425652D01*
X599432Y-425633D01*
X599400Y-425608D01*
X599290Y-425561D01*
X599185Y-425507D01*
X599145Y-425498D01*
X599108Y-425482D01*
X598990Y-425463D01*
X598874Y-425437D01*
X598834Y-425439D01*
X598794Y-425432D01*
X598675Y-425443D01*
X598556Y-425447D01*
X598518Y-425458D01*
X598477Y-425462D01*
X598365Y-425502D01*
X598251Y-425535D01*
X598216Y-425556D01*
X598178Y-425570D01*
X598079Y-425637D01*
X597977Y-425697D01*
X597932Y-425737D01*
X597915Y-425748D01*
X597901Y-425764D01*
X597856Y-425803D01*
X595685Y-427975D01*
X592353Y-429355D01*
X588747Y-429355D01*
X585415Y-427975D01*
X582865Y-425425D01*
X581485Y-422093D01*
X581485Y-403407D01*
X582865Y-400075D01*
X585415Y-397525D01*
X588747Y-396145D01*
X592353Y-396145D01*
X595685Y-397525D01*
X598235Y-400075D01*
X599615Y-403407D01*
X599615Y-417337D01*
X599627Y-417435D01*
X599630Y-417534D01*
X599647Y-417592D01*
X599655Y-417652D01*
X599691Y-417744D01*
X599719Y-417839D01*
X599749Y-417892D01*
X599772Y-417948D01*
X599830Y-418028D01*
X599880Y-418113D01*
X599946Y-418189D01*
X599958Y-418205D01*
X599968Y-418213D01*
X599986Y-418234D01*
X623086Y-441334D01*
X625466Y-443714D01*
X635786Y-454034D01*
X635864Y-454094D01*
X635936Y-454162D01*
X635989Y-454191D01*
X636037Y-454228D01*
X636128Y-454268D01*
X636215Y-454316D01*
X636273Y-454331D01*
X636329Y-454355D01*
X636427Y-454370D01*
X636523Y-454395D01*
X636623Y-454401D01*
X636643Y-454405D01*
X636655Y-454403D01*
X636683Y-454405D01*
X644823Y-454405D01*
X644921Y-454393D01*
X645020Y-454390D01*
X645079Y-454373D01*
X645139Y-454365D01*
X645231Y-454329D01*
X645326Y-454301D01*
X645378Y-454271D01*
X645434Y-454248D01*
X645514Y-454190D01*
X645600Y-454140D01*
X645675Y-454074D01*
X645692Y-454062D01*
X645700Y-454052D01*
X645721Y-454034D01*
X650683Y-449071D01*
X657417Y-449071D01*
X662179Y-453833D01*
X662179Y-460567D01*
X657417Y-465329D01*
X650683Y-465329D01*
X645721Y-460366D01*
X645642Y-460306D01*
X645570Y-460238D01*
X645517Y-460209D01*
X645469Y-460172D01*
X645378Y-460132D01*
X645292Y-460084D01*
X645233Y-460069D01*
X645178Y-460045D01*
X645080Y-460030D01*
X644984Y-460005D01*
X644884Y-459999D01*
X644864Y-459995D01*
X644851Y-459997D01*
X644823Y-459995D01*
X633842Y-459995D01*
X623198Y-449350D01*
X623103Y-449277D01*
X623014Y-449198D01*
X622978Y-449180D01*
X622946Y-449155D01*
X622837Y-449108D01*
X622731Y-449053D01*
X622692Y-449045D01*
X622654Y-449029D01*
X622537Y-449010D01*
X622421Y-448984D01*
X622380Y-448985D01*
X622340Y-448979D01*
X622222Y-448990D01*
X622103Y-448993D01*
X622064Y-449005D01*
X622024Y-449009D01*
X621911Y-449049D01*
X621797Y-449082D01*
X621763Y-449102D01*
X621724Y-449116D01*
X621626Y-449183D01*
X621523Y-449243D01*
X621478Y-449283D01*
X621461Y-449295D01*
X621448Y-449310D01*
X621403Y-449350D01*
X610758Y-459995D01*
X329042Y-459995D01*
X304014Y-434966D01*
X303936Y-434906D01*
X303864Y-434838D01*
X303811Y-434809D01*
X303763Y-434772D01*
X303672Y-434732D01*
X303585Y-434684D01*
X303527Y-434669D01*
X303471Y-434645D01*
X303373Y-434630D01*
X303277Y-434605D01*
X303177Y-434599D01*
X303157Y-434595D01*
X303145Y-434597D01*
X303117Y-434595D01*
X301911Y-434595D01*
X301774Y-434612D01*
X301635Y-434625D01*
X301616Y-434632D01*
X301596Y-434635D01*
X301467Y-434686D01*
X301336Y-434733D01*
X301319Y-434744D01*
X301300Y-434752D01*
X301188Y-434833D01*
X301073Y-434911D01*
X301059Y-434927D01*
X301043Y-434938D01*
X300954Y-435046D01*
X300862Y-435150D01*
X300853Y-435168D01*
X300840Y-435183D01*
X300781Y-435309D01*
X300717Y-435433D01*
X300713Y-435453D01*
X300704Y-435471D01*
X300678Y-435607D01*
X300648Y-435743D01*
X300648Y-435764D01*
X300645Y-435783D01*
X300653Y-435922D01*
X300657Y-436061D01*
X300663Y-436081D01*
X300664Y-436101D01*
X300707Y-436233D01*
X300746Y-436367D01*
X300756Y-436384D01*
X300762Y-436403D01*
X300837Y-436521D01*
X300907Y-436641D01*
X300926Y-436662D01*
X300933Y-436672D01*
X300947Y-436686D01*
X301014Y-436761D01*
X346861Y-482609D01*
X346939Y-482669D01*
X347011Y-482737D01*
X347064Y-482766D01*
X347112Y-482803D01*
X347203Y-482843D01*
X347290Y-482891D01*
X347348Y-482906D01*
X347404Y-482930D01*
X347502Y-482945D01*
X347598Y-482970D01*
X347698Y-482976D01*
X347718Y-482980D01*
X347730Y-482978D01*
X347758Y-482980D01*
X661892Y-482980D01*
X661990Y-482968D01*
X662089Y-482965D01*
X662147Y-482948D01*
X662207Y-482940D01*
X662299Y-482904D01*
X662394Y-482876D01*
X662447Y-482846D01*
X662503Y-482823D01*
X662583Y-482765D01*
X662668Y-482715D01*
X662744Y-482649D01*
X662760Y-482637D01*
X662768Y-482627D01*
X662789Y-482609D01*
X688984Y-456414D01*
X689044Y-456336D01*
X689112Y-456264D01*
X689141Y-456211D01*
X689178Y-456163D01*
X689218Y-456072D01*
X689266Y-455985D01*
X689281Y-455927D01*
X689305Y-455871D01*
X689320Y-455773D01*
X689345Y-455677D01*
X689351Y-455577D01*
X689355Y-455557D01*
X689353Y-455545D01*
X689355Y-455517D01*
X689355Y-350933D01*
X689343Y-350835D01*
X689340Y-350736D01*
X689323Y-350678D01*
X689315Y-350618D01*
X689279Y-350526D01*
X689251Y-350431D01*
X689221Y-350378D01*
X689198Y-350322D01*
X689140Y-350242D01*
X689090Y-350157D01*
X689024Y-350081D01*
X689012Y-350065D01*
X689002Y-350057D01*
X688984Y-350036D01*
X685014Y-346066D01*
X684936Y-346006D01*
X684864Y-345938D01*
X684811Y-345909D01*
X684763Y-345872D01*
X684672Y-345832D01*
X684585Y-345784D01*
X684527Y-345769D01*
X684471Y-345745D01*
X684373Y-345730D01*
X684277Y-345705D01*
X684177Y-345699D01*
X684157Y-345695D01*
X684145Y-345697D01*
X684117Y-345695D01*
X658705Y-345695D01*
X658567Y-345712D01*
X658428Y-345725D01*
X658409Y-345732D01*
X658389Y-345735D01*
X658260Y-345786D01*
X658129Y-345833D01*
X658112Y-345844D01*
X658093Y-345852D01*
X657981Y-345933D01*
X657866Y-346011D01*
X657853Y-346027D01*
X657836Y-346038D01*
X657747Y-346146D01*
X657655Y-346250D01*
X657646Y-346268D01*
X657633Y-346283D01*
X657574Y-346409D01*
X657511Y-346533D01*
X657506Y-346553D01*
X657498Y-346571D01*
X657472Y-346707D01*
X657441Y-346843D01*
X657442Y-346864D01*
X657438Y-346883D01*
X657447Y-347022D01*
X657451Y-347161D01*
X657457Y-347181D01*
X657458Y-347201D01*
X657501Y-347333D01*
X657539Y-347467D01*
X657550Y-347484D01*
X657556Y-347503D01*
X657630Y-347621D01*
X657701Y-347741D01*
X657719Y-347762D01*
X657726Y-347772D01*
X657741Y-347786D01*
X657807Y-347861D01*
X662179Y-352233D01*
X662179Y-358967D01*
X657417Y-363729D01*
X650683Y-363729D01*
X645921Y-358967D01*
X645921Y-352233D01*
X650293Y-347861D01*
X650378Y-347752D01*
X650467Y-347645D01*
X650475Y-347626D01*
X650488Y-347610D01*
X650543Y-347482D01*
X650602Y-347357D01*
X650606Y-347337D01*
X650614Y-347318D01*
X650636Y-347180D01*
X650662Y-347044D01*
X650661Y-347024D01*
X650664Y-347004D01*
X650651Y-346865D01*
X650642Y-346727D01*
X650636Y-346708D01*
X650634Y-346688D01*
X650587Y-346556D01*
X650544Y-346425D01*
X650533Y-346407D01*
X650527Y-346388D01*
X650448Y-346273D01*
X650374Y-346156D01*
X650359Y-346142D01*
X650348Y-346125D01*
X650244Y-346033D01*
X650142Y-345938D01*
X650125Y-345928D01*
X650110Y-345915D01*
X649985Y-345851D01*
X649864Y-345784D01*
X649844Y-345779D01*
X649826Y-345770D01*
X649690Y-345740D01*
X649556Y-345705D01*
X649528Y-345703D01*
X649516Y-345700D01*
X649495Y-345701D01*
X649395Y-345695D01*
X602092Y-345695D01*
X581405Y-325008D01*
X581405Y-274733D01*
X581393Y-274635D01*
X581390Y-274536D01*
X581373Y-274478D01*
X581365Y-274418D01*
X581329Y-274326D01*
X581301Y-274231D01*
X581271Y-274178D01*
X581248Y-274122D01*
X581190Y-274042D01*
X581140Y-273957D01*
X581074Y-273881D01*
X581062Y-273865D01*
X581052Y-273857D01*
X581034Y-273836D01*
X560294Y-253097D01*
X560200Y-253023D01*
X560111Y-252945D01*
X560075Y-252926D01*
X560043Y-252902D01*
X559933Y-252854D01*
X559828Y-252800D01*
X559788Y-252791D01*
X559751Y-252775D01*
X559633Y-252757D01*
X559517Y-252731D01*
X559477Y-252732D01*
X559437Y-252725D01*
X559318Y-252737D01*
X559199Y-252740D01*
X559161Y-252751D01*
X559120Y-252755D01*
X559008Y-252796D01*
X558894Y-252829D01*
X558859Y-252849D01*
X558821Y-252863D01*
X558722Y-252930D01*
X558620Y-252990D01*
X558575Y-253030D01*
X558558Y-253041D01*
X558544Y-253057D01*
X558499Y-253097D01*
X555817Y-255779D01*
X549054Y-255779D01*
X549033Y-255761D01*
X548997Y-255742D01*
X548965Y-255717D01*
X548856Y-255670D01*
X548750Y-255616D01*
X548711Y-255607D01*
X548673Y-255591D01*
X548556Y-255572D01*
X548440Y-255546D01*
X548399Y-255548D01*
X548359Y-255541D01*
X548241Y-255552D01*
X548122Y-255556D01*
X548083Y-255567D01*
X548043Y-255571D01*
X547931Y-255611D01*
X547816Y-255644D01*
X547782Y-255665D01*
X547743Y-255679D01*
X547645Y-255746D01*
X547542Y-255806D01*
X547497Y-255846D01*
X547480Y-255857D01*
X547467Y-255872D01*
X547422Y-255912D01*
X533518Y-269815D01*
X531807Y-271527D01*
X520656Y-271527D01*
X520627Y-271530D01*
X520597Y-271528D01*
X520469Y-271550D01*
X520340Y-271567D01*
X520313Y-271577D01*
X520284Y-271582D01*
X520165Y-271636D01*
X520045Y-271684D01*
X520021Y-271701D01*
X519994Y-271713D01*
X519892Y-271794D01*
X519787Y-271870D01*
X519768Y-271893D01*
X519745Y-271912D01*
X519667Y-272015D01*
X519584Y-272115D01*
X519572Y-272142D01*
X519554Y-272166D01*
X519483Y-272310D01*
X518431Y-274852D01*
X515644Y-277639D01*
X512003Y-279147D01*
X491297Y-279147D01*
X487656Y-277639D01*
X484869Y-274852D01*
X483361Y-271211D01*
X483361Y-267269D01*
X484869Y-263628D01*
X487656Y-260841D01*
X491297Y-259333D01*
X512003Y-259333D01*
X515644Y-260841D01*
X518431Y-263628D01*
X519483Y-266170D01*
X519498Y-266195D01*
X519507Y-266223D01*
X519576Y-266333D01*
X519641Y-266446D01*
X519661Y-266467D01*
X519677Y-266492D01*
X519772Y-266581D01*
X519862Y-266674D01*
X519887Y-266690D01*
X519909Y-266710D01*
X520023Y-266773D01*
X520133Y-266841D01*
X520161Y-266849D01*
X520187Y-266864D01*
X520313Y-266896D01*
X520437Y-266934D01*
X520467Y-266936D01*
X520495Y-266943D01*
X520656Y-266953D01*
X529387Y-266953D01*
X529485Y-266941D01*
X529584Y-266938D01*
X529642Y-266921D01*
X529703Y-266913D01*
X529795Y-266877D01*
X529890Y-266849D01*
X529942Y-266819D01*
X529998Y-266796D01*
X530078Y-266738D01*
X530164Y-266688D01*
X530239Y-266622D01*
X530256Y-266610D01*
X530263Y-266600D01*
X530285Y-266582D01*
X544188Y-252678D01*
X544261Y-252584D01*
X544339Y-252495D01*
X544358Y-252459D01*
X544383Y-252427D01*
X544430Y-252318D01*
X544484Y-252212D01*
X544493Y-252172D01*
X544509Y-252135D01*
X544528Y-252018D01*
X544554Y-251902D01*
X544552Y-251861D01*
X544559Y-251821D01*
X544548Y-251703D01*
X544544Y-251584D01*
X544533Y-251545D01*
X544529Y-251505D01*
X544489Y-251392D01*
X544456Y-251278D01*
X544435Y-251243D01*
X544421Y-251205D01*
X544355Y-251107D01*
X544321Y-251050D01*
X544321Y-244283D01*
X549083Y-239521D01*
X555817Y-239521D01*
X560579Y-244283D01*
X560579Y-244951D01*
X560591Y-245049D01*
X560594Y-245148D01*
X560611Y-245206D01*
X560619Y-245266D01*
X560655Y-245358D01*
X560683Y-245453D01*
X560713Y-245506D01*
X560736Y-245562D01*
X560794Y-245642D01*
X560844Y-245727D01*
X560910Y-245803D01*
X560922Y-245819D01*
X560932Y-245827D01*
X560950Y-245848D01*
X586995Y-271892D01*
X586995Y-322167D01*
X587007Y-322265D01*
X587010Y-322364D01*
X587027Y-322422D01*
X587035Y-322482D01*
X587071Y-322574D01*
X587099Y-322669D01*
X587129Y-322722D01*
X587152Y-322778D01*
X587210Y-322858D01*
X587260Y-322943D01*
X587326Y-323019D01*
X587338Y-323035D01*
X587348Y-323043D01*
X587366Y-323064D01*
X604036Y-339734D01*
X604114Y-339794D01*
X604186Y-339862D01*
X604239Y-339891D01*
X604287Y-339928D01*
X604378Y-339968D01*
X604465Y-340016D01*
X604523Y-340031D01*
X604579Y-340055D01*
X604677Y-340070D01*
X604773Y-340095D01*
X604873Y-340101D01*
X604893Y-340105D01*
X604905Y-340103D01*
X604933Y-340105D01*
X686958Y-340105D01*
X694945Y-348092D01*
X694945Y-458358D01*
X664733Y-488570D01*
X344917Y-488570D01*
G37*
%LPD*%
%LPC*%
G36*
X70888Y-345441D02*
X70888Y-345441D01*
X65531Y-340084D01*
X65531Y-339852D01*
X65516Y-339734D01*
X65509Y-339615D01*
X65496Y-339577D01*
X65491Y-339536D01*
X65448Y-339426D01*
X65411Y-339313D01*
X65389Y-339278D01*
X65374Y-339241D01*
X65305Y-339145D01*
X65241Y-339044D01*
X65211Y-339016D01*
X65188Y-338983D01*
X65096Y-338907D01*
X65009Y-338826D01*
X64974Y-338806D01*
X64943Y-338781D01*
X64835Y-338730D01*
X64731Y-338672D01*
X64691Y-338662D01*
X64655Y-338645D01*
X64538Y-338623D01*
X64423Y-338593D01*
X64363Y-338589D01*
X64343Y-338585D01*
X64322Y-338587D01*
X64262Y-338583D01*
X46177Y-338583D01*
X46079Y-338595D01*
X45980Y-338598D01*
X45922Y-338615D01*
X45861Y-338623D01*
X45769Y-338659D01*
X45674Y-338687D01*
X45622Y-338717D01*
X45566Y-338740D01*
X45486Y-338798D01*
X45420Y-338837D01*
X43503Y-338837D01*
X32638Y-327972D01*
X32638Y-148278D01*
X34349Y-146567D01*
X34350Y-146567D01*
X60842Y-120075D01*
X60842Y-120074D01*
X62553Y-118363D01*
X112827Y-118363D01*
X112925Y-118351D01*
X113024Y-118348D01*
X113082Y-118331D01*
X113143Y-118323D01*
X113235Y-118287D01*
X113330Y-118259D01*
X113382Y-118229D01*
X113438Y-118206D01*
X113518Y-118148D01*
X113604Y-118098D01*
X113679Y-118032D01*
X113696Y-118020D01*
X113703Y-118010D01*
X113725Y-117992D01*
X138753Y-92963D01*
X162909Y-92963D01*
X163007Y-92951D01*
X163106Y-92948D01*
X163164Y-92931D01*
X163224Y-92923D01*
X163316Y-92887D01*
X163411Y-92859D01*
X163464Y-92829D01*
X163520Y-92806D01*
X163600Y-92748D01*
X163685Y-92698D01*
X163761Y-92632D01*
X163777Y-92620D01*
X163785Y-92610D01*
X163806Y-92592D01*
X163942Y-92455D01*
X166258Y-92455D01*
X166394Y-92592D01*
X166472Y-92652D01*
X166544Y-92720D01*
X166597Y-92749D01*
X166645Y-92786D01*
X166736Y-92826D01*
X166823Y-92874D01*
X166881Y-92889D01*
X166937Y-92913D01*
X167035Y-92928D01*
X167131Y-92953D01*
X167231Y-92959D01*
X167251Y-92963D01*
X167263Y-92961D01*
X167291Y-92963D01*
X324797Y-92963D01*
X330775Y-98942D01*
X330854Y-99002D01*
X330926Y-99070D01*
X330979Y-99099D01*
X331027Y-99136D01*
X331118Y-99176D01*
X331204Y-99224D01*
X331263Y-99239D01*
X331319Y-99263D01*
X331417Y-99278D01*
X331512Y-99303D01*
X331612Y-99309D01*
X331633Y-99313D01*
X331645Y-99311D01*
X331673Y-99313D01*
X502597Y-99313D01*
X511750Y-108467D01*
X511829Y-108527D01*
X511901Y-108595D01*
X511954Y-108624D01*
X512002Y-108661D01*
X512093Y-108701D01*
X512179Y-108749D01*
X512238Y-108764D01*
X512294Y-108788D01*
X512392Y-108803D01*
X512487Y-108828D01*
X512587Y-108834D01*
X512608Y-108838D01*
X512620Y-108836D01*
X512648Y-108838D01*
X562922Y-108838D01*
X573787Y-119703D01*
X573787Y-239827D01*
X573799Y-239925D01*
X573802Y-240024D01*
X573819Y-240082D01*
X573827Y-240143D01*
X573863Y-240235D01*
X573891Y-240330D01*
X573921Y-240382D01*
X573944Y-240438D01*
X574002Y-240518D01*
X574052Y-240604D01*
X574118Y-240679D01*
X574130Y-240696D01*
X574140Y-240703D01*
X574158Y-240725D01*
X605537Y-272103D01*
X605537Y-290627D01*
X605549Y-290725D01*
X605552Y-290824D01*
X605569Y-290882D01*
X605577Y-290943D01*
X605613Y-291035D01*
X605641Y-291130D01*
X605671Y-291182D01*
X605694Y-291238D01*
X605752Y-291318D01*
X605802Y-291404D01*
X605868Y-291479D01*
X605880Y-291496D01*
X605890Y-291503D01*
X605908Y-291525D01*
X610175Y-295792D01*
X610254Y-295852D01*
X610326Y-295920D01*
X610379Y-295949D01*
X610427Y-295986D01*
X610518Y-296026D01*
X610604Y-296074D01*
X610663Y-296089D01*
X610719Y-296113D01*
X610817Y-296128D01*
X610912Y-296153D01*
X611012Y-296159D01*
X611033Y-296163D01*
X611045Y-296161D01*
X611073Y-296163D01*
X636798Y-296163D01*
X636827Y-296160D01*
X636856Y-296162D01*
X636984Y-296140D01*
X637113Y-296123D01*
X637140Y-296113D01*
X637170Y-296108D01*
X637288Y-296054D01*
X637409Y-296006D01*
X637433Y-295989D01*
X637460Y-295977D01*
X637561Y-295896D01*
X637666Y-295820D01*
X637685Y-295797D01*
X637708Y-295778D01*
X637786Y-295675D01*
X637869Y-295575D01*
X637881Y-295548D01*
X637899Y-295524D01*
X637970Y-295380D01*
X638825Y-293315D01*
X641375Y-290765D01*
X644707Y-289385D01*
X663393Y-289385D01*
X666725Y-290765D01*
X669275Y-293315D01*
X670655Y-296647D01*
X670655Y-300253D01*
X669275Y-303585D01*
X666725Y-306135D01*
X663393Y-307515D01*
X644707Y-307515D01*
X641375Y-306135D01*
X638825Y-303585D01*
X637970Y-301520D01*
X637956Y-301495D01*
X637946Y-301467D01*
X637877Y-301357D01*
X637813Y-301244D01*
X637792Y-301223D01*
X637776Y-301198D01*
X637682Y-301109D01*
X637591Y-301016D01*
X637566Y-301000D01*
X637545Y-300980D01*
X637431Y-300917D01*
X637320Y-300849D01*
X637292Y-300841D01*
X637266Y-300826D01*
X637140Y-300794D01*
X637016Y-300756D01*
X636987Y-300754D01*
X636958Y-300747D01*
X636798Y-300737D01*
X608653Y-300737D01*
X600963Y-293047D01*
X600963Y-274523D01*
X600951Y-274425D01*
X600948Y-274326D01*
X600931Y-274268D01*
X600923Y-274207D01*
X600887Y-274115D01*
X600859Y-274020D01*
X600829Y-273968D01*
X600806Y-273912D01*
X600748Y-273832D01*
X600698Y-273746D01*
X600632Y-273671D01*
X600620Y-273654D01*
X600610Y-273647D01*
X600592Y-273625D01*
X569213Y-242247D01*
X569213Y-122123D01*
X569201Y-122025D01*
X569198Y-121926D01*
X569181Y-121868D01*
X569173Y-121807D01*
X569137Y-121715D01*
X569109Y-121620D01*
X569079Y-121568D01*
X569056Y-121512D01*
X568998Y-121432D01*
X568948Y-121346D01*
X568882Y-121271D01*
X568870Y-121254D01*
X568860Y-121247D01*
X568842Y-121225D01*
X561400Y-113783D01*
X561321Y-113723D01*
X561249Y-113655D01*
X561196Y-113626D01*
X561148Y-113589D01*
X561057Y-113549D01*
X560971Y-113501D01*
X560912Y-113486D01*
X560856Y-113462D01*
X560758Y-113447D01*
X560663Y-113422D01*
X560563Y-113416D01*
X560542Y-113412D01*
X560530Y-113414D01*
X560502Y-113412D01*
X517906Y-113412D01*
X517788Y-113427D01*
X517669Y-113434D01*
X517631Y-113447D01*
X517590Y-113452D01*
X517480Y-113495D01*
X517367Y-113532D01*
X517332Y-113554D01*
X517295Y-113569D01*
X517199Y-113638D01*
X517098Y-113702D01*
X517070Y-113732D01*
X517037Y-113755D01*
X516961Y-113847D01*
X516880Y-113934D01*
X516860Y-113969D01*
X516835Y-114000D01*
X516784Y-114108D01*
X516726Y-114212D01*
X516716Y-114252D01*
X516699Y-114288D01*
X516677Y-114405D01*
X516647Y-114520D01*
X516643Y-114580D01*
X516639Y-114600D01*
X516641Y-114621D01*
X516637Y-114681D01*
X516637Y-118047D01*
X516640Y-118076D01*
X516638Y-118105D01*
X516660Y-118233D01*
X516677Y-118362D01*
X516687Y-118390D01*
X516692Y-118419D01*
X516746Y-118537D01*
X516794Y-118658D01*
X516811Y-118682D01*
X516823Y-118709D01*
X516904Y-118810D01*
X516980Y-118915D01*
X517003Y-118934D01*
X517022Y-118957D01*
X517125Y-119035D01*
X517225Y-119118D01*
X517252Y-119131D01*
X517276Y-119148D01*
X517420Y-119219D01*
X518955Y-119855D01*
X521241Y-122141D01*
X522479Y-125129D01*
X522479Y-141571D01*
X521241Y-144559D01*
X518955Y-146845D01*
X515967Y-148083D01*
X512733Y-148083D01*
X509745Y-146845D01*
X507459Y-144559D01*
X506221Y-141571D01*
X506221Y-125129D01*
X507459Y-122141D01*
X509745Y-119855D01*
X511280Y-119219D01*
X511305Y-119205D01*
X511333Y-119196D01*
X511443Y-119126D01*
X511556Y-119062D01*
X511577Y-119041D01*
X511602Y-119025D01*
X511691Y-118931D01*
X511784Y-118840D01*
X511800Y-118815D01*
X511820Y-118794D01*
X511883Y-118680D01*
X511951Y-118569D01*
X511959Y-118541D01*
X511974Y-118515D01*
X512006Y-118390D01*
X512044Y-118265D01*
X512046Y-118236D01*
X512053Y-118207D01*
X512063Y-118047D01*
X512063Y-115773D01*
X512051Y-115675D01*
X512048Y-115576D01*
X512031Y-115518D01*
X512023Y-115457D01*
X511987Y-115365D01*
X511959Y-115270D01*
X511929Y-115218D01*
X511906Y-115162D01*
X511848Y-115082D01*
X511798Y-114996D01*
X511732Y-114921D01*
X511720Y-114904D01*
X511710Y-114897D01*
X511692Y-114875D01*
X501075Y-104258D01*
X500996Y-104198D01*
X500924Y-104130D01*
X500871Y-104101D01*
X500823Y-104064D01*
X500732Y-104024D01*
X500646Y-103976D01*
X500587Y-103961D01*
X500531Y-103937D01*
X500433Y-103922D01*
X500338Y-103897D01*
X500238Y-103891D01*
X500217Y-103887D01*
X500205Y-103889D01*
X500177Y-103887D01*
X459435Y-103887D01*
X459297Y-103904D01*
X459159Y-103917D01*
X459140Y-103924D01*
X459119Y-103927D01*
X458990Y-103978D01*
X458859Y-104025D01*
X458842Y-104036D01*
X458824Y-104044D01*
X458711Y-104125D01*
X458596Y-104203D01*
X458583Y-104219D01*
X458566Y-104230D01*
X458478Y-104338D01*
X458386Y-104442D01*
X458376Y-104460D01*
X458364Y-104475D01*
X458304Y-104601D01*
X458241Y-104725D01*
X458237Y-104745D01*
X458228Y-104763D01*
X458202Y-104900D01*
X458171Y-105035D01*
X458172Y-105056D01*
X458168Y-105075D01*
X458177Y-105214D01*
X458181Y-105353D01*
X458187Y-105373D01*
X458188Y-105393D01*
X458231Y-105525D01*
X458269Y-105659D01*
X458280Y-105676D01*
X458286Y-105695D01*
X458360Y-105813D01*
X458431Y-105933D01*
X458450Y-105954D01*
X458456Y-105964D01*
X458471Y-105978D01*
X458537Y-106053D01*
X459858Y-107374D01*
X459858Y-107375D01*
X465837Y-113353D01*
X465837Y-118047D01*
X465840Y-118076D01*
X465838Y-118105D01*
X465860Y-118233D01*
X465877Y-118362D01*
X465887Y-118390D01*
X465892Y-118419D01*
X465946Y-118537D01*
X465994Y-118658D01*
X466011Y-118682D01*
X466023Y-118709D01*
X466104Y-118810D01*
X466180Y-118915D01*
X466203Y-118934D01*
X466222Y-118957D01*
X466325Y-119035D01*
X466425Y-119118D01*
X466452Y-119131D01*
X466476Y-119148D01*
X466620Y-119219D01*
X468155Y-119855D01*
X470441Y-122141D01*
X471679Y-125129D01*
X471679Y-141571D01*
X470441Y-144559D01*
X468155Y-146845D01*
X465167Y-148083D01*
X461933Y-148083D01*
X458945Y-146845D01*
X456659Y-144559D01*
X455421Y-141571D01*
X455421Y-125129D01*
X456659Y-122141D01*
X458945Y-119855D01*
X460480Y-119219D01*
X460505Y-119205D01*
X460533Y-119196D01*
X460643Y-119126D01*
X460756Y-119062D01*
X460777Y-119041D01*
X460802Y-119025D01*
X460891Y-118931D01*
X460984Y-118840D01*
X461000Y-118815D01*
X461020Y-118794D01*
X461083Y-118680D01*
X461151Y-118569D01*
X461159Y-118541D01*
X461174Y-118515D01*
X461206Y-118390D01*
X461244Y-118265D01*
X461246Y-118236D01*
X461253Y-118207D01*
X461263Y-118047D01*
X461263Y-115773D01*
X461251Y-115675D01*
X461248Y-115576D01*
X461231Y-115518D01*
X461223Y-115457D01*
X461187Y-115365D01*
X461159Y-115270D01*
X461129Y-115218D01*
X461106Y-115162D01*
X461048Y-115082D01*
X460998Y-114996D01*
X460932Y-114921D01*
X460920Y-114904D01*
X460910Y-114897D01*
X460892Y-114875D01*
X456625Y-110608D01*
X456546Y-110548D01*
X456474Y-110480D01*
X456421Y-110451D01*
X456373Y-110414D01*
X456282Y-110374D01*
X456196Y-110326D01*
X456137Y-110311D01*
X456081Y-110287D01*
X455983Y-110272D01*
X455888Y-110247D01*
X455788Y-110241D01*
X455767Y-110237D01*
X455755Y-110239D01*
X455727Y-110237D01*
X322903Y-110237D01*
X316925Y-104258D01*
X316846Y-104198D01*
X316774Y-104130D01*
X316721Y-104101D01*
X316673Y-104064D01*
X316582Y-104024D01*
X316496Y-103976D01*
X316437Y-103961D01*
X316381Y-103937D01*
X316283Y-103922D01*
X316188Y-103897D01*
X316088Y-103891D01*
X316067Y-103887D01*
X316055Y-103889D01*
X316027Y-103887D01*
X198323Y-103887D01*
X198225Y-103899D01*
X198126Y-103902D01*
X198068Y-103919D01*
X198007Y-103927D01*
X197915Y-103963D01*
X197820Y-103991D01*
X197768Y-104021D01*
X197712Y-104044D01*
X197632Y-104102D01*
X197546Y-104152D01*
X197471Y-104218D01*
X197454Y-104230D01*
X197447Y-104240D01*
X197425Y-104258D01*
X193158Y-108525D01*
X193098Y-108604D01*
X193030Y-108676D01*
X193001Y-108729D01*
X192964Y-108777D01*
X192924Y-108868D01*
X192876Y-108954D01*
X192861Y-109013D01*
X192837Y-109069D01*
X192822Y-109167D01*
X192797Y-109262D01*
X192791Y-109362D01*
X192787Y-109383D01*
X192789Y-109395D01*
X192787Y-109423D01*
X192787Y-123952D01*
X192802Y-124070D01*
X192809Y-124189D01*
X192822Y-124227D01*
X192827Y-124268D01*
X192870Y-124378D01*
X192907Y-124491D01*
X192929Y-124526D01*
X192944Y-124563D01*
X193014Y-124660D01*
X193077Y-124760D01*
X193107Y-124788D01*
X193130Y-124821D01*
X193222Y-124897D01*
X193309Y-124978D01*
X193344Y-124998D01*
X193375Y-125023D01*
X193483Y-125074D01*
X193587Y-125132D01*
X193627Y-125142D01*
X193663Y-125159D01*
X193780Y-125181D01*
X193895Y-125211D01*
X193955Y-125215D01*
X193975Y-125219D01*
X193996Y-125217D01*
X194056Y-125221D01*
X200217Y-125221D01*
X204979Y-129983D01*
X204979Y-136717D01*
X200217Y-141479D01*
X193483Y-141479D01*
X188721Y-136717D01*
X188721Y-129954D01*
X188739Y-129933D01*
X188758Y-129897D01*
X188783Y-129865D01*
X188830Y-129756D01*
X188884Y-129650D01*
X188893Y-129611D01*
X188909Y-129573D01*
X188928Y-129456D01*
X188954Y-129340D01*
X188952Y-129299D01*
X188959Y-129259D01*
X188948Y-129141D01*
X188944Y-129022D01*
X188933Y-128983D01*
X188929Y-128943D01*
X188889Y-128831D01*
X188856Y-128716D01*
X188835Y-128682D01*
X188821Y-128643D01*
X188755Y-128545D01*
X188694Y-128442D01*
X188654Y-128397D01*
X188643Y-128380D01*
X188627Y-128367D01*
X188588Y-128322D01*
X188213Y-127947D01*
X188213Y-107003D01*
X189925Y-105292D01*
X195513Y-99703D01*
X195598Y-99594D01*
X195686Y-99487D01*
X195695Y-99468D01*
X195708Y-99452D01*
X195763Y-99324D01*
X195822Y-99199D01*
X195826Y-99179D01*
X195834Y-99160D01*
X195856Y-99022D01*
X195882Y-98886D01*
X195881Y-98866D01*
X195884Y-98846D01*
X195871Y-98707D01*
X195862Y-98569D01*
X195856Y-98550D01*
X195854Y-98530D01*
X195807Y-98398D01*
X195764Y-98267D01*
X195753Y-98249D01*
X195746Y-98230D01*
X195668Y-98115D01*
X195594Y-97998D01*
X195579Y-97984D01*
X195568Y-97967D01*
X195463Y-97875D01*
X195362Y-97780D01*
X195345Y-97770D01*
X195329Y-97757D01*
X195205Y-97693D01*
X195084Y-97626D01*
X195064Y-97621D01*
X195046Y-97612D01*
X194910Y-97582D01*
X194776Y-97547D01*
X194748Y-97545D01*
X194736Y-97542D01*
X194715Y-97543D01*
X194615Y-97537D01*
X169164Y-97537D01*
X169046Y-97552D01*
X168927Y-97559D01*
X168889Y-97572D01*
X168848Y-97577D01*
X168738Y-97620D01*
X168625Y-97657D01*
X168590Y-97679D01*
X168553Y-97694D01*
X168457Y-97763D01*
X168356Y-97827D01*
X168328Y-97857D01*
X168295Y-97880D01*
X168219Y-97972D01*
X168138Y-98059D01*
X168118Y-98094D01*
X168093Y-98125D01*
X168042Y-98233D01*
X167984Y-98337D01*
X167974Y-98377D01*
X167957Y-98413D01*
X167935Y-98530D01*
X167905Y-98645D01*
X167901Y-98705D01*
X167897Y-98725D01*
X167899Y-98746D01*
X167895Y-98806D01*
X167895Y-115414D01*
X167907Y-115512D01*
X167910Y-115611D01*
X167927Y-115670D01*
X167935Y-115730D01*
X167971Y-115822D01*
X167999Y-115917D01*
X168029Y-115969D01*
X168052Y-116025D01*
X168110Y-116105D01*
X168160Y-116191D01*
X168226Y-116266D01*
X168238Y-116283D01*
X168248Y-116290D01*
X168266Y-116312D01*
X169599Y-117644D01*
X170407Y-119594D01*
X170407Y-121706D01*
X169599Y-123656D01*
X168106Y-125149D01*
X166156Y-125957D01*
X164044Y-125957D01*
X162094Y-125149D01*
X160601Y-123656D01*
X159793Y-121706D01*
X159793Y-119594D01*
X160601Y-117644D01*
X161934Y-116312D01*
X161994Y-116233D01*
X162062Y-116161D01*
X162091Y-116108D01*
X162128Y-116060D01*
X162168Y-115969D01*
X162216Y-115883D01*
X162231Y-115824D01*
X162255Y-115768D01*
X162270Y-115671D01*
X162295Y-115575D01*
X162301Y-115475D01*
X162305Y-115454D01*
X162303Y-115442D01*
X162305Y-115414D01*
X162305Y-98806D01*
X162290Y-98688D01*
X162283Y-98569D01*
X162270Y-98531D01*
X162265Y-98490D01*
X162222Y-98380D01*
X162185Y-98267D01*
X162163Y-98232D01*
X162148Y-98195D01*
X162079Y-98099D01*
X162015Y-97998D01*
X161985Y-97970D01*
X161962Y-97937D01*
X161870Y-97861D01*
X161783Y-97780D01*
X161748Y-97760D01*
X161717Y-97735D01*
X161609Y-97684D01*
X161505Y-97626D01*
X161465Y-97616D01*
X161429Y-97599D01*
X161312Y-97577D01*
X161197Y-97547D01*
X161137Y-97543D01*
X161117Y-97539D01*
X161096Y-97541D01*
X161036Y-97537D01*
X141173Y-97537D01*
X141075Y-97549D01*
X140976Y-97552D01*
X140918Y-97569D01*
X140857Y-97577D01*
X140765Y-97613D01*
X140670Y-97641D01*
X140618Y-97671D01*
X140562Y-97694D01*
X140482Y-97752D01*
X140396Y-97802D01*
X140321Y-97868D01*
X140304Y-97880D01*
X140297Y-97890D01*
X140275Y-97908D01*
X115637Y-122547D01*
X115552Y-122656D01*
X115464Y-122763D01*
X115455Y-122782D01*
X115442Y-122798D01*
X115387Y-122926D01*
X115328Y-123051D01*
X115324Y-123071D01*
X115316Y-123090D01*
X115294Y-123228D01*
X115268Y-123364D01*
X115269Y-123384D01*
X115266Y-123404D01*
X115279Y-123543D01*
X115288Y-123681D01*
X115294Y-123700D01*
X115296Y-123720D01*
X115343Y-123852D01*
X115386Y-123983D01*
X115397Y-124001D01*
X115404Y-124020D01*
X115482Y-124135D01*
X115556Y-124252D01*
X115571Y-124266D01*
X115582Y-124283D01*
X115686Y-124375D01*
X115788Y-124470D01*
X115806Y-124480D01*
X115821Y-124493D01*
X115945Y-124557D01*
X116066Y-124624D01*
X116086Y-124629D01*
X116104Y-124638D01*
X116240Y-124668D01*
X116374Y-124703D01*
X116402Y-124705D01*
X116414Y-124708D01*
X116435Y-124707D01*
X116535Y-124713D01*
X146997Y-124713D01*
X181042Y-158759D01*
X181121Y-158819D01*
X181193Y-158887D01*
X181246Y-158916D01*
X181294Y-158953D01*
X181385Y-158993D01*
X181471Y-159041D01*
X181530Y-159056D01*
X181586Y-159080D01*
X181684Y-159095D01*
X181779Y-159120D01*
X181879Y-159126D01*
X181900Y-159130D01*
X181912Y-159128D01*
X181940Y-159130D01*
X182133Y-159130D01*
X183770Y-160767D01*
X183770Y-160960D01*
X183782Y-161058D01*
X183785Y-161157D01*
X183802Y-161215D01*
X183810Y-161276D01*
X183846Y-161368D01*
X183874Y-161463D01*
X183904Y-161515D01*
X183927Y-161571D01*
X183985Y-161651D01*
X184035Y-161737D01*
X184101Y-161812D01*
X184113Y-161829D01*
X184123Y-161836D01*
X184141Y-161858D01*
X191822Y-169538D01*
X191916Y-169611D01*
X192005Y-169689D01*
X192041Y-169708D01*
X192073Y-169733D01*
X192182Y-169780D01*
X192288Y-169834D01*
X192328Y-169843D01*
X192365Y-169859D01*
X192482Y-169878D01*
X192598Y-169904D01*
X192639Y-169902D01*
X192679Y-169909D01*
X192797Y-169898D01*
X192916Y-169894D01*
X192955Y-169883D01*
X192995Y-169879D01*
X193108Y-169839D01*
X193222Y-169806D01*
X193257Y-169785D01*
X193295Y-169771D01*
X193393Y-169705D01*
X193450Y-169671D01*
X200217Y-169671D01*
X204979Y-174433D01*
X204979Y-181167D01*
X200217Y-185929D01*
X193483Y-185929D01*
X188721Y-181167D01*
X188721Y-174404D01*
X188739Y-174383D01*
X188758Y-174347D01*
X188783Y-174315D01*
X188830Y-174206D01*
X188884Y-174100D01*
X188893Y-174061D01*
X188909Y-174023D01*
X188928Y-173906D01*
X188954Y-173790D01*
X188952Y-173749D01*
X188959Y-173709D01*
X188948Y-173591D01*
X188944Y-173472D01*
X188933Y-173433D01*
X188929Y-173393D01*
X188889Y-173281D01*
X188856Y-173166D01*
X188835Y-173132D01*
X188821Y-173093D01*
X188755Y-172995D01*
X188694Y-172892D01*
X188654Y-172847D01*
X188643Y-172830D01*
X188628Y-172817D01*
X188588Y-172772D01*
X182761Y-166945D01*
X182652Y-166860D01*
X182545Y-166772D01*
X182526Y-166763D01*
X182510Y-166750D01*
X182382Y-166695D01*
X182257Y-166636D01*
X182237Y-166632D01*
X182218Y-166624D01*
X182080Y-166602D01*
X181944Y-166576D01*
X181924Y-166577D01*
X181904Y-166574D01*
X181765Y-166587D01*
X181627Y-166596D01*
X181608Y-166602D01*
X181588Y-166604D01*
X181456Y-166651D01*
X181325Y-166694D01*
X181307Y-166705D01*
X181288Y-166712D01*
X181173Y-166790D01*
X181056Y-166864D01*
X181042Y-166879D01*
X181025Y-166890D01*
X180933Y-166994D01*
X180838Y-167096D01*
X180828Y-167114D01*
X180815Y-167129D01*
X180751Y-167253D01*
X180684Y-167374D01*
X180679Y-167394D01*
X180670Y-167412D01*
X180640Y-167548D01*
X180605Y-167682D01*
X180603Y-167710D01*
X180600Y-167722D01*
X180601Y-167743D01*
X180595Y-167843D01*
X180595Y-188817D01*
X180607Y-188915D01*
X180610Y-189014D01*
X180627Y-189072D01*
X180635Y-189132D01*
X180671Y-189224D01*
X180699Y-189319D01*
X180729Y-189372D01*
X180752Y-189428D01*
X180810Y-189508D01*
X180860Y-189593D01*
X180926Y-189669D01*
X180938Y-189685D01*
X180948Y-189693D01*
X180966Y-189714D01*
X184936Y-193684D01*
X185014Y-193744D01*
X185086Y-193812D01*
X185139Y-193841D01*
X185187Y-193878D01*
X185278Y-193918D01*
X185365Y-193966D01*
X185423Y-193981D01*
X185479Y-194005D01*
X185577Y-194020D01*
X185673Y-194045D01*
X185773Y-194051D01*
X185793Y-194055D01*
X185805Y-194053D01*
X185833Y-194055D01*
X331358Y-194055D01*
X332995Y-195692D01*
X332995Y-207867D01*
X333007Y-207965D01*
X333010Y-208064D01*
X333027Y-208122D01*
X333035Y-208182D01*
X333071Y-208274D01*
X333099Y-208369D01*
X333129Y-208422D01*
X333152Y-208478D01*
X333210Y-208558D01*
X333260Y-208643D01*
X333326Y-208719D01*
X333338Y-208735D01*
X333348Y-208743D01*
X333366Y-208764D01*
X356386Y-231784D01*
X356464Y-231844D01*
X356536Y-231912D01*
X356589Y-231941D01*
X356637Y-231978D01*
X356728Y-232018D01*
X356815Y-232066D01*
X356873Y-232081D01*
X356929Y-232105D01*
X357027Y-232120D01*
X357123Y-232145D01*
X357223Y-232151D01*
X357243Y-232155D01*
X357255Y-232153D01*
X357283Y-232155D01*
X531717Y-232155D01*
X531815Y-232143D01*
X531914Y-232140D01*
X531972Y-232123D01*
X532032Y-232115D01*
X532124Y-232079D01*
X532219Y-232051D01*
X532272Y-232021D01*
X532328Y-231998D01*
X532408Y-231940D01*
X532493Y-231890D01*
X532569Y-231824D01*
X532585Y-231812D01*
X532593Y-231802D01*
X532614Y-231784D01*
X534072Y-230326D01*
X534132Y-230248D01*
X534200Y-230176D01*
X534229Y-230123D01*
X534266Y-230075D01*
X534306Y-229984D01*
X534354Y-229897D01*
X534369Y-229839D01*
X534393Y-229783D01*
X534408Y-229685D01*
X534433Y-229589D01*
X534439Y-229489D01*
X534443Y-229469D01*
X534441Y-229457D01*
X534443Y-229429D01*
X534443Y-227544D01*
X535251Y-225594D01*
X536744Y-224101D01*
X538694Y-223293D01*
X540806Y-223293D01*
X542756Y-224101D01*
X544249Y-225594D01*
X545057Y-227544D01*
X545057Y-229656D01*
X544249Y-231606D01*
X542756Y-233099D01*
X540806Y-233907D01*
X538921Y-233907D01*
X538823Y-233919D01*
X538724Y-233922D01*
X538666Y-233939D01*
X538606Y-233947D01*
X538514Y-233983D01*
X538419Y-234011D01*
X538366Y-234041D01*
X538310Y-234064D01*
X538230Y-234122D01*
X538145Y-234172D01*
X538069Y-234238D01*
X538053Y-234250D01*
X538045Y-234260D01*
X538024Y-234278D01*
X534558Y-237745D01*
X354442Y-237745D01*
X327405Y-210708D01*
X327405Y-200914D01*
X327390Y-200796D01*
X327383Y-200677D01*
X327370Y-200639D01*
X327365Y-200598D01*
X327322Y-200488D01*
X327285Y-200375D01*
X327263Y-200340D01*
X327248Y-200303D01*
X327179Y-200207D01*
X327115Y-200106D01*
X327085Y-200078D01*
X327062Y-200045D01*
X326970Y-199969D01*
X326883Y-199888D01*
X326848Y-199868D01*
X326817Y-199843D01*
X326709Y-199792D01*
X326605Y-199734D01*
X326565Y-199724D01*
X326529Y-199707D01*
X326412Y-199685D01*
X326297Y-199655D01*
X326237Y-199651D01*
X326217Y-199647D01*
X326196Y-199649D01*
X326136Y-199645D01*
X182992Y-199645D01*
X175005Y-191658D01*
X175005Y-163942D01*
X176484Y-162463D01*
X176557Y-162369D01*
X176636Y-162280D01*
X176655Y-162244D01*
X176679Y-162212D01*
X176727Y-162103D01*
X176781Y-161997D01*
X176790Y-161957D01*
X176806Y-161920D01*
X176824Y-161802D01*
X176850Y-161686D01*
X176849Y-161646D01*
X176856Y-161606D01*
X176844Y-161487D01*
X176841Y-161369D01*
X176829Y-161330D01*
X176826Y-161289D01*
X176785Y-161177D01*
X176752Y-161063D01*
X176732Y-161028D01*
X176718Y-160990D01*
X176651Y-160892D01*
X176591Y-160789D01*
X176551Y-160744D01*
X176540Y-160727D01*
X176524Y-160714D01*
X176484Y-160668D01*
X145475Y-129658D01*
X145396Y-129598D01*
X145324Y-129530D01*
X145271Y-129501D01*
X145223Y-129464D01*
X145132Y-129424D01*
X145046Y-129376D01*
X144987Y-129361D01*
X144931Y-129337D01*
X144833Y-129322D01*
X144738Y-129297D01*
X144638Y-129291D01*
X144617Y-129287D01*
X144605Y-129289D01*
X144577Y-129287D01*
X71323Y-129287D01*
X71225Y-129299D01*
X71126Y-129302D01*
X71068Y-129319D01*
X71007Y-129327D01*
X70915Y-129363D01*
X70820Y-129391D01*
X70768Y-129421D01*
X70712Y-129444D01*
X70632Y-129502D01*
X70546Y-129552D01*
X70471Y-129618D01*
X70454Y-129630D01*
X70447Y-129640D01*
X70425Y-129658D01*
X47108Y-152975D01*
X47048Y-153054D01*
X46980Y-153126D01*
X46951Y-153179D01*
X46914Y-153227D01*
X46874Y-153318D01*
X46826Y-153404D01*
X46811Y-153463D01*
X46787Y-153519D01*
X46772Y-153617D01*
X46747Y-153712D01*
X46741Y-153812D01*
X46737Y-153833D01*
X46739Y-153845D01*
X46737Y-153873D01*
X46737Y-303327D01*
X46749Y-303425D01*
X46752Y-303524D01*
X46769Y-303582D01*
X46777Y-303643D01*
X46813Y-303735D01*
X46841Y-303830D01*
X46871Y-303882D01*
X46894Y-303938D01*
X46952Y-304018D01*
X47002Y-304104D01*
X47068Y-304179D01*
X47080Y-304196D01*
X47090Y-304203D01*
X47108Y-304225D01*
X49089Y-306206D01*
X49168Y-306266D01*
X49240Y-306334D01*
X49293Y-306363D01*
X49341Y-306400D01*
X49432Y-306440D01*
X49518Y-306488D01*
X49577Y-306503D01*
X49633Y-306527D01*
X49731Y-306542D01*
X49826Y-306567D01*
X49926Y-306573D01*
X49947Y-306577D01*
X49959Y-306575D01*
X49987Y-306577D01*
X64262Y-306577D01*
X64380Y-306562D01*
X64499Y-306555D01*
X64537Y-306542D01*
X64578Y-306537D01*
X64688Y-306494D01*
X64801Y-306457D01*
X64836Y-306435D01*
X64873Y-306420D01*
X64969Y-306351D01*
X65070Y-306287D01*
X65098Y-306257D01*
X65131Y-306234D01*
X65207Y-306142D01*
X65288Y-306055D01*
X65308Y-306020D01*
X65333Y-305989D01*
X65384Y-305881D01*
X65442Y-305777D01*
X65452Y-305737D01*
X65469Y-305701D01*
X65491Y-305584D01*
X65521Y-305469D01*
X65525Y-305409D01*
X65529Y-305389D01*
X65527Y-305368D01*
X65531Y-305308D01*
X65531Y-305076D01*
X70888Y-299719D01*
X78464Y-299719D01*
X83821Y-305076D01*
X83821Y-312652D01*
X78464Y-318009D01*
X70888Y-318009D01*
X65531Y-312652D01*
X65531Y-312420D01*
X65516Y-312302D01*
X65509Y-312183D01*
X65496Y-312145D01*
X65491Y-312104D01*
X65448Y-311994D01*
X65411Y-311881D01*
X65389Y-311846D01*
X65374Y-311809D01*
X65305Y-311713D01*
X65241Y-311612D01*
X65211Y-311584D01*
X65188Y-311551D01*
X65096Y-311475D01*
X65009Y-311394D01*
X64974Y-311374D01*
X64943Y-311349D01*
X64835Y-311298D01*
X64731Y-311240D01*
X64691Y-311230D01*
X64655Y-311213D01*
X64538Y-311191D01*
X64423Y-311161D01*
X64363Y-311157D01*
X64343Y-311153D01*
X64322Y-311155D01*
X64262Y-311151D01*
X47567Y-311151D01*
X42163Y-305747D01*
X42163Y-151453D01*
X67192Y-126425D01*
X68513Y-125103D01*
X68598Y-124994D01*
X68686Y-124887D01*
X68695Y-124868D01*
X68708Y-124852D01*
X68763Y-124725D01*
X68822Y-124599D01*
X68826Y-124579D01*
X68834Y-124560D01*
X68856Y-124422D01*
X68882Y-124286D01*
X68881Y-124266D01*
X68884Y-124246D01*
X68871Y-124107D01*
X68862Y-123969D01*
X68856Y-123950D01*
X68854Y-123930D01*
X68807Y-123798D01*
X68764Y-123667D01*
X68753Y-123649D01*
X68746Y-123630D01*
X68668Y-123515D01*
X68594Y-123398D01*
X68579Y-123384D01*
X68568Y-123367D01*
X68463Y-123275D01*
X68362Y-123180D01*
X68345Y-123170D01*
X68329Y-123157D01*
X68205Y-123093D01*
X68084Y-123026D01*
X68064Y-123021D01*
X68046Y-123012D01*
X67910Y-122982D01*
X67776Y-122947D01*
X67748Y-122945D01*
X67736Y-122942D01*
X67715Y-122943D01*
X67615Y-122937D01*
X64973Y-122937D01*
X64875Y-122949D01*
X64776Y-122952D01*
X64717Y-122969D01*
X64657Y-122977D01*
X64565Y-123013D01*
X64470Y-123041D01*
X64418Y-123071D01*
X64362Y-123094D01*
X64282Y-123152D01*
X64196Y-123202D01*
X64121Y-123268D01*
X64104Y-123280D01*
X64097Y-123290D01*
X64075Y-123308D01*
X37583Y-149800D01*
X37523Y-149879D01*
X37455Y-149951D01*
X37426Y-150004D01*
X37389Y-150052D01*
X37349Y-150143D01*
X37301Y-150229D01*
X37286Y-150288D01*
X37262Y-150344D01*
X37247Y-150442D01*
X37222Y-150537D01*
X37216Y-150637D01*
X37212Y-150658D01*
X37214Y-150670D01*
X37212Y-150698D01*
X37212Y-325552D01*
X37224Y-325650D01*
X37227Y-325749D01*
X37244Y-325807D01*
X37252Y-325868D01*
X37288Y-325960D01*
X37316Y-326055D01*
X37346Y-326107D01*
X37369Y-326163D01*
X37427Y-326243D01*
X37477Y-326329D01*
X37543Y-326404D01*
X37555Y-326421D01*
X37565Y-326428D01*
X37583Y-326450D01*
X44771Y-333638D01*
X44850Y-333698D01*
X44922Y-333766D01*
X44975Y-333795D01*
X45023Y-333832D01*
X45114Y-333872D01*
X45200Y-333920D01*
X45259Y-333935D01*
X45315Y-333959D01*
X45413Y-333974D01*
X45508Y-333999D01*
X45608Y-334005D01*
X45629Y-334009D01*
X45641Y-334007D01*
X45669Y-334009D01*
X64262Y-334009D01*
X64380Y-333994D01*
X64499Y-333987D01*
X64537Y-333974D01*
X64578Y-333969D01*
X64688Y-333926D01*
X64801Y-333889D01*
X64836Y-333867D01*
X64873Y-333852D01*
X64969Y-333783D01*
X65070Y-333719D01*
X65098Y-333689D01*
X65131Y-333666D01*
X65207Y-333574D01*
X65288Y-333487D01*
X65308Y-333452D01*
X65333Y-333421D01*
X65384Y-333313D01*
X65442Y-333209D01*
X65452Y-333169D01*
X65469Y-333133D01*
X65491Y-333016D01*
X65521Y-332901D01*
X65525Y-332841D01*
X65529Y-332821D01*
X65527Y-332800D01*
X65531Y-332740D01*
X65531Y-332508D01*
X70888Y-327151D01*
X78464Y-327151D01*
X83821Y-332508D01*
X83821Y-340084D01*
X78464Y-345441D01*
X70888Y-345441D01*
G37*
%LPD*%
%LPC*%
G36*
X303995Y-87123D02*
X303995Y-87123D01*
X293877Y-77005D01*
X293877Y-62695D01*
X296242Y-60330D01*
X296315Y-60236D01*
X296394Y-60147D01*
X296412Y-60111D01*
X296437Y-60079D01*
X296485Y-59970D01*
X296539Y-59864D01*
X296547Y-59824D01*
X296564Y-59787D01*
X296582Y-59670D01*
X296608Y-59554D01*
X296607Y-59513D01*
X296613Y-59473D01*
X296602Y-59355D01*
X296599Y-59236D01*
X296587Y-59197D01*
X296584Y-59157D01*
X296543Y-59044D01*
X296510Y-58930D01*
X296490Y-58895D01*
X296476Y-58857D01*
X296409Y-58759D01*
X296349Y-58656D01*
X296309Y-58611D01*
X296297Y-58594D01*
X296282Y-58581D01*
X296242Y-58535D01*
X281074Y-43367D01*
X280980Y-43294D01*
X280890Y-43215D01*
X280855Y-43197D01*
X280823Y-43172D01*
X280713Y-43125D01*
X280607Y-43071D01*
X280568Y-43062D01*
X280531Y-43046D01*
X280413Y-43027D01*
X280297Y-43001D01*
X280257Y-43002D01*
X280217Y-42996D01*
X280098Y-43007D01*
X279979Y-43011D01*
X279940Y-43022D01*
X279900Y-43026D01*
X279788Y-43066D01*
X279674Y-43099D01*
X279639Y-43119D01*
X279601Y-43133D01*
X279502Y-43200D01*
X279400Y-43261D01*
X279354Y-43300D01*
X279338Y-43312D01*
X279324Y-43327D01*
X279279Y-43367D01*
X276268Y-46378D01*
X276249Y-46386D01*
X276153Y-46455D01*
X276052Y-46519D01*
X276024Y-46549D01*
X275991Y-46572D01*
X275915Y-46664D01*
X275834Y-46751D01*
X275814Y-46786D01*
X275789Y-46817D01*
X275738Y-46925D01*
X275680Y-47029D01*
X275670Y-47069D01*
X275653Y-47105D01*
X275631Y-47222D01*
X275601Y-47337D01*
X275597Y-47397D01*
X275593Y-47417D01*
X275595Y-47438D01*
X275591Y-47498D01*
X275591Y-60452D01*
X275606Y-60570D01*
X275613Y-60689D01*
X275626Y-60727D01*
X275631Y-60768D01*
X275674Y-60878D01*
X275711Y-60991D01*
X275733Y-61026D01*
X275748Y-61063D01*
X275817Y-61159D01*
X275881Y-61260D01*
X275911Y-61288D01*
X275934Y-61321D01*
X276026Y-61397D01*
X276113Y-61478D01*
X276148Y-61498D01*
X276179Y-61523D01*
X276255Y-61559D01*
X281179Y-66483D01*
X281179Y-73217D01*
X276417Y-77979D01*
X269683Y-77979D01*
X264921Y-73217D01*
X264921Y-66483D01*
X269832Y-61572D01*
X269851Y-61564D01*
X269947Y-61495D01*
X270048Y-61431D01*
X270076Y-61401D01*
X270109Y-61378D01*
X270185Y-61286D01*
X270266Y-61199D01*
X270286Y-61164D01*
X270311Y-61133D01*
X270362Y-61025D01*
X270420Y-60921D01*
X270430Y-60881D01*
X270447Y-60845D01*
X270469Y-60728D01*
X270499Y-60613D01*
X270503Y-60553D01*
X270507Y-60533D01*
X270505Y-60512D01*
X270509Y-60452D01*
X270509Y-47498D01*
X270494Y-47380D01*
X270487Y-47261D01*
X270474Y-47223D01*
X270469Y-47182D01*
X270426Y-47072D01*
X270389Y-46959D01*
X270367Y-46924D01*
X270352Y-46887D01*
X270283Y-46791D01*
X270219Y-46690D01*
X270189Y-46662D01*
X270166Y-46629D01*
X270074Y-46553D01*
X269987Y-46472D01*
X269952Y-46452D01*
X269921Y-46427D01*
X269845Y-46391D01*
X264921Y-41467D01*
X264921Y-34733D01*
X269683Y-29971D01*
X276417Y-29971D01*
X281179Y-34733D01*
X281179Y-35760D01*
X281191Y-35858D01*
X281194Y-35957D01*
X281211Y-36015D01*
X281219Y-36075D01*
X281255Y-36167D01*
X281283Y-36263D01*
X281313Y-36315D01*
X281336Y-36371D01*
X281394Y-36451D01*
X281444Y-36537D01*
X281510Y-36612D01*
X281522Y-36628D01*
X281532Y-36636D01*
X281551Y-36657D01*
X282312Y-37419D01*
X299835Y-54942D01*
X299930Y-55015D01*
X300019Y-55094D01*
X300055Y-55112D01*
X300087Y-55137D01*
X300196Y-55185D01*
X300302Y-55239D01*
X300341Y-55247D01*
X300379Y-55264D01*
X300496Y-55282D01*
X300612Y-55308D01*
X300653Y-55307D01*
X300693Y-55313D01*
X300811Y-55302D01*
X300930Y-55299D01*
X300969Y-55287D01*
X301009Y-55284D01*
X301121Y-55243D01*
X301236Y-55210D01*
X301270Y-55190D01*
X301309Y-55176D01*
X301407Y-55109D01*
X301510Y-55049D01*
X301555Y-55009D01*
X301572Y-54997D01*
X301585Y-54982D01*
X301630Y-54942D01*
X303995Y-52577D01*
X307340Y-52577D01*
X307458Y-52562D01*
X307577Y-52555D01*
X307615Y-52542D01*
X307656Y-52537D01*
X307766Y-52494D01*
X307879Y-52457D01*
X307914Y-52435D01*
X307951Y-52420D01*
X308047Y-52351D01*
X308148Y-52287D01*
X308176Y-52257D01*
X308209Y-52234D01*
X308285Y-52142D01*
X308366Y-52055D01*
X308386Y-52020D01*
X308411Y-51989D01*
X308462Y-51881D01*
X308520Y-51777D01*
X308530Y-51737D01*
X308547Y-51701D01*
X308569Y-51584D01*
X308599Y-51469D01*
X308603Y-51409D01*
X308607Y-51389D01*
X308605Y-51368D01*
X308609Y-51308D01*
X308609Y-43398D01*
X310098Y-41909D01*
X398113Y-41909D01*
X398211Y-41897D01*
X398310Y-41894D01*
X398368Y-41877D01*
X398428Y-41869D01*
X398520Y-41833D01*
X398615Y-41805D01*
X398668Y-41775D01*
X398724Y-41752D01*
X398804Y-41694D01*
X398870Y-41655D01*
X642508Y-41655D01*
X650495Y-49642D01*
X650495Y-52808D01*
X650498Y-52837D01*
X650496Y-52867D01*
X650518Y-52995D01*
X650535Y-53123D01*
X650545Y-53151D01*
X650550Y-53180D01*
X650604Y-53299D01*
X650652Y-53419D01*
X650669Y-53443D01*
X650681Y-53470D01*
X650762Y-53571D01*
X650838Y-53676D01*
X650861Y-53695D01*
X650880Y-53718D01*
X650983Y-53796D01*
X651083Y-53879D01*
X651110Y-53892D01*
X651134Y-53910D01*
X651278Y-53981D01*
X652835Y-54625D01*
X655385Y-57175D01*
X656765Y-60507D01*
X656765Y-79193D01*
X655385Y-82525D01*
X652835Y-85075D01*
X649503Y-86455D01*
X645897Y-86455D01*
X642565Y-85075D01*
X640015Y-82525D01*
X638635Y-79193D01*
X638635Y-60507D01*
X640015Y-57175D01*
X642565Y-54625D01*
X644122Y-53981D01*
X644147Y-53966D01*
X644175Y-53957D01*
X644285Y-53887D01*
X644398Y-53823D01*
X644419Y-53802D01*
X644444Y-53787D01*
X644533Y-53692D01*
X644626Y-53602D01*
X644642Y-53577D01*
X644662Y-53555D01*
X644725Y-53441D01*
X644793Y-53331D01*
X644801Y-53302D01*
X644816Y-53277D01*
X644848Y-53151D01*
X644886Y-53027D01*
X644888Y-52997D01*
X644895Y-52969D01*
X644905Y-52808D01*
X644905Y-52483D01*
X644893Y-52385D01*
X644890Y-52286D01*
X644873Y-52228D01*
X644865Y-52168D01*
X644829Y-52076D01*
X644801Y-51981D01*
X644771Y-51928D01*
X644748Y-51872D01*
X644690Y-51792D01*
X644640Y-51707D01*
X644574Y-51631D01*
X644562Y-51615D01*
X644552Y-51607D01*
X644534Y-51586D01*
X640564Y-47616D01*
X640486Y-47556D01*
X640414Y-47488D01*
X640361Y-47459D01*
X640313Y-47422D01*
X640222Y-47382D01*
X640135Y-47334D01*
X640077Y-47319D01*
X640021Y-47295D01*
X639923Y-47280D01*
X639827Y-47255D01*
X639727Y-47249D01*
X639707Y-47245D01*
X639695Y-47247D01*
X639667Y-47245D01*
X530511Y-47245D01*
X530373Y-47262D01*
X530235Y-47275D01*
X530216Y-47282D01*
X530196Y-47285D01*
X530066Y-47336D01*
X529936Y-47383D01*
X529919Y-47394D01*
X529900Y-47402D01*
X529788Y-47483D01*
X529673Y-47561D01*
X529659Y-47577D01*
X529643Y-47588D01*
X529554Y-47696D01*
X529462Y-47800D01*
X529453Y-47818D01*
X529440Y-47833D01*
X529381Y-47959D01*
X529317Y-48083D01*
X529313Y-48103D01*
X529304Y-48121D01*
X529278Y-48257D01*
X529248Y-48393D01*
X529248Y-48414D01*
X529245Y-48433D01*
X529253Y-48572D01*
X529257Y-48711D01*
X529263Y-48731D01*
X529264Y-48751D01*
X529307Y-48883D01*
X529346Y-49017D01*
X529356Y-49034D01*
X529362Y-49053D01*
X529437Y-49171D01*
X529507Y-49291D01*
X529526Y-49312D01*
X529533Y-49322D01*
X529547Y-49336D01*
X529614Y-49412D01*
X529845Y-49642D01*
X529845Y-52808D01*
X529848Y-52837D01*
X529846Y-52867D01*
X529868Y-52994D01*
X529885Y-53123D01*
X529895Y-53151D01*
X529900Y-53180D01*
X529954Y-53299D01*
X530002Y-53419D01*
X530019Y-53443D01*
X530031Y-53470D01*
X530112Y-53572D01*
X530188Y-53677D01*
X530211Y-53695D01*
X530230Y-53718D01*
X530333Y-53797D01*
X530433Y-53879D01*
X530460Y-53892D01*
X530484Y-53910D01*
X530628Y-53981D01*
X532185Y-54625D01*
X534735Y-57175D01*
X536115Y-60507D01*
X536115Y-79193D01*
X534735Y-82525D01*
X532185Y-85075D01*
X528853Y-86455D01*
X525247Y-86455D01*
X521915Y-85075D01*
X519365Y-82525D01*
X517985Y-79193D01*
X517985Y-60507D01*
X519365Y-57175D01*
X521915Y-54625D01*
X523472Y-53981D01*
X523497Y-53966D01*
X523525Y-53957D01*
X523635Y-53887D01*
X523748Y-53823D01*
X523769Y-53803D01*
X523794Y-53787D01*
X523883Y-53692D01*
X523976Y-53602D01*
X523992Y-53577D01*
X524012Y-53555D01*
X524075Y-53441D01*
X524143Y-53331D01*
X524151Y-53302D01*
X524166Y-53277D01*
X524198Y-53151D01*
X524236Y-53027D01*
X524238Y-52997D01*
X524245Y-52969D01*
X524255Y-52808D01*
X524255Y-52483D01*
X524243Y-52385D01*
X524240Y-52286D01*
X524223Y-52228D01*
X524215Y-52168D01*
X524179Y-52076D01*
X524151Y-51981D01*
X524121Y-51928D01*
X524098Y-51872D01*
X524040Y-51792D01*
X523990Y-51707D01*
X523924Y-51631D01*
X523912Y-51615D01*
X523902Y-51607D01*
X523884Y-51586D01*
X519914Y-47616D01*
X519836Y-47556D01*
X519764Y-47488D01*
X519711Y-47459D01*
X519663Y-47422D01*
X519572Y-47382D01*
X519485Y-47334D01*
X519427Y-47319D01*
X519371Y-47295D01*
X519273Y-47280D01*
X519177Y-47255D01*
X519077Y-47249D01*
X519057Y-47245D01*
X519045Y-47247D01*
X519017Y-47245D01*
X409861Y-47245D01*
X409723Y-47262D01*
X409585Y-47275D01*
X409566Y-47282D01*
X409546Y-47285D01*
X409416Y-47336D01*
X409286Y-47383D01*
X409269Y-47394D01*
X409250Y-47402D01*
X409138Y-47483D01*
X409023Y-47561D01*
X409009Y-47577D01*
X408993Y-47588D01*
X408904Y-47696D01*
X408812Y-47800D01*
X408803Y-47818D01*
X408790Y-47833D01*
X408731Y-47959D01*
X408667Y-48083D01*
X408663Y-48103D01*
X408654Y-48121D01*
X408628Y-48257D01*
X408598Y-48393D01*
X408598Y-48414D01*
X408595Y-48433D01*
X408603Y-48572D01*
X408607Y-48711D01*
X408613Y-48731D01*
X408614Y-48751D01*
X408657Y-48883D01*
X408696Y-49017D01*
X408706Y-49034D01*
X408712Y-49053D01*
X408787Y-49171D01*
X408857Y-49291D01*
X408876Y-49312D01*
X408883Y-49322D01*
X408897Y-49336D01*
X408964Y-49412D01*
X409195Y-49642D01*
X409195Y-52808D01*
X409198Y-52837D01*
X409196Y-52867D01*
X409218Y-52995D01*
X409235Y-53123D01*
X409245Y-53151D01*
X409250Y-53180D01*
X409304Y-53299D01*
X409352Y-53419D01*
X409369Y-53443D01*
X409381Y-53470D01*
X409462Y-53571D01*
X409538Y-53676D01*
X409561Y-53695D01*
X409580Y-53718D01*
X409683Y-53796D01*
X409783Y-53879D01*
X409810Y-53892D01*
X409834Y-53910D01*
X409978Y-53981D01*
X411535Y-54625D01*
X414085Y-57175D01*
X415465Y-60507D01*
X415465Y-79193D01*
X414085Y-82525D01*
X411535Y-85075D01*
X408203Y-86455D01*
X404597Y-86455D01*
X401265Y-85075D01*
X398715Y-82525D01*
X397335Y-79193D01*
X397335Y-60507D01*
X398715Y-57175D01*
X401265Y-54625D01*
X402822Y-53981D01*
X402847Y-53966D01*
X402875Y-53957D01*
X402985Y-53887D01*
X403098Y-53823D01*
X403119Y-53802D01*
X403144Y-53787D01*
X403233Y-53692D01*
X403326Y-53602D01*
X403342Y-53577D01*
X403362Y-53555D01*
X403425Y-53441D01*
X403493Y-53331D01*
X403501Y-53302D01*
X403516Y-53277D01*
X403548Y-53151D01*
X403586Y-53027D01*
X403588Y-52997D01*
X403595Y-52969D01*
X403605Y-52808D01*
X403605Y-52124D01*
X403593Y-52026D01*
X403590Y-51927D01*
X403573Y-51869D01*
X403565Y-51809D01*
X403529Y-51717D01*
X403501Y-51621D01*
X403471Y-51569D01*
X403448Y-51513D01*
X403390Y-51433D01*
X403340Y-51348D01*
X403274Y-51272D01*
X403262Y-51256D01*
X403252Y-51248D01*
X403234Y-51227D01*
X399623Y-47616D01*
X399545Y-47556D01*
X399473Y-47488D01*
X399420Y-47459D01*
X399372Y-47422D01*
X399281Y-47382D01*
X399194Y-47334D01*
X399136Y-47319D01*
X399080Y-47295D01*
X398982Y-47280D01*
X398887Y-47255D01*
X398882Y-47255D01*
X398860Y-47234D01*
X398807Y-47205D01*
X398759Y-47168D01*
X398668Y-47128D01*
X398581Y-47080D01*
X398523Y-47065D01*
X398467Y-47041D01*
X398369Y-47026D01*
X398273Y-47001D01*
X398173Y-46995D01*
X398153Y-46991D01*
X398141Y-46993D01*
X398113Y-46991D01*
X314960Y-46991D01*
X314842Y-47006D01*
X314723Y-47013D01*
X314685Y-47026D01*
X314644Y-47031D01*
X314534Y-47074D01*
X314421Y-47111D01*
X314386Y-47133D01*
X314349Y-47148D01*
X314253Y-47217D01*
X314152Y-47281D01*
X314124Y-47311D01*
X314091Y-47334D01*
X314015Y-47426D01*
X313934Y-47513D01*
X313914Y-47548D01*
X313889Y-47579D01*
X313838Y-47687D01*
X313780Y-47791D01*
X313770Y-47831D01*
X313753Y-47867D01*
X313731Y-47984D01*
X313701Y-48099D01*
X313697Y-48160D01*
X313693Y-48179D01*
X313695Y-48200D01*
X313691Y-48260D01*
X313691Y-51308D01*
X313706Y-51426D01*
X313713Y-51545D01*
X313726Y-51583D01*
X313731Y-51624D01*
X313774Y-51734D01*
X313811Y-51847D01*
X313833Y-51882D01*
X313848Y-51919D01*
X313917Y-52015D01*
X313981Y-52116D01*
X314011Y-52144D01*
X314034Y-52177D01*
X314126Y-52253D01*
X314213Y-52334D01*
X314248Y-52354D01*
X314279Y-52379D01*
X314387Y-52430D01*
X314491Y-52488D01*
X314531Y-52498D01*
X314567Y-52515D01*
X314684Y-52537D01*
X314799Y-52567D01*
X314859Y-52571D01*
X314879Y-52575D01*
X314900Y-52573D01*
X314960Y-52577D01*
X318305Y-52577D01*
X328423Y-62695D01*
X328423Y-77005D01*
X318305Y-87123D01*
X303995Y-87123D01*
G37*
%LPD*%
%LPC*%
G36*
X395034Y-330201D02*
X395034Y-330201D01*
X385344Y-327604D01*
X376656Y-322588D01*
X369562Y-315494D01*
X364546Y-306806D01*
X361949Y-297116D01*
X361949Y-287084D01*
X364546Y-277394D01*
X369562Y-268706D01*
X376656Y-261612D01*
X385344Y-256596D01*
X395034Y-253999D01*
X405066Y-253999D01*
X414756Y-256596D01*
X423444Y-261612D01*
X430538Y-268706D01*
X435554Y-277394D01*
X438151Y-287084D01*
X438151Y-297116D01*
X435554Y-306806D01*
X430538Y-315494D01*
X423444Y-322588D01*
X414756Y-327604D01*
X405066Y-330201D01*
X395034Y-330201D01*
G37*
%LPD*%
%LPC*%
G36*
X56098Y-389891D02*
X56098Y-389891D01*
X22859Y-356652D01*
X22859Y-81498D01*
X62448Y-41909D01*
X147102Y-41909D01*
X148962Y-43769D01*
X166601Y-61408D01*
X166695Y-61481D01*
X166708Y-61493D01*
X166710Y-61494D01*
X166785Y-61560D01*
X166821Y-61578D01*
X166852Y-61603D01*
X166962Y-61650D01*
X167068Y-61705D01*
X167107Y-61713D01*
X167144Y-61729D01*
X167262Y-61748D01*
X167378Y-61774D01*
X167419Y-61773D01*
X167458Y-61779D01*
X167577Y-61768D01*
X167696Y-61764D01*
X167735Y-61753D01*
X167775Y-61749D01*
X167853Y-61721D01*
X174817Y-61721D01*
X179579Y-66483D01*
X179579Y-73217D01*
X174817Y-77979D01*
X168083Y-77979D01*
X163321Y-73217D01*
X163321Y-66272D01*
X163329Y-66253D01*
X163348Y-66136D01*
X163374Y-66019D01*
X163373Y-65979D01*
X163379Y-65939D01*
X163368Y-65821D01*
X163364Y-65701D01*
X163353Y-65663D01*
X163349Y-65623D01*
X163309Y-65510D01*
X163276Y-65396D01*
X163256Y-65361D01*
X163242Y-65323D01*
X163175Y-65225D01*
X163114Y-65122D01*
X163075Y-65077D01*
X163063Y-65060D01*
X163048Y-65047D01*
X163008Y-65001D01*
X145369Y-47362D01*
X145291Y-47302D01*
X145219Y-47234D01*
X145166Y-47205D01*
X145118Y-47168D01*
X145027Y-47128D01*
X144940Y-47080D01*
X144882Y-47065D01*
X144826Y-47041D01*
X144728Y-47026D01*
X144633Y-47001D01*
X144532Y-46995D01*
X144512Y-46991D01*
X144500Y-46993D01*
X144472Y-46991D01*
X65078Y-46991D01*
X64980Y-47003D01*
X64881Y-47006D01*
X64823Y-47023D01*
X64763Y-47031D01*
X64671Y-47067D01*
X64575Y-47095D01*
X64523Y-47125D01*
X64467Y-47148D01*
X64387Y-47206D01*
X64302Y-47256D01*
X64226Y-47322D01*
X64210Y-47334D01*
X64202Y-47344D01*
X64181Y-47362D01*
X28312Y-83231D01*
X28252Y-83309D01*
X28184Y-83381D01*
X28155Y-83434D01*
X28118Y-83482D01*
X28078Y-83573D01*
X28030Y-83660D01*
X28015Y-83718D01*
X27991Y-83774D01*
X27976Y-83872D01*
X27951Y-83967D01*
X27945Y-84068D01*
X27941Y-84088D01*
X27943Y-84100D01*
X27941Y-84128D01*
X27941Y-354022D01*
X27953Y-354120D01*
X27956Y-354219D01*
X27973Y-354277D01*
X27981Y-354337D01*
X28017Y-354429D01*
X28045Y-354525D01*
X28075Y-354577D01*
X28098Y-354633D01*
X28156Y-354713D01*
X28206Y-354798D01*
X28272Y-354874D01*
X28284Y-354890D01*
X28294Y-354898D01*
X28312Y-354919D01*
X57831Y-384438D01*
X57909Y-384498D01*
X57981Y-384566D01*
X58034Y-384595D01*
X58082Y-384632D01*
X58173Y-384672D01*
X58260Y-384720D01*
X58318Y-384735D01*
X58374Y-384759D01*
X58472Y-384774D01*
X58567Y-384799D01*
X58668Y-384805D01*
X58688Y-384809D01*
X58700Y-384807D01*
X58728Y-384809D01*
X131772Y-384809D01*
X131870Y-384797D01*
X131969Y-384794D01*
X132027Y-384777D01*
X132087Y-384769D01*
X132179Y-384733D01*
X132275Y-384705D01*
X132327Y-384675D01*
X132383Y-384652D01*
X132463Y-384594D01*
X132548Y-384544D01*
X132624Y-384478D01*
X132640Y-384466D01*
X132648Y-384456D01*
X132669Y-384438D01*
X136788Y-380319D01*
X136848Y-380241D01*
X136916Y-380169D01*
X136945Y-380116D01*
X136982Y-380068D01*
X137022Y-379977D01*
X137070Y-379890D01*
X137085Y-379832D01*
X137109Y-379776D01*
X137124Y-379678D01*
X137149Y-379583D01*
X137155Y-379482D01*
X137159Y-379462D01*
X137157Y-379450D01*
X137159Y-379422D01*
X137159Y-338128D01*
X137147Y-338030D01*
X137144Y-337931D01*
X137127Y-337873D01*
X137119Y-337813D01*
X137083Y-337721D01*
X137055Y-337625D01*
X137025Y-337573D01*
X137002Y-337517D01*
X136944Y-337437D01*
X136894Y-337352D01*
X136828Y-337276D01*
X136816Y-337260D01*
X136806Y-337252D01*
X136788Y-337231D01*
X125049Y-325492D01*
X124971Y-325432D01*
X124899Y-325364D01*
X124846Y-325335D01*
X124798Y-325298D01*
X124707Y-325258D01*
X124620Y-325210D01*
X124562Y-325195D01*
X124506Y-325171D01*
X124408Y-325156D01*
X124313Y-325131D01*
X124212Y-325125D01*
X124192Y-325121D01*
X124180Y-325123D01*
X124152Y-325121D01*
X113538Y-325121D01*
X113420Y-325136D01*
X113301Y-325143D01*
X113263Y-325156D01*
X113222Y-325161D01*
X113112Y-325204D01*
X112999Y-325241D01*
X112964Y-325263D01*
X112927Y-325278D01*
X112831Y-325347D01*
X112730Y-325411D01*
X112702Y-325441D01*
X112669Y-325464D01*
X112593Y-325556D01*
X112512Y-325643D01*
X112492Y-325678D01*
X112467Y-325709D01*
X112416Y-325817D01*
X112358Y-325921D01*
X112348Y-325961D01*
X112331Y-325997D01*
X112309Y-326114D01*
X112279Y-326229D01*
X112275Y-326289D01*
X112271Y-326309D01*
X112273Y-326330D01*
X112270Y-326366D01*
X106912Y-331725D01*
X99336Y-331725D01*
X93979Y-326368D01*
X93979Y-318792D01*
X99336Y-313435D01*
X106912Y-313435D01*
X112272Y-318795D01*
X112284Y-318888D01*
X112291Y-319007D01*
X112304Y-319045D01*
X112309Y-319086D01*
X112352Y-319196D01*
X112389Y-319309D01*
X112411Y-319344D01*
X112426Y-319381D01*
X112495Y-319477D01*
X112559Y-319578D01*
X112589Y-319606D01*
X112612Y-319639D01*
X112704Y-319715D01*
X112791Y-319796D01*
X112826Y-319816D01*
X112857Y-319841D01*
X112965Y-319892D01*
X113069Y-319950D01*
X113109Y-319960D01*
X113145Y-319977D01*
X113262Y-319999D01*
X113377Y-320029D01*
X113437Y-320033D01*
X113457Y-320037D01*
X113478Y-320035D01*
X113538Y-320039D01*
X126782Y-320039D01*
X142241Y-335498D01*
X142241Y-382052D01*
X134402Y-389891D01*
X56098Y-389891D01*
G37*
%LPD*%
%LPC*%
G36*
X85389Y-447295D02*
X85389Y-447295D01*
X78605Y-445477D01*
X72524Y-441966D01*
X67558Y-437000D01*
X64047Y-430919D01*
X62229Y-424135D01*
X62229Y-417113D01*
X64047Y-410329D01*
X67558Y-404248D01*
X72524Y-399282D01*
X78605Y-395771D01*
X85389Y-393953D01*
X92411Y-393953D01*
X99195Y-395771D01*
X105276Y-399282D01*
X110242Y-404248D01*
X113753Y-410329D01*
X115571Y-417113D01*
X115571Y-424135D01*
X113753Y-430919D01*
X110242Y-437000D01*
X105276Y-441966D01*
X99195Y-445477D01*
X92411Y-447295D01*
X85389Y-447295D01*
G37*
%LPD*%
%LPC*%
G36*
X85389Y-114047D02*
X85389Y-114047D01*
X78605Y-112229D01*
X72524Y-108718D01*
X67558Y-103752D01*
X64047Y-97671D01*
X62229Y-90887D01*
X62229Y-83865D01*
X64047Y-77081D01*
X67558Y-71000D01*
X72524Y-66034D01*
X78605Y-62523D01*
X85389Y-60705D01*
X92411Y-60705D01*
X99195Y-62523D01*
X105276Y-66034D01*
X110242Y-71000D01*
X113753Y-77081D01*
X115571Y-83865D01*
X115571Y-90887D01*
X113753Y-97671D01*
X110242Y-103752D01*
X105276Y-108718D01*
X99195Y-112229D01*
X92411Y-114047D01*
X85389Y-114047D01*
G37*
%LPD*%
%LPC*%
G36*
X499847Y-429355D02*
X499847Y-429355D01*
X496515Y-427975D01*
X493965Y-425425D01*
X492585Y-422093D01*
X492585Y-403407D01*
X493965Y-400075D01*
X496515Y-397525D01*
X498072Y-396881D01*
X498097Y-396866D01*
X498125Y-396857D01*
X498235Y-396787D01*
X498348Y-396723D01*
X498369Y-396703D01*
X498394Y-396687D01*
X498483Y-396592D01*
X498576Y-396502D01*
X498592Y-396477D01*
X498612Y-396455D01*
X498675Y-396341D01*
X498743Y-396231D01*
X498751Y-396202D01*
X498766Y-396177D01*
X498798Y-396051D01*
X498836Y-395927D01*
X498838Y-395897D01*
X498845Y-395869D01*
X498855Y-395708D01*
X498855Y-373492D01*
X523884Y-348464D01*
X523944Y-348386D01*
X524012Y-348314D01*
X524041Y-348261D01*
X524078Y-348213D01*
X524118Y-348122D01*
X524166Y-348035D01*
X524181Y-347977D01*
X524205Y-347921D01*
X524220Y-347823D01*
X524245Y-347727D01*
X524251Y-347627D01*
X524255Y-347607D01*
X524253Y-347595D01*
X524255Y-347567D01*
X524255Y-296164D01*
X524240Y-296046D01*
X524233Y-295927D01*
X524220Y-295889D01*
X524215Y-295848D01*
X524172Y-295738D01*
X524135Y-295625D01*
X524113Y-295590D01*
X524098Y-295553D01*
X524029Y-295457D01*
X523965Y-295356D01*
X523935Y-295328D01*
X523912Y-295295D01*
X523820Y-295219D01*
X523733Y-295138D01*
X523698Y-295118D01*
X523667Y-295093D01*
X523559Y-295042D01*
X523455Y-294984D01*
X523415Y-294974D01*
X523379Y-294957D01*
X523262Y-294935D01*
X523147Y-294905D01*
X523087Y-294901D01*
X523067Y-294897D01*
X523046Y-294899D01*
X522986Y-294895D01*
X520445Y-294895D01*
X520416Y-294898D01*
X520387Y-294896D01*
X520259Y-294918D01*
X520130Y-294935D01*
X520103Y-294945D01*
X520073Y-294950D01*
X519955Y-295004D01*
X519834Y-295052D01*
X519810Y-295069D01*
X519783Y-295081D01*
X519682Y-295162D01*
X519577Y-295238D01*
X519558Y-295261D01*
X519535Y-295280D01*
X519457Y-295383D01*
X519374Y-295483D01*
X519361Y-295510D01*
X519344Y-295534D01*
X519273Y-295678D01*
X518431Y-297712D01*
X515644Y-300499D01*
X512307Y-301881D01*
X512195Y-301945D01*
X512079Y-302003D01*
X512057Y-302023D01*
X512031Y-302038D01*
X511938Y-302128D01*
X511841Y-302214D01*
X511824Y-302239D01*
X511802Y-302259D01*
X511735Y-302369D01*
X511662Y-302477D01*
X511652Y-302505D01*
X511636Y-302531D01*
X511598Y-302654D01*
X511554Y-302776D01*
X511551Y-302806D01*
X511542Y-302835D01*
X511536Y-302963D01*
X511524Y-303092D01*
X511529Y-303122D01*
X511527Y-303152D01*
X511553Y-303279D01*
X511574Y-303406D01*
X511585Y-303434D01*
X511592Y-303464D01*
X511649Y-303580D01*
X511700Y-303698D01*
X511718Y-303722D01*
X511731Y-303749D01*
X511815Y-303848D01*
X511894Y-303950D01*
X511918Y-303968D01*
X511938Y-303991D01*
X512043Y-304066D01*
X512145Y-304145D01*
X512173Y-304157D01*
X512198Y-304174D01*
X512319Y-304220D01*
X512437Y-304272D01*
X512479Y-304281D01*
X512495Y-304287D01*
X512517Y-304290D01*
X512587Y-304305D01*
X514225Y-304837D01*
X515757Y-305618D01*
X517148Y-306629D01*
X518363Y-307844D01*
X519374Y-309235D01*
X520155Y-310767D01*
X520686Y-312402D01*
X520689Y-312421D01*
X502920Y-312421D01*
X502802Y-312436D01*
X502683Y-312443D01*
X502645Y-312456D01*
X502605Y-312461D01*
X502494Y-312504D01*
X502381Y-312541D01*
X502347Y-312563D01*
X502309Y-312578D01*
X502213Y-312648D01*
X502112Y-312711D01*
X502084Y-312741D01*
X502052Y-312764D01*
X501976Y-312856D01*
X501894Y-312943D01*
X501875Y-312978D01*
X501849Y-313009D01*
X501798Y-313117D01*
X501741Y-313221D01*
X501730Y-313261D01*
X501713Y-313297D01*
X501691Y-313414D01*
X501661Y-313529D01*
X501657Y-313590D01*
X501653Y-313610D01*
X501655Y-313630D01*
X501651Y-313690D01*
X501651Y-314961D01*
X501649Y-314961D01*
X501649Y-313690D01*
X501634Y-313572D01*
X501627Y-313453D01*
X501614Y-313415D01*
X501609Y-313374D01*
X501565Y-313264D01*
X501529Y-313151D01*
X501507Y-313116D01*
X501492Y-313079D01*
X501422Y-312983D01*
X501359Y-312882D01*
X501329Y-312854D01*
X501305Y-312821D01*
X501214Y-312746D01*
X501127Y-312664D01*
X501092Y-312644D01*
X501060Y-312619D01*
X500953Y-312568D01*
X500848Y-312510D01*
X500809Y-312500D01*
X500773Y-312483D01*
X500656Y-312461D01*
X500541Y-312431D01*
X500480Y-312427D01*
X500460Y-312423D01*
X500440Y-312425D01*
X500380Y-312421D01*
X482611Y-312421D01*
X482614Y-312402D01*
X483145Y-310767D01*
X483926Y-309235D01*
X484937Y-307844D01*
X486152Y-306629D01*
X487543Y-305618D01*
X489075Y-304837D01*
X490727Y-304301D01*
X490830Y-304271D01*
X490956Y-304241D01*
X490982Y-304227D01*
X491011Y-304218D01*
X491123Y-304152D01*
X491237Y-304092D01*
X491259Y-304072D01*
X491285Y-304056D01*
X491377Y-303965D01*
X491472Y-303878D01*
X491489Y-303853D01*
X491510Y-303832D01*
X491576Y-303720D01*
X491647Y-303612D01*
X491657Y-303584D01*
X491672Y-303558D01*
X491708Y-303434D01*
X491750Y-303312D01*
X491752Y-303281D01*
X491761Y-303253D01*
X491765Y-303124D01*
X491775Y-302995D01*
X491770Y-302965D01*
X491771Y-302935D01*
X491743Y-302809D01*
X491721Y-302681D01*
X491708Y-302654D01*
X491702Y-302624D01*
X491643Y-302509D01*
X491590Y-302391D01*
X491571Y-302368D01*
X491558Y-302341D01*
X491473Y-302244D01*
X491392Y-302143D01*
X491368Y-302125D01*
X491348Y-302102D01*
X491241Y-302029D01*
X491138Y-301952D01*
X491099Y-301933D01*
X491085Y-301923D01*
X491064Y-301916D01*
X490993Y-301881D01*
X487656Y-300499D01*
X484869Y-297712D01*
X483361Y-294071D01*
X483361Y-290129D01*
X484869Y-286488D01*
X487656Y-283701D01*
X491297Y-282193D01*
X512003Y-282193D01*
X515644Y-283701D01*
X518431Y-286488D01*
X519273Y-288522D01*
X519287Y-288547D01*
X519297Y-288575D01*
X519366Y-288685D01*
X519430Y-288798D01*
X519451Y-288819D01*
X519467Y-288844D01*
X519561Y-288933D01*
X519652Y-289026D01*
X519677Y-289042D01*
X519698Y-289062D01*
X519812Y-289125D01*
X519923Y-289193D01*
X519951Y-289201D01*
X519977Y-289216D01*
X520103Y-289248D01*
X520227Y-289286D01*
X520256Y-289288D01*
X520285Y-289295D01*
X520445Y-289305D01*
X528208Y-289305D01*
X529845Y-290942D01*
X529845Y-350408D01*
X504816Y-375436D01*
X504756Y-375514D01*
X504688Y-375586D01*
X504659Y-375639D01*
X504622Y-375687D01*
X504582Y-375778D01*
X504534Y-375865D01*
X504519Y-375923D01*
X504495Y-375979D01*
X504480Y-376077D01*
X504455Y-376173D01*
X504449Y-376273D01*
X504445Y-376293D01*
X504447Y-376305D01*
X504445Y-376333D01*
X504445Y-395708D01*
X504448Y-395737D01*
X504446Y-395767D01*
X504468Y-395894D01*
X504485Y-396023D01*
X504495Y-396051D01*
X504500Y-396080D01*
X504554Y-396199D01*
X504602Y-396319D01*
X504619Y-396343D01*
X504631Y-396370D01*
X504712Y-396472D01*
X504788Y-396577D01*
X504811Y-396595D01*
X504830Y-396618D01*
X504933Y-396697D01*
X505033Y-396779D01*
X505060Y-396792D01*
X505084Y-396810D01*
X505228Y-396881D01*
X506785Y-397525D01*
X509335Y-400075D01*
X510715Y-403407D01*
X510715Y-422093D01*
X509335Y-425425D01*
X506785Y-427975D01*
X503453Y-429355D01*
X499847Y-429355D01*
G37*
%LPD*%
%LPC*%
G36*
X608795Y-156973D02*
X608795Y-156973D01*
X598677Y-146855D01*
X598677Y-132545D01*
X608795Y-122427D01*
X623105Y-122427D01*
X633223Y-132545D01*
X633223Y-146855D01*
X623105Y-156973D01*
X608795Y-156973D01*
G37*
%LPD*%
%LPC*%
G36*
X284945Y-493523D02*
X284945Y-493523D01*
X274827Y-483405D01*
X274827Y-469095D01*
X284945Y-458977D01*
X299255Y-458977D01*
X309373Y-469095D01*
X309373Y-483405D01*
X299255Y-493523D01*
X284945Y-493523D01*
G37*
%LPD*%
%LPC*%
G36*
X234145Y-493523D02*
X234145Y-493523D01*
X224027Y-483405D01*
X224027Y-469095D01*
X234145Y-458977D01*
X248455Y-458977D01*
X258573Y-469095D01*
X258573Y-483405D01*
X248455Y-493523D01*
X234145Y-493523D01*
G37*
%LPD*%
%LPC*%
G36*
X644707Y-256715D02*
X644707Y-256715D01*
X641375Y-255335D01*
X638825Y-252785D01*
X637445Y-249453D01*
X637445Y-245847D01*
X638825Y-242515D01*
X641375Y-239965D01*
X644707Y-238585D01*
X663393Y-238585D01*
X666725Y-239965D01*
X669275Y-242515D01*
X670655Y-245847D01*
X670655Y-249453D01*
X669275Y-252785D01*
X666725Y-255335D01*
X663393Y-256715D01*
X644707Y-256715D01*
G37*
%LPD*%
%LPC*%
G36*
X620497Y-86455D02*
X620497Y-86455D01*
X617165Y-85075D01*
X614615Y-82525D01*
X613235Y-79193D01*
X613235Y-60507D01*
X614615Y-57175D01*
X617165Y-54625D01*
X620497Y-53245D01*
X624103Y-53245D01*
X627435Y-54625D01*
X629985Y-57175D01*
X631365Y-60507D01*
X631365Y-79193D01*
X629985Y-82525D01*
X627435Y-85075D01*
X624103Y-86455D01*
X620497Y-86455D01*
G37*
%LPD*%
%LPC*%
G36*
X671297Y-86455D02*
X671297Y-86455D01*
X667965Y-85075D01*
X665415Y-82525D01*
X664035Y-79193D01*
X664035Y-60507D01*
X665415Y-57175D01*
X667965Y-54625D01*
X671297Y-53245D01*
X674903Y-53245D01*
X678235Y-54625D01*
X680785Y-57175D01*
X682165Y-60507D01*
X682165Y-79193D01*
X680785Y-82525D01*
X678235Y-85075D01*
X674903Y-86455D01*
X671297Y-86455D01*
G37*
%LPD*%
%LPC*%
G36*
X550647Y-86455D02*
X550647Y-86455D01*
X547315Y-85075D01*
X544765Y-82525D01*
X543385Y-79193D01*
X543385Y-60507D01*
X544765Y-57175D01*
X547315Y-54625D01*
X550647Y-53245D01*
X554253Y-53245D01*
X557585Y-54625D01*
X560135Y-57175D01*
X561515Y-60507D01*
X561515Y-79193D01*
X560135Y-82525D01*
X557585Y-85075D01*
X554253Y-86455D01*
X550647Y-86455D01*
G37*
%LPD*%
%LPC*%
G36*
X499847Y-86455D02*
X499847Y-86455D01*
X496515Y-85075D01*
X493965Y-82525D01*
X492585Y-79193D01*
X492585Y-60507D01*
X493965Y-57175D01*
X496515Y-54625D01*
X499847Y-53245D01*
X503453Y-53245D01*
X506785Y-54625D01*
X509335Y-57175D01*
X510715Y-60507D01*
X510715Y-79193D01*
X509335Y-82525D01*
X506785Y-85075D01*
X503453Y-86455D01*
X499847Y-86455D01*
G37*
%LPD*%
%LPC*%
G36*
X429997Y-86455D02*
X429997Y-86455D01*
X426665Y-85075D01*
X424115Y-82525D01*
X422735Y-79193D01*
X422735Y-60507D01*
X424115Y-57175D01*
X426665Y-54625D01*
X429997Y-53245D01*
X433603Y-53245D01*
X436935Y-54625D01*
X439485Y-57175D01*
X440865Y-60507D01*
X440865Y-79193D01*
X439485Y-82525D01*
X436935Y-85075D01*
X433603Y-86455D01*
X429997Y-86455D01*
G37*
%LPD*%
%LPC*%
G36*
X379197Y-86455D02*
X379197Y-86455D01*
X375865Y-85075D01*
X373315Y-82525D01*
X371935Y-79193D01*
X371935Y-60507D01*
X373315Y-57175D01*
X375865Y-54625D01*
X379197Y-53245D01*
X382803Y-53245D01*
X386135Y-54625D01*
X388685Y-57175D01*
X390065Y-60507D01*
X390065Y-79193D01*
X388685Y-82525D01*
X386135Y-85075D01*
X382803Y-86455D01*
X379197Y-86455D01*
G37*
%LPD*%
%LPC*%
G36*
X525247Y-429355D02*
X525247Y-429355D01*
X521915Y-427975D01*
X519365Y-425425D01*
X517985Y-422093D01*
X517985Y-403407D01*
X519365Y-400075D01*
X521915Y-397525D01*
X525247Y-396145D01*
X528853Y-396145D01*
X532185Y-397525D01*
X534735Y-400075D01*
X536115Y-403407D01*
X536115Y-422093D01*
X534735Y-425425D01*
X532185Y-427975D01*
X528853Y-429355D01*
X525247Y-429355D01*
G37*
%LPD*%
%LPC*%
G36*
X644707Y-282115D02*
X644707Y-282115D01*
X641375Y-280735D01*
X638825Y-278185D01*
X637445Y-274853D01*
X637445Y-271247D01*
X638825Y-267915D01*
X641375Y-265365D01*
X644707Y-263985D01*
X663393Y-263985D01*
X666725Y-265365D01*
X669275Y-267915D01*
X670655Y-271247D01*
X670655Y-274853D01*
X669275Y-278185D01*
X666725Y-280735D01*
X663393Y-282115D01*
X644707Y-282115D01*
G37*
%LPD*%
%LPC*%
G36*
X512733Y-224283D02*
X512733Y-224283D01*
X509745Y-223045D01*
X507459Y-220759D01*
X506221Y-217771D01*
X506221Y-201329D01*
X507459Y-198341D01*
X509745Y-196055D01*
X512733Y-194817D01*
X515967Y-194817D01*
X518955Y-196055D01*
X521241Y-198341D01*
X522479Y-201329D01*
X522479Y-217771D01*
X521241Y-220759D01*
X518955Y-223045D01*
X515967Y-224283D01*
X512733Y-224283D01*
G37*
%LPD*%
%LPC*%
G36*
X487333Y-224283D02*
X487333Y-224283D01*
X484345Y-223045D01*
X482059Y-220759D01*
X480821Y-217771D01*
X480821Y-201329D01*
X482059Y-198341D01*
X484345Y-196055D01*
X487333Y-194817D01*
X490567Y-194817D01*
X493555Y-196055D01*
X495841Y-198341D01*
X497079Y-201329D01*
X497079Y-217771D01*
X495841Y-220759D01*
X493555Y-223045D01*
X490567Y-224283D01*
X487333Y-224283D01*
G37*
%LPD*%
%LPC*%
G36*
X360333Y-224283D02*
X360333Y-224283D01*
X357345Y-223045D01*
X355059Y-220759D01*
X353821Y-217771D01*
X353821Y-201329D01*
X355059Y-198341D01*
X357345Y-196055D01*
X360333Y-194817D01*
X363567Y-194817D01*
X366555Y-196055D01*
X368841Y-198341D01*
X370079Y-201329D01*
X370079Y-217771D01*
X368841Y-220759D01*
X366555Y-223045D01*
X363567Y-224283D01*
X360333Y-224283D01*
G37*
%LPD*%
%LPC*%
G36*
X385733Y-224283D02*
X385733Y-224283D01*
X382745Y-223045D01*
X380459Y-220759D01*
X379221Y-217771D01*
X379221Y-201329D01*
X380459Y-198341D01*
X382745Y-196055D01*
X385733Y-194817D01*
X388967Y-194817D01*
X391955Y-196055D01*
X394241Y-198341D01*
X395479Y-201329D01*
X395479Y-217771D01*
X394241Y-220759D01*
X391955Y-223045D01*
X388967Y-224283D01*
X385733Y-224283D01*
G37*
%LPD*%
%LPC*%
G36*
X461933Y-224283D02*
X461933Y-224283D01*
X458945Y-223045D01*
X456659Y-220759D01*
X455421Y-217771D01*
X455421Y-201329D01*
X456659Y-198341D01*
X458945Y-196055D01*
X461933Y-194817D01*
X465167Y-194817D01*
X468155Y-196055D01*
X470441Y-198341D01*
X471679Y-201329D01*
X471679Y-217771D01*
X470441Y-220759D01*
X468155Y-223045D01*
X465167Y-224283D01*
X461933Y-224283D01*
G37*
%LPD*%
%LPC*%
G36*
X436533Y-224283D02*
X436533Y-224283D01*
X433545Y-223045D01*
X431259Y-220759D01*
X430021Y-217771D01*
X430021Y-201329D01*
X431259Y-198341D01*
X433545Y-196055D01*
X436533Y-194817D01*
X439767Y-194817D01*
X442755Y-196055D01*
X445041Y-198341D01*
X446279Y-201329D01*
X446279Y-217771D01*
X445041Y-220759D01*
X442755Y-223045D01*
X439767Y-224283D01*
X436533Y-224283D01*
G37*
%LPD*%
%LPC*%
G36*
X411133Y-224283D02*
X411133Y-224283D01*
X408145Y-223045D01*
X405859Y-220759D01*
X404621Y-217771D01*
X404621Y-201329D01*
X405859Y-198341D01*
X408145Y-196055D01*
X411133Y-194817D01*
X414367Y-194817D01*
X417355Y-196055D01*
X419641Y-198341D01*
X420879Y-201329D01*
X420879Y-217771D01*
X419641Y-220759D01*
X417355Y-223045D01*
X414367Y-224283D01*
X411133Y-224283D01*
G37*
%LPD*%
%LPC*%
G36*
X487333Y-148083D02*
X487333Y-148083D01*
X484345Y-146845D01*
X482059Y-144559D01*
X480821Y-141571D01*
X480821Y-125129D01*
X482059Y-122141D01*
X484345Y-119855D01*
X487333Y-118617D01*
X490567Y-118617D01*
X493555Y-119855D01*
X495841Y-122141D01*
X497079Y-125129D01*
X497079Y-141571D01*
X495841Y-144559D01*
X493555Y-146845D01*
X490567Y-148083D01*
X487333Y-148083D01*
G37*
%LPD*%
%LPC*%
G36*
X436533Y-148083D02*
X436533Y-148083D01*
X433545Y-146845D01*
X431259Y-144559D01*
X430021Y-141571D01*
X430021Y-125129D01*
X431259Y-122141D01*
X433545Y-119855D01*
X436533Y-118617D01*
X439767Y-118617D01*
X442755Y-119855D01*
X445041Y-122141D01*
X446279Y-125129D01*
X446279Y-141571D01*
X445041Y-144559D01*
X442755Y-146845D01*
X439767Y-148083D01*
X436533Y-148083D01*
G37*
%LPD*%
%LPC*%
G36*
X411133Y-148083D02*
X411133Y-148083D01*
X408145Y-146845D01*
X405859Y-144559D01*
X404621Y-141571D01*
X404621Y-125129D01*
X405859Y-122141D01*
X408145Y-119855D01*
X411133Y-118617D01*
X414367Y-118617D01*
X417355Y-119855D01*
X419641Y-122141D01*
X420879Y-125129D01*
X420879Y-141571D01*
X419641Y-144559D01*
X417355Y-146845D01*
X414367Y-148083D01*
X411133Y-148083D01*
G37*
%LPD*%
%LPC*%
G36*
X385733Y-148083D02*
X385733Y-148083D01*
X382745Y-146845D01*
X380459Y-144559D01*
X379221Y-141571D01*
X379221Y-125129D01*
X380459Y-122141D01*
X382745Y-119855D01*
X385733Y-118617D01*
X388967Y-118617D01*
X391955Y-119855D01*
X394241Y-122141D01*
X395479Y-125129D01*
X395479Y-141571D01*
X394241Y-144559D01*
X391955Y-146845D01*
X388967Y-148083D01*
X385733Y-148083D01*
G37*
%LPD*%
%LPC*%
G36*
X429930Y-415799D02*
X429930Y-415799D01*
X426476Y-414368D01*
X423832Y-411724D01*
X422401Y-408270D01*
X422401Y-404530D01*
X423832Y-401076D01*
X426476Y-398432D01*
X429930Y-397001D01*
X433670Y-397001D01*
X437124Y-398432D01*
X439768Y-401076D01*
X441199Y-404530D01*
X441199Y-408270D01*
X439768Y-411724D01*
X437124Y-414368D01*
X433670Y-415799D01*
X429930Y-415799D01*
G37*
%LPD*%
%LPC*%
G36*
X99336Y-249429D02*
X99336Y-249429D01*
X93979Y-244072D01*
X93979Y-236496D01*
X99336Y-231139D01*
X106912Y-231139D01*
X112269Y-236496D01*
X112269Y-244072D01*
X106912Y-249429D01*
X99336Y-249429D01*
G37*
%LPD*%
%LPC*%
G36*
X70888Y-263145D02*
X70888Y-263145D01*
X65531Y-257788D01*
X65531Y-250212D01*
X70888Y-244855D01*
X78464Y-244855D01*
X83821Y-250212D01*
X83821Y-257788D01*
X78464Y-263145D01*
X70888Y-263145D01*
G37*
%LPD*%
%LPC*%
G36*
X70888Y-208281D02*
X70888Y-208281D01*
X65531Y-202924D01*
X65531Y-195348D01*
X70888Y-189991D01*
X78464Y-189991D01*
X83821Y-195348D01*
X83821Y-202924D01*
X78464Y-208281D01*
X70888Y-208281D01*
G37*
%LPD*%
%LPC*%
G36*
X99336Y-276861D02*
X99336Y-276861D01*
X93979Y-271504D01*
X93979Y-263928D01*
X99336Y-258571D01*
X106912Y-258571D01*
X112269Y-263928D01*
X112269Y-271504D01*
X106912Y-276861D01*
X99336Y-276861D01*
G37*
%LPD*%
%LPC*%
G36*
X70888Y-290577D02*
X70888Y-290577D01*
X65531Y-285220D01*
X65531Y-277644D01*
X70888Y-272287D01*
X78464Y-272287D01*
X83821Y-277644D01*
X83821Y-285220D01*
X78464Y-290577D01*
X70888Y-290577D01*
G37*
%LPD*%
%LPC*%
G36*
X99336Y-167133D02*
X99336Y-167133D01*
X93979Y-161776D01*
X93979Y-154200D01*
X99336Y-148843D01*
X106912Y-148843D01*
X112269Y-154200D01*
X112269Y-161776D01*
X106912Y-167133D01*
X99336Y-167133D01*
G37*
%LPD*%
%LPC*%
G36*
X99336Y-304293D02*
X99336Y-304293D01*
X93979Y-298936D01*
X93979Y-291360D01*
X99336Y-286003D01*
X106912Y-286003D01*
X112269Y-291360D01*
X112269Y-298936D01*
X106912Y-304293D01*
X99336Y-304293D01*
G37*
%LPD*%
%LPC*%
G36*
X70888Y-235713D02*
X70888Y-235713D01*
X65531Y-230356D01*
X65531Y-222780D01*
X70888Y-217423D01*
X78464Y-217423D01*
X83821Y-222780D01*
X83821Y-230356D01*
X78464Y-235713D01*
X70888Y-235713D01*
G37*
%LPD*%
%LPC*%
G36*
X295083Y-141479D02*
X295083Y-141479D01*
X290321Y-136717D01*
X290321Y-129983D01*
X295083Y-125221D01*
X301817Y-125221D01*
X306579Y-129983D01*
X306579Y-136717D01*
X301817Y-141479D01*
X295083Y-141479D01*
G37*
%LPD*%
%LPC*%
G36*
X295083Y-185929D02*
X295083Y-185929D01*
X290321Y-181167D01*
X290321Y-174433D01*
X295083Y-169671D01*
X301817Y-169671D01*
X306579Y-174433D01*
X306579Y-181167D01*
X301817Y-185929D01*
X295083Y-185929D01*
G37*
%LPD*%
%LPC*%
G36*
X199833Y-395479D02*
X199833Y-395479D01*
X195071Y-390717D01*
X195071Y-383983D01*
X199833Y-379221D01*
X206567Y-379221D01*
X211329Y-383983D01*
X211329Y-390717D01*
X206567Y-395479D01*
X199833Y-395479D01*
G37*
%LPD*%
%LPC*%
G36*
X193483Y-224029D02*
X193483Y-224029D01*
X188721Y-219267D01*
X188721Y-212533D01*
X193483Y-207771D01*
X200217Y-207771D01*
X204979Y-212533D01*
X204979Y-219267D01*
X200217Y-224029D01*
X193483Y-224029D01*
G37*
%LPD*%
%LPC*%
G36*
X599883Y-185929D02*
X599883Y-185929D01*
X595121Y-181167D01*
X595121Y-174433D01*
X599883Y-169671D01*
X606617Y-169671D01*
X611379Y-174433D01*
X611379Y-181167D01*
X606617Y-185929D01*
X599883Y-185929D01*
G37*
%LPD*%
%LPC*%
G36*
X364933Y-389129D02*
X364933Y-389129D01*
X360171Y-384367D01*
X360171Y-377633D01*
X364933Y-372871D01*
X371667Y-372871D01*
X376429Y-377633D01*
X376429Y-384367D01*
X371667Y-389129D01*
X364933Y-389129D01*
G37*
%LPD*%
%LPC*%
G36*
X295083Y-224029D02*
X295083Y-224029D01*
X290321Y-219267D01*
X290321Y-212533D01*
X295083Y-207771D01*
X301817Y-207771D01*
X306579Y-212533D01*
X306579Y-219267D01*
X301817Y-224029D01*
X295083Y-224029D01*
G37*
%LPD*%
%LPC*%
G36*
X199833Y-344679D02*
X199833Y-344679D01*
X195071Y-339917D01*
X195071Y-333183D01*
X199833Y-328421D01*
X206567Y-328421D01*
X211329Y-333183D01*
X211329Y-339917D01*
X206567Y-344679D01*
X199833Y-344679D01*
G37*
%LPD*%
%LPC*%
G36*
X199833Y-287529D02*
X199833Y-287529D01*
X195071Y-282767D01*
X195071Y-276033D01*
X199833Y-271271D01*
X206567Y-271271D01*
X211329Y-276033D01*
X211329Y-282767D01*
X206567Y-287529D01*
X199833Y-287529D01*
G37*
%LPD*%
%LPC*%
G36*
X167639Y-478789D02*
X167639Y-478789D01*
X177547Y-478789D01*
X177547Y-487136D01*
X177240Y-489071D01*
X176635Y-490934D01*
X175745Y-492680D01*
X174594Y-494264D01*
X173208Y-495650D01*
X171624Y-496801D01*
X169878Y-497691D01*
X168015Y-498296D01*
X167639Y-498356D01*
X167639Y-478789D01*
G37*
%LPD*%
%LPC*%
G36*
X167639Y-473711D02*
X167639Y-473711D01*
X167639Y-454144D01*
X168015Y-454204D01*
X169878Y-454809D01*
X171624Y-455699D01*
X173208Y-456850D01*
X174594Y-458236D01*
X175745Y-459820D01*
X176635Y-461566D01*
X177240Y-463429D01*
X177547Y-465364D01*
X177547Y-473711D01*
X167639Y-473711D01*
G37*
%LPD*%
%LPC*%
G36*
X162185Y-498296D02*
X162185Y-498296D01*
X160322Y-497691D01*
X158576Y-496801D01*
X156992Y-495650D01*
X155606Y-494264D01*
X154455Y-492680D01*
X153565Y-490934D01*
X152960Y-489071D01*
X152653Y-487136D01*
X152653Y-478789D01*
X162561Y-478789D01*
X162561Y-498356D01*
X162185Y-498296D01*
G37*
%LPD*%
%LPC*%
G36*
X152653Y-473711D02*
X152653Y-473711D01*
X152653Y-465364D01*
X152960Y-463429D01*
X153565Y-461566D01*
X154455Y-459820D01*
X155606Y-458236D01*
X156992Y-456850D01*
X158576Y-455699D01*
X160322Y-454809D01*
X162185Y-454204D01*
X162561Y-454144D01*
X162561Y-473711D01*
X152653Y-473711D01*
G37*
%LPD*%
%LPC*%
G36*
X504189Y-325883D02*
X504189Y-325883D01*
X504189Y-317499D01*
X520689Y-317499D01*
X520686Y-317518D01*
X520155Y-319153D01*
X519374Y-320685D01*
X518363Y-322076D01*
X517148Y-323291D01*
X515757Y-324302D01*
X514225Y-325083D01*
X512590Y-325614D01*
X510892Y-325883D01*
X504189Y-325883D01*
G37*
%LPD*%
%LPC*%
G36*
X492408Y-325883D02*
X492408Y-325883D01*
X490710Y-325614D01*
X489075Y-325083D01*
X487543Y-324302D01*
X486152Y-323291D01*
X484937Y-322076D01*
X483926Y-320685D01*
X483145Y-319153D01*
X482614Y-317518D01*
X482611Y-317499D01*
X499111Y-317499D01*
X499111Y-325883D01*
X492408Y-325883D01*
G37*
%LPD*%
%LPC*%
G36*
X656549Y-333931D02*
X656549Y-333931D01*
X656549Y-326349D01*
X671377Y-326349D01*
X670932Y-327720D01*
X670212Y-329133D01*
X669279Y-330417D01*
X668157Y-331539D01*
X666873Y-332472D01*
X665460Y-333192D01*
X663951Y-333683D01*
X662383Y-333931D01*
X656549Y-333931D01*
G37*
%LPD*%
%LPC*%
G36*
X599399Y-72349D02*
X599399Y-72349D01*
X606981Y-72349D01*
X606981Y-78183D01*
X606733Y-79751D01*
X606242Y-81260D01*
X605522Y-82673D01*
X604589Y-83957D01*
X603467Y-85079D01*
X602183Y-86012D01*
X600770Y-86732D01*
X599399Y-87177D01*
X599399Y-72349D01*
G37*
%LPD*%
%LPC*%
G36*
X478749Y-72349D02*
X478749Y-72349D01*
X486331Y-72349D01*
X486331Y-78183D01*
X486083Y-79751D01*
X485592Y-81260D01*
X484872Y-82673D01*
X483939Y-83957D01*
X482817Y-85079D01*
X481533Y-86012D01*
X480120Y-86732D01*
X478749Y-87177D01*
X478749Y-72349D01*
G37*
%LPD*%
%LPC*%
G36*
X567649Y-415249D02*
X567649Y-415249D01*
X575231Y-415249D01*
X575231Y-421083D01*
X574983Y-422651D01*
X574492Y-424160D01*
X573772Y-425573D01*
X572839Y-426857D01*
X571717Y-427979D01*
X570433Y-428912D01*
X569020Y-429632D01*
X567649Y-430077D01*
X567649Y-415249D01*
G37*
%LPD*%
%LPC*%
G36*
X358099Y-72349D02*
X358099Y-72349D01*
X365681Y-72349D01*
X365681Y-78183D01*
X365433Y-79751D01*
X364942Y-81260D01*
X364222Y-82673D01*
X363289Y-83957D01*
X362167Y-85079D01*
X360883Y-86012D01*
X359470Y-86732D01*
X358099Y-87177D01*
X358099Y-72349D01*
G37*
%LPD*%
%LPC*%
G36*
X567649Y-410251D02*
X567649Y-410251D01*
X567649Y-395423D01*
X569020Y-395868D01*
X570433Y-396588D01*
X571717Y-397521D01*
X572839Y-398643D01*
X573772Y-399927D01*
X574492Y-401340D01*
X574983Y-402849D01*
X575231Y-404417D01*
X575231Y-410251D01*
X567649Y-410251D01*
G37*
%LPD*%
%LPC*%
G36*
X358099Y-67351D02*
X358099Y-67351D01*
X358099Y-52523D01*
X359470Y-52968D01*
X360883Y-53688D01*
X362167Y-54621D01*
X363289Y-55743D01*
X364222Y-57027D01*
X364942Y-58440D01*
X365433Y-59949D01*
X365681Y-61517D01*
X365681Y-67351D01*
X358099Y-67351D01*
G37*
%LPD*%
%LPC*%
G36*
X478749Y-67351D02*
X478749Y-67351D01*
X478749Y-52523D01*
X480120Y-52968D01*
X481533Y-53688D01*
X482817Y-54621D01*
X483939Y-55743D01*
X484872Y-57027D01*
X485592Y-58440D01*
X486083Y-59949D01*
X486331Y-61517D01*
X486331Y-67351D01*
X478749Y-67351D01*
G37*
%LPD*%
%LPC*%
G36*
X599399Y-67351D02*
X599399Y-67351D01*
X599399Y-52523D01*
X600770Y-52968D01*
X602183Y-53688D01*
X603467Y-54621D01*
X604589Y-55743D01*
X605522Y-57027D01*
X606242Y-58440D01*
X606733Y-59949D01*
X606981Y-61517D01*
X606981Y-67351D01*
X599399Y-67351D01*
G37*
%LPD*%
%LPC*%
G36*
X644149Y-333683D02*
X644149Y-333683D01*
X642640Y-333192D01*
X641227Y-332472D01*
X639943Y-331539D01*
X638821Y-330417D01*
X637888Y-329133D01*
X637168Y-327720D01*
X636723Y-326349D01*
X651551Y-326349D01*
X651551Y-333931D01*
X645717Y-333931D01*
X644149Y-333683D01*
G37*
%LPD*%
%LPC*%
G36*
X561280Y-429632D02*
X561280Y-429632D01*
X559867Y-428912D01*
X558583Y-427979D01*
X557461Y-426857D01*
X556528Y-425573D01*
X555808Y-424160D01*
X555317Y-422651D01*
X555069Y-421083D01*
X555069Y-415249D01*
X562651Y-415249D01*
X562651Y-430077D01*
X561280Y-429632D01*
G37*
%LPD*%
%LPC*%
G36*
X656549Y-321351D02*
X656549Y-321351D01*
X656549Y-313769D01*
X662383Y-313769D01*
X663951Y-314017D01*
X665460Y-314508D01*
X666873Y-315228D01*
X668157Y-316161D01*
X669279Y-317283D01*
X670212Y-318567D01*
X670932Y-319980D01*
X671377Y-321351D01*
X656549Y-321351D01*
G37*
%LPD*%
%LPC*%
G36*
X593030Y-86732D02*
X593030Y-86732D01*
X591617Y-86012D01*
X590333Y-85079D01*
X589211Y-83957D01*
X588278Y-82673D01*
X587558Y-81260D01*
X587067Y-79751D01*
X586819Y-78183D01*
X586819Y-72349D01*
X594401Y-72349D01*
X594401Y-87177D01*
X593030Y-86732D01*
G37*
%LPD*%
%LPC*%
G36*
X351730Y-86732D02*
X351730Y-86732D01*
X350317Y-86012D01*
X349033Y-85079D01*
X347911Y-83957D01*
X346978Y-82673D01*
X346258Y-81260D01*
X345767Y-79751D01*
X345519Y-78183D01*
X345519Y-72349D01*
X353101Y-72349D01*
X353101Y-87177D01*
X351730Y-86732D01*
G37*
%LPD*%
%LPC*%
G36*
X472380Y-86732D02*
X472380Y-86732D01*
X470967Y-86012D01*
X469683Y-85079D01*
X468561Y-83957D01*
X467628Y-82673D01*
X466908Y-81260D01*
X466417Y-79751D01*
X466169Y-78183D01*
X466169Y-72349D01*
X473751Y-72349D01*
X473751Y-87177D01*
X472380Y-86732D01*
G37*
%LPD*%
%LPC*%
G36*
X636723Y-321351D02*
X636723Y-321351D01*
X637168Y-319980D01*
X637888Y-318567D01*
X638821Y-317283D01*
X639943Y-316161D01*
X641227Y-315228D01*
X642640Y-314508D01*
X644149Y-314017D01*
X645717Y-313769D01*
X651551Y-313769D01*
X651551Y-321351D01*
X636723Y-321351D01*
G37*
%LPD*%
%LPC*%
G36*
X586819Y-67351D02*
X586819Y-67351D01*
X586819Y-61517D01*
X587067Y-59949D01*
X587558Y-58440D01*
X588278Y-57027D01*
X589211Y-55743D01*
X590333Y-54621D01*
X591617Y-53688D01*
X593030Y-52968D01*
X594401Y-52523D01*
X594401Y-67351D01*
X586819Y-67351D01*
G37*
%LPD*%
%LPC*%
G36*
X466169Y-67351D02*
X466169Y-67351D01*
X466169Y-61517D01*
X466417Y-59949D01*
X466908Y-58440D01*
X467628Y-57027D01*
X468561Y-55743D01*
X469683Y-54621D01*
X470967Y-53688D01*
X472380Y-52968D01*
X473751Y-52523D01*
X473751Y-67351D01*
X466169Y-67351D01*
G37*
%LPD*%
%LPC*%
G36*
X555069Y-410251D02*
X555069Y-410251D01*
X555069Y-404417D01*
X555317Y-402849D01*
X555808Y-401340D01*
X556528Y-399927D01*
X557461Y-398643D01*
X558583Y-397521D01*
X559867Y-396588D01*
X561280Y-395868D01*
X562651Y-395423D01*
X562651Y-410251D01*
X555069Y-410251D01*
G37*
%LPD*%
%LPC*%
G36*
X345519Y-67351D02*
X345519Y-67351D01*
X345519Y-61517D01*
X345767Y-59949D01*
X346258Y-58440D01*
X346978Y-57027D01*
X347911Y-55743D01*
X349033Y-54621D01*
X350317Y-53688D01*
X351730Y-52968D01*
X353101Y-52523D01*
X353101Y-67351D01*
X345519Y-67351D01*
G37*
%LPD*%
%LPC*%
G36*
X363981Y-135381D02*
X363981Y-135381D01*
X371095Y-135381D01*
X371095Y-140674D01*
X370870Y-142095D01*
X370425Y-143464D01*
X369771Y-144747D01*
X368925Y-145911D01*
X367907Y-146929D01*
X366743Y-147775D01*
X365460Y-148429D01*
X364091Y-148874D01*
X363981Y-148891D01*
X363981Y-135381D01*
G37*
%LPD*%
%LPC*%
G36*
X363981Y-131319D02*
X363981Y-131319D01*
X363981Y-117809D01*
X364091Y-117826D01*
X365460Y-118271D01*
X366743Y-118925D01*
X367907Y-119771D01*
X368925Y-120789D01*
X369771Y-121953D01*
X370425Y-123236D01*
X370870Y-124605D01*
X371095Y-126026D01*
X371095Y-131319D01*
X363981Y-131319D01*
G37*
%LPD*%
%LPC*%
G36*
X359809Y-148874D02*
X359809Y-148874D01*
X358440Y-148429D01*
X357157Y-147775D01*
X355993Y-146929D01*
X354975Y-145911D01*
X354129Y-144747D01*
X353475Y-143464D01*
X353030Y-142095D01*
X352805Y-140674D01*
X352805Y-135381D01*
X359919Y-135381D01*
X359919Y-148891D01*
X359809Y-148874D01*
G37*
%LPD*%
%LPC*%
G36*
X352805Y-131319D02*
X352805Y-131319D01*
X352805Y-126026D01*
X353030Y-124605D01*
X353475Y-123236D01*
X354129Y-121953D01*
X354975Y-120789D01*
X355993Y-119771D01*
X357157Y-118925D01*
X358440Y-118271D01*
X359809Y-117826D01*
X359919Y-117809D01*
X359919Y-131319D01*
X352805Y-131319D01*
G37*
%LPD*%
%LPC*%
G36*
X433831Y-442215D02*
X433831Y-442215D01*
X433831Y-433831D01*
X442215Y-433831D01*
X442215Y-436114D01*
X436114Y-442215D01*
X433831Y-442215D01*
G37*
%LPD*%
%LPC*%
G36*
X433831Y-429769D02*
X433831Y-429769D01*
X433831Y-421385D01*
X436114Y-421385D01*
X442215Y-427486D01*
X442215Y-429769D01*
X433831Y-429769D01*
G37*
%LPD*%
%LPC*%
G36*
X427486Y-442215D02*
X427486Y-442215D01*
X421385Y-436114D01*
X421385Y-433831D01*
X429769Y-433831D01*
X429769Y-442215D01*
X427486Y-442215D01*
G37*
%LPD*%
%LPC*%
G36*
X421385Y-429769D02*
X421385Y-429769D01*
X421385Y-427486D01*
X427486Y-421385D01*
X429769Y-421385D01*
X429769Y-429769D01*
X421385Y-429769D01*
G37*
%LPD*%
%LPC*%
G36*
X105663Y-360173D02*
X105663Y-360173D01*
X105663Y-352551D01*
X113285Y-352551D01*
X113285Y-354221D01*
X107333Y-360173D01*
X105663Y-360173D01*
G37*
%LPD*%
%LPC*%
G36*
X98915Y-360173D02*
X98915Y-360173D01*
X92963Y-354221D01*
X92963Y-352551D01*
X100585Y-352551D01*
X100585Y-360173D01*
X98915Y-360173D01*
G37*
%LPD*%
%LPC*%
G36*
X105663Y-347473D02*
X105663Y-347473D01*
X105663Y-339851D01*
X107333Y-339851D01*
X113285Y-345803D01*
X113285Y-347473D01*
X105663Y-347473D01*
G37*
%LPD*%
%LPC*%
G36*
X92963Y-347473D02*
X92963Y-347473D01*
X92963Y-345803D01*
X98915Y-339851D01*
X100585Y-339851D01*
X100585Y-347473D01*
X92963Y-347473D01*
G37*
%LPD*%
%LPC*%
G36*
X306831Y-288545D02*
X306831Y-288545D01*
X306831Y-281431D01*
X313945Y-281431D01*
X313945Y-283188D01*
X308588Y-288545D01*
X306831Y-288545D01*
G37*
%LPD*%
%LPC*%
G36*
X554481Y-358395D02*
X554481Y-358395D01*
X554481Y-351281D01*
X561595Y-351281D01*
X561595Y-353038D01*
X556238Y-358395D01*
X554481Y-358395D01*
G37*
%LPD*%
%LPC*%
G36*
X306831Y-345695D02*
X306831Y-345695D01*
X306831Y-338581D01*
X313945Y-338581D01*
X313945Y-340338D01*
X308588Y-345695D01*
X306831Y-345695D01*
G37*
%LPD*%
%LPC*%
G36*
X173481Y-47245D02*
X173481Y-47245D01*
X173481Y-40131D01*
X180595Y-40131D01*
X180595Y-41888D01*
X175238Y-47245D01*
X173481Y-47245D01*
G37*
%LPD*%
%LPC*%
G36*
X306831Y-396495D02*
X306831Y-396495D01*
X306831Y-389381D01*
X313945Y-389381D01*
X313945Y-391138D01*
X308588Y-396495D01*
X306831Y-396495D01*
G37*
%LPD*%
%LPC*%
G36*
X706881Y-186945D02*
X706881Y-186945D01*
X706881Y-179831D01*
X713995Y-179831D01*
X713995Y-181588D01*
X708638Y-186945D01*
X706881Y-186945D01*
G37*
%LPD*%
%LPC*%
G36*
X370331Y-440945D02*
X370331Y-440945D01*
X370331Y-433831D01*
X377445Y-433831D01*
X377445Y-435588D01*
X372088Y-440945D01*
X370331Y-440945D01*
G37*
%LPD*%
%LPC*%
G36*
X173481Y-36069D02*
X173481Y-36069D01*
X173481Y-28955D01*
X175238Y-28955D01*
X180595Y-34312D01*
X180595Y-36069D01*
X173481Y-36069D01*
G37*
%LPD*%
%LPC*%
G36*
X306831Y-334519D02*
X306831Y-334519D01*
X306831Y-327405D01*
X308588Y-327405D01*
X313945Y-332762D01*
X313945Y-334519D01*
X306831Y-334519D01*
G37*
%LPD*%
%LPC*%
G36*
X306831Y-385319D02*
X306831Y-385319D01*
X306831Y-378205D01*
X308588Y-378205D01*
X313945Y-383562D01*
X313945Y-385319D01*
X306831Y-385319D01*
G37*
%LPD*%
%LPC*%
G36*
X370331Y-429769D02*
X370331Y-429769D01*
X370331Y-422655D01*
X372088Y-422655D01*
X377445Y-428012D01*
X377445Y-429769D01*
X370331Y-429769D01*
G37*
%LPD*%
%LPC*%
G36*
X306831Y-277369D02*
X306831Y-277369D01*
X306831Y-270255D01*
X308588Y-270255D01*
X313945Y-275612D01*
X313945Y-277369D01*
X306831Y-277369D01*
G37*
%LPD*%
%LPC*%
G36*
X706881Y-175769D02*
X706881Y-175769D01*
X706881Y-168655D01*
X708638Y-168655D01*
X713995Y-174012D01*
X713995Y-175769D01*
X706881Y-175769D01*
G37*
%LPD*%
%LPC*%
G36*
X554481Y-347219D02*
X554481Y-347219D01*
X554481Y-340105D01*
X556238Y-340105D01*
X561595Y-345462D01*
X561595Y-347219D01*
X554481Y-347219D01*
G37*
%LPD*%
%LPC*%
G36*
X167662Y-47245D02*
X167662Y-47245D01*
X162305Y-41888D01*
X162305Y-40131D01*
X169419Y-40131D01*
X169419Y-47245D01*
X167662Y-47245D01*
G37*
%LPD*%
%LPC*%
G36*
X301012Y-345695D02*
X301012Y-345695D01*
X295655Y-340338D01*
X295655Y-338581D01*
X302769Y-338581D01*
X302769Y-345695D01*
X301012Y-345695D01*
G37*
%LPD*%
%LPC*%
G36*
X548662Y-358395D02*
X548662Y-358395D01*
X543305Y-353038D01*
X543305Y-351281D01*
X550419Y-351281D01*
X550419Y-358395D01*
X548662Y-358395D01*
G37*
%LPD*%
%LPC*%
G36*
X364512Y-440945D02*
X364512Y-440945D01*
X359155Y-435588D01*
X359155Y-433831D01*
X366269Y-433831D01*
X366269Y-440945D01*
X364512Y-440945D01*
G37*
%LPD*%
%LPC*%
G36*
X301012Y-396495D02*
X301012Y-396495D01*
X295655Y-391138D01*
X295655Y-389381D01*
X302769Y-389381D01*
X302769Y-396495D01*
X301012Y-396495D01*
G37*
%LPD*%
%LPC*%
G36*
X301012Y-288545D02*
X301012Y-288545D01*
X295655Y-283188D01*
X295655Y-281431D01*
X302769Y-281431D01*
X302769Y-288545D01*
X301012Y-288545D01*
G37*
%LPD*%
%LPC*%
G36*
X701062Y-186945D02*
X701062Y-186945D01*
X695705Y-181588D01*
X695705Y-179831D01*
X702819Y-179831D01*
X702819Y-186945D01*
X701062Y-186945D01*
G37*
%LPD*%
%LPC*%
G36*
X162305Y-36069D02*
X162305Y-36069D01*
X162305Y-34312D01*
X167662Y-28955D01*
X169419Y-28955D01*
X169419Y-36069D01*
X162305Y-36069D01*
G37*
%LPD*%
%LPC*%
G36*
X295655Y-385319D02*
X295655Y-385319D01*
X295655Y-383562D01*
X301012Y-378205D01*
X302769Y-378205D01*
X302769Y-385319D01*
X295655Y-385319D01*
G37*
%LPD*%
%LPC*%
G36*
X359155Y-429769D02*
X359155Y-429769D01*
X359155Y-428012D01*
X364512Y-422655D01*
X366269Y-422655D01*
X366269Y-429769D01*
X359155Y-429769D01*
G37*
%LPD*%
%LPC*%
G36*
X295655Y-277369D02*
X295655Y-277369D01*
X295655Y-275612D01*
X301012Y-270255D01*
X302769Y-270255D01*
X302769Y-277369D01*
X295655Y-277369D01*
G37*
%LPD*%
%LPC*%
G36*
X295655Y-334519D02*
X295655Y-334519D01*
X295655Y-332762D01*
X301012Y-327405D01*
X302769Y-327405D01*
X302769Y-334519D01*
X295655Y-334519D01*
G37*
%LPD*%
%LPC*%
G36*
X695705Y-175769D02*
X695705Y-175769D01*
X695705Y-174012D01*
X701062Y-168655D01*
X702819Y-168655D01*
X702819Y-175769D01*
X695705Y-175769D01*
G37*
%LPD*%
%LPC*%
G36*
X543305Y-347219D02*
X543305Y-347219D01*
X543305Y-345462D01*
X548662Y-340105D01*
X550419Y-340105D01*
X550419Y-347219D01*
X543305Y-347219D01*
G37*
%LPD*%
%LPC*%
G36*
X165099Y-476251D02*
X165099Y-476251D01*
X165099Y-476249D01*
X165101Y-476249D01*
X165101Y-476251D01*
X165099Y-476251D01*
G37*
%LPD*%
%LPC*%
G36*
X103123Y-350013D02*
X103123Y-350013D01*
X103123Y-350011D01*
X103125Y-350011D01*
X103125Y-350013D01*
X103123Y-350013D01*
G37*
%LPD*%
D10*
X501650Y-420290D02*
X501650Y-405210D01*
X527050Y-405210D02*
X527050Y-420290D01*
D11*
X514350Y-139954D02*
X514350Y-126746D01*
X488950Y-126746D02*
X488950Y-139954D01*
X361950Y-139954D02*
X361950Y-126746D01*
X361950Y-202946D02*
X361950Y-216154D01*
X463550Y-139954D02*
X463550Y-126746D01*
X438150Y-126746D02*
X438150Y-139954D01*
X387350Y-139954D02*
X387350Y-126746D01*
X412750Y-126746D02*
X412750Y-139954D01*
X387350Y-202946D02*
X387350Y-216154D01*
X412750Y-216154D02*
X412750Y-202946D01*
X438150Y-202946D02*
X438150Y-216154D01*
X463550Y-216154D02*
X463550Y-202946D01*
X488950Y-202946D02*
X488950Y-216154D01*
X514350Y-216154D02*
X514350Y-202946D01*
D10*
X596900Y-77390D02*
X596900Y-62310D01*
X622300Y-62310D02*
X622300Y-77390D01*
X647700Y-77390D02*
X647700Y-62310D01*
X673100Y-62310D02*
X673100Y-77390D01*
X476250Y-77390D02*
X476250Y-62310D01*
X501650Y-62310D02*
X501650Y-77390D01*
X527050Y-77390D02*
X527050Y-62310D01*
X552450Y-62310D02*
X552450Y-77390D01*
X355600Y-77390D02*
X355600Y-62310D01*
X381000Y-62310D02*
X381000Y-77390D01*
X406400Y-77390D02*
X406400Y-62310D01*
X431800Y-62310D02*
X431800Y-77390D01*
D12*
X552450Y-349250D03*
X552450Y-247650D03*
D10*
X646510Y-323850D02*
X661590Y-323850D01*
X661590Y-298450D02*
X646510Y-298450D01*
X646510Y-273050D02*
X661590Y-273050D01*
X661590Y-247650D02*
X646510Y-247650D01*
D13*
X510032Y-314960D02*
X493268Y-314960D01*
X493268Y-292100D02*
X510032Y-292100D01*
X510032Y-269240D02*
X493268Y-269240D01*
D10*
X565150Y-405210D02*
X565150Y-420290D01*
X590550Y-420290D02*
X590550Y-405210D01*
D14*
X103124Y-350012D03*
X103124Y-322580D03*
X103124Y-295148D03*
X103124Y-267716D03*
X103124Y-240284D03*
X103124Y-212852D03*
X103124Y-185420D03*
X103124Y-157988D03*
X74676Y-336296D03*
X74676Y-308864D03*
X74676Y-281432D03*
X74676Y-254000D03*
X74676Y-226568D03*
X74676Y-199136D03*
X74676Y-171704D03*
D15*
X196850Y-215900D03*
X298450Y-215900D03*
X196850Y-177800D03*
X298450Y-177800D03*
X196850Y-133350D03*
X298450Y-133350D03*
D16*
X304800Y-387350D03*
X203200Y-387350D03*
X304800Y-336550D03*
X203200Y-336550D03*
X304800Y-279400D03*
X203200Y-279400D03*
X704850Y-177800D03*
X603250Y-177800D03*
D12*
X654050Y-457200D03*
X654050Y-355600D03*
D17*
X368300Y-381000D03*
X368300Y-431800D03*
D18*
X431800Y-431800D03*
D19*
X431800Y-406400D03*
D20*
X241300Y-476250D03*
X292100Y-476250D03*
X311150Y-69850D03*
X615950Y-139700D03*
D21*
X165100Y-466344D02*
X165100Y-486156D01*
D16*
X273050Y-69850D03*
X171450Y-69850D03*
D15*
X171450Y-38100D03*
X273050Y-38100D03*
D22*
X74676Y-147574D02*
X74676Y-171704D01*
X74676Y-147574D02*
X82550Y-139700D01*
X127000Y-139700D01*
X158750Y-171450D01*
X158750Y-203200D01*
X177800Y-222250D01*
X177800Y-241300D01*
X190500Y-254000D01*
X323850Y-254000D01*
X336550Y-266700D01*
X336550Y-425450D01*
D23*
X336550Y-425450D03*
D22*
X647700Y-50800D02*
X641350Y-44450D01*
X647700Y-50800D02*
X647700Y-69850D01*
X520700Y-44450D02*
X400050Y-44450D01*
X520700Y-44450D02*
X641350Y-44450D01*
X527050Y-50800D02*
X527050Y-69850D01*
X527050Y-50800D02*
X520700Y-44450D01*
X406400Y-50800D02*
X406400Y-69850D01*
D24*
X406400Y-50800D02*
X400050Y-44450D01*
X311150Y-44450D01*
X311150Y-69850D01*
X279400Y-38100D01*
X273050Y-38100D01*
X273050Y-69850D01*
D25*
X530860Y-269240D02*
X552450Y-247650D01*
X530860Y-269240D02*
X501650Y-269240D01*
D22*
X136652Y-212852D02*
X103124Y-212852D01*
X136652Y-212852D02*
X152400Y-228600D01*
X152400Y-438150D01*
X692150Y-457200D02*
X692150Y-349250D01*
X685800Y-342900D01*
X603250Y-342900D01*
X584200Y-323850D01*
X584200Y-273050D01*
X558800Y-247650D01*
X552450Y-247650D01*
X692150Y-457200D02*
X663575Y-485775D01*
X298450Y-438150D02*
X152400Y-438150D01*
X346075Y-485775D02*
X663575Y-485775D01*
X346075Y-485775D02*
X298450Y-438150D01*
D25*
X74676Y-336296D02*
X44704Y-336296D01*
X44450Y-336550D01*
X34925Y-327025D01*
X34925Y-149225D01*
X63500Y-120650D02*
X114300Y-120650D01*
X139700Y-95250D01*
X323850Y-95250D02*
X330200Y-101600D01*
X501650Y-101600D01*
X511175Y-111125D01*
X514350Y-114300D01*
X514350Y-133350D01*
X63500Y-120650D02*
X34925Y-149225D01*
X139700Y-95250D02*
X165100Y-95250D01*
X323850Y-95250D01*
X511175Y-111125D02*
X561975Y-111125D01*
X603250Y-273050D02*
X603250Y-292100D01*
X609600Y-298450D01*
X654050Y-298450D01*
X571500Y-120650D02*
X561975Y-111125D01*
X571500Y-120650D02*
X571500Y-241300D01*
X603250Y-273050D01*
D23*
X165100Y-120650D03*
D22*
X165100Y-95250D01*
D25*
X463550Y-114300D02*
X463550Y-133350D01*
X463550Y-114300D02*
X457200Y-107950D01*
X323850Y-107950D02*
X317500Y-101600D01*
X196850Y-101600D01*
X190500Y-107950D01*
X190500Y-127000D01*
X196850Y-133350D01*
X323850Y-107950D02*
X457200Y-107950D01*
X74676Y-308864D02*
X48514Y-308864D01*
X44450Y-304800D01*
X44450Y-152400D01*
X69850Y-127000D01*
X146050Y-127000D01*
X180975Y-161925D01*
X196850Y-177800D01*
D23*
X539750Y-228600D03*
D22*
X533400Y-234950D01*
X355600Y-234950D01*
X330200Y-209550D01*
X330200Y-196850D01*
X184150Y-196850D02*
X177800Y-190500D01*
X177800Y-165100D01*
X180975Y-161925D01*
X184150Y-196850D02*
X330200Y-196850D01*
D25*
X134620Y-185420D02*
X103124Y-185420D01*
X171450Y-222250D02*
X171450Y-425450D01*
X171450Y-222250D02*
X134620Y-185420D01*
D22*
X635000Y-457200D02*
X654050Y-457200D01*
X635000Y-457200D02*
X622300Y-444500D01*
X590550Y-412750D01*
X177800Y-431800D02*
X171450Y-425450D01*
X177800Y-431800D02*
X304800Y-431800D01*
X330200Y-457200D01*
X609600Y-457200D02*
X622300Y-444500D01*
X609600Y-457200D02*
X330200Y-457200D01*
X501650Y-412750D02*
X501650Y-374650D01*
X527050Y-349250D02*
X527050Y-292100D01*
X501650Y-292100D01*
X527050Y-349250D02*
X501650Y-374650D01*
D24*
X125730Y-322580D02*
X103124Y-322580D01*
X125730Y-322580D02*
X139700Y-336550D01*
X139700Y-381000D01*
X133350Y-387350D01*
X57150Y-387350D01*
X25400Y-355600D01*
X171450Y-69850D02*
X146050Y-44450D01*
X25400Y-82550D02*
X25400Y-355600D01*
X25400Y-82550D02*
X63500Y-44450D01*
X146050Y-44450D01*
M02*
