M48
;GenerationSoftware,Autodesk,EAGLE,9.5.2*%
;CreationDate,2020-10-21T10:29:54Z*%
FMAT,2
ICI,OFF
METRIC,TZ,000.000
T9C0.350
T8C0.813
T7C1.000
T6C1.016
T5C1.118
T4C1.321
T3C1.778
T2C2.007
T1C3.302
%
G90
M71
T1
X40005Y-29210
X8890Y-42062
X8890Y-8738
T2
X24130Y-47625
X61595Y-13970
X31115Y-6985
X29210Y-47625
T3
X3810Y-3175
X71755Y-3175
X71755Y-49530
X3810Y-49530
T4
X16510Y-47625
T5
X50165Y-26924
X50165Y-31496
X50165Y-29210
T6
X10312Y-35001
X10312Y-18542
X10312Y-32258
X7468Y-30886
X7468Y-33630
X7468Y-28143
X7468Y-25400
X7468Y-22657
X7468Y-17170
X7468Y-19914
X10312Y-15799
X10312Y-29515
X10312Y-26772
X10312Y-24028
X10312Y-21285
T7
X59055Y-41275
X50165Y-41275
X50165Y-6985
X52705Y-6985
X55245Y-6985
X35560Y-6985
X40640Y-6985
X65405Y-27305
X38100Y-6985
X65405Y-24765
X59690Y-6985
X62230Y-6985
X64770Y-6985
X52705Y-41275
X67310Y-6985
X65405Y-29845
X56515Y-41275
X65405Y-32385
X43180Y-6985
X47625Y-6985
T8
X36195Y-20955
X46355Y-13335
X43815Y-13335
X38735Y-13335
X41275Y-13335
X38735Y-20955
X41275Y-20955
X46355Y-20955
X48895Y-20955
X51435Y-20955
X55245Y-34925
X19685Y-21590
X29845Y-21590
X19685Y-17780
X29845Y-17780
X19685Y-13335
X29845Y-13335
X30480Y-38735
X20320Y-38735
X30480Y-33655
X20320Y-33655
X30480Y-27940
X20320Y-27940
X70485Y-17780
X60325Y-17780
X65405Y-45720
X65405Y-35560
X36830Y-38100
X36830Y-43180
X43180Y-43180
X43180Y-40640
X55245Y-24765
X43815Y-20955
X51435Y-13335
X48895Y-13335
X36195Y-13335
X27305Y-6985
X17145Y-6985
X17145Y-3810
X27305Y-3810
T9
X53975Y-22860
X16510Y-12065
X33655Y-42545
M30